<?xml version="1.0" encoding="UTF-8"?><svg id="a" xmlns="http://www.w3.org/2000/svg" xmlns:xlink="http://www.w3.org/1999/xlink" viewBox="0 0 2708.6 4312.4"><defs><linearGradient id="e" x1="1737.3" y1="-5330" x2="2269.6" y2="-4407.9" gradientTransform="translate(0 -3065) scale(1 -1)" gradientUnits="userSpaceOnUse"><stop offset="0" stop-color="#30409a"/><stop offset="0" stop-color="#28347d"/><stop offset="0" stop-color="#212863"/><stop offset=".2" stop-color="#1b1f4d"/><stop offset=".3" stop-color="#16183c"/><stop offset=".4" stop-color="#131330"/><stop offset=".6" stop-color="#111029"/><stop offset="1" stop-color="#111028"/></linearGradient><linearGradient id="g" x1="-5287" y1=".8" x2="-5287" y2="1.8" gradientTransform="translate(13791412.6 -342.2) scale(2608.3 2592.4)" gradientUnits="userSpaceOnUse"><stop offset="0" stop-color="#000"/><stop offset=".2" stop-color="#080714"/><stop offset=".4" stop-color="#0f0e25"/><stop offset=".5" stop-color="#111029"/><stop offset=".6" stop-color="#111029"/><stop offset=".8" stop-color="#131330"/><stop offset=".9" stop-color="#131331"/><stop offset="1" stop-color="#30409a"/></linearGradient><linearGradient id="m" x1="-2643.5" y1="6155.9" x2="-2643.5" y2="6154.9" gradientTransform="translate(7160015.5 10049460) scale(2708 -1632.5)" gradientUnits="userSpaceOnUse"><stop offset="0" stop-color="#000"/><stop offset=".3" stop-color="#1f1f3d"/><stop offset=".6" stop-color="#4c3a6b"/><stop offset="1" stop-color="#d8bfd8"/></linearGradient><linearGradient id="n" x1="0" y1="3497.1" x2="2708.6" y2="3497.1" gradientTransform="translate(0 4314) scale(1 -1)" gradientUnits="userSpaceOnUse"><stop offset="0" stop-color="#fff"/><stop offset="1" stop-color="#231f20"/></linearGradient><linearGradient id="o" x1="-2711.5" y1="1974.4" x2="-2503.1" y2="1613.5" gradientTransform="translate(1456425.4 -428918) scale(551.1 232.4)" gradientUnits="userSpaceOnUse"><stop offset="0" stop-color="#000"/><stop offset=".3" stop-color="#1f1f3d"/><stop offset=".6" stop-color="#4c3a6b"/><stop offset="1" stop-color="#d8bfd8"/></linearGradient><linearGradient id="p" x1="1535.7" y1="3337.7" x2="2087.8" y2="3337.7" gradientTransform="translate(0 4314) scale(1 -1)" gradientUnits="userSpaceOnUse"><stop offset="0" stop-color="#fff"/><stop offset="1" stop-color="#231f20"/></linearGradient><linearGradient id="q" x1="-2751.8" y1="2061.7" x2="-2654.8" y2="1893.5" gradientTransform="translate(755198.9 -196051.2) scale(285.9 106.1)" gradientUnits="userSpaceOnUse"><stop offset="0" stop-color="#000"/><stop offset=".3" stop-color="#1f1f3d"/><stop offset=".6" stop-color="#4c3a6b"/><stop offset="1" stop-color="#d8bfd8"/></linearGradient><linearGradient id="r" x1="1691.1" y1="3099" x2="1978" y2="3099" gradientTransform="translate(0 4314) scale(1 -1)" gradientUnits="userSpaceOnUse"><stop offset="0" stop-color="#fff"/><stop offset="1" stop-color="#231f20"/></linearGradient><linearGradient id="s" x1="-2886.6" y1="2268.2" x2="-2346.3" y2="1332.4" gradientTransform="translate(2585823.2 -1698291.5) scale(978.1 921.4)" gradientUnits="userSpaceOnUse"><stop offset="0" stop-color="#000"/><stop offset=".3" stop-color="#1f1f3d"/><stop offset=".6" stop-color="#4c3a6b"/><stop offset="1" stop-color="#d8bfd8"/></linearGradient><linearGradient id="t" x1="1364.5" y1="3350.3" x2="2343.6" y2="3350.3" gradientTransform="translate(0 4314) scale(1 -1)" gradientUnits="userSpaceOnUse"><stop offset="0" stop-color="#fff"/><stop offset="1" stop-color="#231f20"/></linearGradient><linearGradient id="w" x1="1084.4" y1="-4881.7" x2="1084.4" y2="-4063.4" gradientTransform="translate(0 -3065) scale(1 -1)" gradientUnits="userSpaceOnUse"><stop offset="0" stop-color="#30409a"/><stop offset="0" stop-color="#28347d"/><stop offset=".3" stop-color="#1f275e"/><stop offset=".4" stop-color="#191c46"/><stop offset=".6" stop-color="#141535"/><stop offset=".8" stop-color="#11112b"/><stop offset="1" stop-color="#111028"/></linearGradient><linearGradient id="y" x1="297.8" y1="-6528.9" x2="297.8" y2="-3558.6" gradientTransform="translate(0 -3065) scale(1 -1)" gradientUnits="userSpaceOnUse"><stop offset="0" stop-color="#30409a"/><stop offset="0" stop-color="#2d3b8f"/><stop offset="0" stop-color="#28347d"/><stop offset=".2" stop-color="#1f265e"/><stop offset=".4" stop-color="#191c46"/><stop offset=".6" stop-color="#141535"/><stop offset=".8" stop-color="#11112b"/><stop offset="1" stop-color="#111028"/></linearGradient><linearGradient id="ac" x1="2467.3" y1="559.2" x2="2467.3" y2="1594.6" gradientUnits="userSpaceOnUse"><stop offset="0" stop-color="#000"/><stop offset=".2" stop-color="#080714"/><stop offset=".6" stop-color="#111029"/><stop offset=".9" stop-color="#131331"/></linearGradient></defs><g id="b"><path d="M1725.8,3272.8c-857.5-266.2-1417.3-738.5-1387.3-1160.4,23-324.1,398.6-687.8,511.1-641,49.1,20.4,51.8,123.8,114.8,133.8,52.6,8.3,68.8-77.4,129.8-83.7,76.1-7.8,137.1,111.9,236.9,308.1,12.9,25.4,35.9,72.5,23.5,124.7-8.3,34.8-28,53.7-38,67.8-56.2,79.1-11,290.9,134.3,386.7,136.7,90.1,338.4,62,463.3-79.9,154.4,72.4,250.8,196.1,242.1,316-3.8,52.7-32,159.8-113.4,176-57,11.3-122.7-25.3-163.1-91.2-122.5,64.7-48.6,185.7,68.4,211.2-3.5,37.6-13.8,94.8-46.1,156.2-54.8,103.9-139.1,155.8-176.1,175.6h-.2Z" fill="#106d30"/><path d="M763.2,1809.5c11.4-24.1,68.9-18.9,84.9-17.5,124.5,11.2,137.9,105.1,236.3,116.6,94.2,11,158.1-66.4,237.6-34,20.4,8.3,28,18.2,30.9,26.8,9.7,29-26.3,67.9-48.5,82.2-86.5,55.7-233.5-49.1-242.5-55.7-21.2,10-95.9,42.3-176.2,13-74.1-27-137.2-100.6-122.6-131.5h0Z" fill="#f8f8f8"/></g><g id="c"><path d="M685.7,1565.1c10-10.1,55.2-53.9,125.2-55.4,98.2-2,154.2,81.1,157.7,86.5,66-41.7,146.5-42.7,203.7-3,51.8,36,65.6,92.2,68.9,108,11.2,8.5,26.8,21.1,43.8,38.2,35.6,35.8,65.2,65.7,76,111.6,16,68.3-19.7,128.8-21.9,132.5-20.5,33.7-38.6,34.9-43.9,62.9-7.7,41.2,25.6,68.5,12,90.9-5,8.2-17.5,17.7-53.5,17,3.5-8.2,7.4-20.8,6.6-36.1-2.1-40.4-35-64.5-40.2-68.2,9.6-.9,53.9-6,87.3-44.4,4.5-5.2,32-37.8,31.8-85.1,0-11.4-1.8-42.1-49.3-106.7-21.9-29.8-56.7-71.1-108.9-112.7-2.3-14.1-8.4-37.9-26.7-58.9-48.4-55.6-150.6-55.2-169.5-22.1-13.1,23.1,16,58.9,9.2,63.4-11.3,7.5-66.6-101.1-160.4-130.8-56-17.7-110.9-2.7-147.9,12.4h0Z" fill="#d44f4f"/><path d="M2024.7,2436.8c79.4,16.8,11.4,52.5,64.7,92.5,14.8,16.2,15.6,36.2,13.4,60.2,19.6,64.5,42.6,56.4,9.2,157.6,20.7-18.3,41.5-36.6,62.2-54.9-48-84.8-21.7-284.9-149.5-255.4h0Z" fill="#d44f4f"/><path d="M1844.9,2900.6c64.6,33.8,95,207.3-2,117.9,22.4,24.1,48.5,130.3-25.1,108.1,7.2,15.1,13.4,31.1-2.3,54.3-8.8,10.2-19.1,9.9-19.5,15.3,29.5,61.1,116.7-164.3,145.6-191.3,9.7-36.8-32.8-114.9-96.7-104.3Z" fill="#d44f4f"/></g><g id="d"><path d="M1316.5,2022.1c12.6-31.6,25.1-63.3,37.7-94.9-3.7-39.3-2-93.5,29.2-139.6,42.9-63.6,109.9-49.3,175.1-117.6,49.6-51.9,30.3-78.6,68.7-126.8,86.6-108.7,299.9-117.1,451.4-50.2,40.7,18,108.2,55.3,171.5,132.7,76.3-5,152.6-9.9,228.9-14.8,76.5-4.9,152.9-9.8,229.5-14.6v77.7c-61.1,74-122.3,147.9-183.4,221.9-104.3,11.9-208.7,23.8-313,35.8-36.1,44.9-75.2,67.9-97.9,79.1-17.3,8.5-119.4,56.5-225.8,11.3-33.6-14.3-57.4-33.5-71.9-46.9-83.2,7.8-166.5,15.6-249.7,23.4-83.4,7.8-166.9,15.7-250.3,23.5h0Z" fill="url(#e)"/></g><g id="f"><path d="M1521.7,3197.4c9.7,10.8,80.3,87.5,176.2,77.1,80.7-8.7,129.5-74.8,157.1-111.9,36.8-49.5,28.6-70.6,59.9-118.9,5.9-9,21.6-32.1,16.7-59.1-.5-2.6-1-4.3-1.7-6.8-3.8-13.7-13.6-41.2-38.5-60.2-26.7-20.4-61.3-23.8-62.4-23.9-2.2-.2-2.8-.2-1.1-.2,280.6,3.7,410.3-155.8,254.8-453.8-367.3-65.4-269.2,40-308.8,240-104.4,20.7-179.4,3.9-223.1-11.4-11.6-4-102-35.5-98.7-66.3,1.5-14.6,23.7-24.7,44.4-31.2-19.3-12.6-40-28.3-60.6-48.1-64.7-62.1-95.5-132.3-110.5-177.8,63.5-27.7,76.3-47.4,75.2-60.7-2.2-26.8-61.1-29.1-83.7-81-4.2-9.6-5.7-25.6-8.5-57.3-5.5-62.1-8.3-93.2-4.2-102.7,21.4-49.8,129.7-33.1,361-50.2,44.9-3.3,86.2-23.8,145.6-14.6,65.8,10.2,64.4,34.7,126.2,46.1,73.5,13.5,173.4-3.2,235.4-58.2,12.9-11.4,22.4-23,43.7-34,35.7-18.4,66.1-15.4,114.1-14.6,57.3,1,126.8,10.7,182-19.4,3.7-2,7.1-4.1,10.4-6.4,30.6-21.4,47.2-46,52.7-54.3,18.2-27.2,64.8-83.5,133.2-163.1v1935.5c-20,16.3-50.9,37.4-92.8,49.4-37.9,10.9-56.1,6.2-85.8,17.8-55.5,21.6-82.5,73.6-86.7,80.2-35.7,56.1-608.7,202.3-2343.5,531.4" fill="url(#g)"/></g><g id="h"><path d="M2708.5,3288.9c-16.1,2.9-32.3,5.8-48.4,8.7-15.7,2.9-31.5,5.7-47.2,8.6,4,58.9,8,117.8,12,176.7-19.4,6.2-38.9,12.3-58.3,18.5l-2.7,34.3c-11.9-.3-23.7-.5-35.6-.8-7.5,10.1-14.9,20.2-22.4,30.3-49-7.3-98-14.7-147-22-6.8,75.9-71.9,253.7-133,104-51,76.6-85.5,54.7-164,56.8-139.5,180.5-136.7,110.4-305,20.2-99.6,94.4-154-155.1-290-41.1-192.7,281.3-256,466.3-189.9,555.1,111.1,149.3,588.3,26.3,1431.5-369.2" fill="#010a13"/></g><g id="i"><path d="M.5,4000.3v-1699c20-48.9,76.5-167.4,206.7-247.1,62.8-38.5,123.1-55.9,166.7-64.3,1.5,21.7,5.9,53.9,20.2,89.5,70.3,175.8,296.2,227.6,385.9,248.2,122.8,28.2,275.1,63.1,381.8-17.8,55-41.7,83-102.9,140.1-99.4,37,2.2,80.9,31.4,83.1,69.3,2.2,37.2-35.7,79.3-93.8,85.2,58.2,59.2,116.5,118.3,174.7,177.5-.8,128.1,164.3,169.1,259.6,151.7,26.8,47.1,60.7,100.2,92,144-82.9-47.7-148.4-32.8-202.6,55.8-154.6,114-261.5,37.3-238.8,323.7,146.2-51.7,124.9-43.3,52.1,66.1-50,75.1-50.7,90.2-72.1,100.5-49.4,23.9-117-19.1-148-41.7,262.4,193.2,337.1,487.8,231.7,658.2-72.5,117.3-215.2,151.5-271.9,161.7-80.4-38.9-14.9-205.1-124.6-313.9-79.8-68.7-150.5-95.1-215-93.5-271,6.8-386.1,458-657.2,451-53.8-1.4-96.6-20.6-121.2-33.9" fill="#101636"/></g><g id="j"><path d="M1475.9,3514.4c-60.3-66.7,58.9-321.4,133.4-314.5,16.8,1.6,31.8,16.5,48,32.7,33.3,33.1,45.7,70.4,48.2,77.6,44.3,125.2,366.4,365.7,336.5,410.7-3.1,4.7-8.8,5.5-17,6.7-34.9,5.2-66.2-31.6-130.2-113.5-88.7-113.5-88.9-119.9-121.4-151.4-33.7-32.8-45.8-37.7-74.4-71.6-44.7-52.9-56.9-90.2-70.2-87.1-15.4,3.6-21,58.1-12.3,107.3,3.4,19.1,15.8,76.3,98.7,174,68.7,81,84.4,70.2,114.1,122.2,41.9,73.3,55.5,173.1,21.2,195.5-13.3,8.7-31.6,4.2-43.5,0,53.9-266.9-311.3-294.5-232.3-612.7-55.7,52-71.7,97.9-74.6,132.4-4.1,48.5,15.5,98.7,1.5,105.3-7.6,3.6-20.3-7.4-25.8-13.4v-.2Z" fill="#102449"/><path d="M2014.4,3017.4c-9.3-2.2-42.4,68.2-52.8,150.9-10,80,4.5,146.1,16.6,185.9,28.9,47.9,47.7,107.2,90.3,69.6,7.8,11.5,57.5,84.2,84.8,73.8,7.1-2.7,13.3-11.3,13.5-19.5.6-19.4-32.3-23.8-48.3-55.7-8.4-16.7-3-22.8-8.6-40.2-12.1-37.8-51.2-52.2-68.8-64.3-83.7-58-10-296.5-26.9-300.5h.2Z" fill="#102449"/><path d="M2099.9,3193.2c-9.7,44.1,4.4,83.4,43.4,59,28.3,28,56.6,55.9,84.9,83.9,74.7-57.7-96.8-153.1-128.3-142.9h0Z" fill="#102449"/><path d="M2245.3,3056.4c44.2,33,131.6,37.6,128.6,97.2,17.4,7.4,38.1,17.8,36.8,26.7-1.8,12.3-46.1,20-84.2,12.9-49.9-9.3-112.3-48.2-108.8-92.3.6-7.6,4-25.1,27.5-44.5h0Z" fill="#102449"/><path d="M2446.9,3062.5c76.6,94.5,93.8,364.3,43.1,451.4,13.8-22.2,32.5-57.1,44.9-102.7,37.5-138.1-14.9-256.6-33.9-298.1-53.5-116.5-139.7-182.4-142-180.4-2,1.4,43.9,48.2,87.9,129.8Z" fill="#102449"/><path d="M2212.1,2645.5c16.7-19.2,153.1-171.3,295.2-136.8,15.1,3.7,31.5,9.8,48.6,19.6-3.5-11.4-10-26.1-23.2-37.7-40.8-35.9-111.4-12.2-142-1.9-99.1,33.3-155.1,116-178.6,156.8h0Z" fill="#cd3349"/><path d="M1973.4,2424.7c-10.2-232.9,39.3-258.2,157.8-254.9-113.9-112.1-197.7,40.2-189.3,229.4-70.4-67.1-39.1-157.9,37.2-235.8-122.7-72.6-167.2,247.5-5.7,261.3h0Z" fill="#cd3349"/><path d="M1893.3,2714.3c53.5,125.6,103.8,100.3,4.6,194.9-142.4-61-75.9-43.2-4.6-194.9Z" fill="#102449"/><path d="M2186.9,2838.1c105,27.6,203.6-27.2,222.7-37.9,115.2-64,166.3-182.3,178.6-175,5.8,3.5-2.6,31.2-14.3,55.5-68.9,143-290.1,244.1-443.8,183.8-188.6-116.6-23,53.8,86,187.6-8.1,8.7-16.2,17.5-24.3,26.2-52.9-52.9-105.7-105.7-158.6-158.6,14.7,95.6,76.7,213.2,124.6,268.3-45.1,134.3-388.7-695.2,29.1-349.9h0Z" fill="#351b44"/></g><g id="k"><path d="M2708.5,3610c-12.7,6.4-32.1,16-56.1,26.9-56.9,25.8-78.3,31.3-104,44.2-26.7,13.4-62.9,37.7-99,85.1-98.2-32.2-261.4,129-243.3,209.8-233.1,36.4-397.8,265-618.4,150-349-85.6-960.7,50.5-960.7,50.5-69.3,15.6-140.8,33.2-214.3,53.1-96.2,26.1-187.5,53.9-273.9,82.7h2569.6" fill="#081836"/></g><g id="l"><path d="M2708.5,1615.6c-113.6-32.9-200.8-28.5-261-17.5-81.1,14.8-131.1,45-192.5,21-58.3-22.8-72.1-73-101.9-106.8-113.9-129.1-433,16.1-703.8,55-158.6,22.8-391.6,22.4-694.1-97.1-52.2,54.3-104.4,108.5-156.7,162.8-52-80.8-103.4-162.1-153.9-243.8,0,0-75.6-122.2-149.2-246.6C240.4,1049.7,151.1,894.9.5,622.5V.5h2708" fill="url(#m)" stroke="url(#n)" stroke-miterlimit="10"/><path d="M1539.2,947.9c302.7,62.3,270.9,20.2,477.3-87.8,102.9,6.1,83.1,147.4,7.4,184-49.4,13.5-193-29.1-275,14-102.4,61.1-234.3,50.1-209.7-110.2h0Z" fill="url(#o)" stroke="url(#p)" stroke-miterlimit="10"/><path d="M1691.9,1222.1c14.6-23.2,236.1-80,255.1-53,20.2,13.2,35.6,39.1,28.9,53-19.5,26.1-163,7.9-163.2,16.3-41.3,11.1-48.3,33.8-75.5,29-24.7-4.3-48.5-28.3-45.3-45.3Z" fill="url(#q)" stroke="url(#r)" stroke-miterlimit="10"/><path d="M1374.8,734.6c303.3-296.4,710.5-285.6,877-95.8,154.5,176.1,68,467.6,59.7,494.5-7.3,25.5-18.3,54.8-32.4,55-23.6.4-36.6-81.8-69.6-186.1-46.9-148.2-81.2-256.3-166.3-304.7-28.4-16.2-90.7-41.8-200.9-13.1-40.9-.9-148,2.6-224.8,77.9-71.3,70-76.8,163.2-83.7,280.5-4.7,79.5-2.3,206.1,44.7,359-40.4,23.8-70.1,25.9-92.2,19.4-157.7-46.4-119.4-586.7-111.6-686.7h.1Z" fill="url(#s)" stroke="url(#t)" stroke-miterlimit="10"/></g><g id="u"><path d="M1588.3,1409.8c-29.9-66.3-85.1-214-54.2-395.8,15-88.5,37.1-218.9,146.5-295,153.7-107,403-53.4,456.3,55,27.2,55.2-2.2,113.2,45.3,221.7,17,38.8,36.7,67.9,50.2,85.8,19.9,57.9,41.7,109.8,56.5,107.3,39.2-6.7,108.8-412.5-100.2-599.1-202.3-180.7-609.4-105.8-776.6,139.1-160.3,234.8-92.8,615,63.1,679.6,32.5,13.4,70.3,13.8,113.2,1.5h-.1Z" fill="#da2828"/></g><path d="M1552,945.2c297.3,68.6,231,26.4,464.5-76.7,68.6,3.4,83.9,103.1,52.4,132.8-90.8,123.6-237.4,3.6-310.9,38.1-81.1,124.3-253.9,24.2-205.9-94.3h0Z" fill="#b91b1f"/><g id="v"><path d="M567.1,1691.2c.3-121.8.6-243.5.9-365.3,9.7-.2,19.3-.5,29-.7-1-64.7-1.9-129.4-2.9-194.1,25-9.4,49.9-18.7,74.9-28.1,42.3,28,84.7,55.9,127,83.9v175.1c33.3-8.9,66.6-17.8,100-26.7,31.1,29.3,62.2,58.7,93.3,88v65.1c14.2,10,28.3,19.9,42.5,29.9,1.1-124.1,2.1-248.3,3.2-372.4l48-19.8c1.2-37.8,2.5-75.6,3.7-113.3,31.3-4.8,62.5-9.6,93.8-14.4-18,100.8,50.4,115.5,120.6,165.9,66.1,121.7,198.3,291.6,300.6,386.1-16.2,49-32.5,97.9-48.7,146.9-62.8,39.8-125.6,79.6-188.4,119.4-40.3-32.2-80.5-64.4-120.8-96.6-1.9-22.3-9.2-67.5-43.8-103.8-53-55.7-148.3-67.5-235.6-25.7-18.1-19.9-67.5-68.2-141.3-76-101.2-10.6-207.1,59.5-256,176.6h0Z" fill="url(#w)"/></g><g id="x"><path d="M.5,622.6c18.8,8.5,37.7,17.1,56.5,25.6,36.5-19.2,73.1-38.4,109.6-57.6,1.1-32.3,2.3-64.7,3.4-97,46.5,16.7,93.1,33.5,139.6,50.2l.4,303.4c25.7,13.7,51.3,27.3,77,41v-136.9h62.4c-.3,69-.5,137.9-.8,206.9,22.6,15.3,45.2,30.6,67.8,45.9v379.1c25.9,18.2,51.9,36.3,77.8,54.5.3,69.3.6,138.5.9,207.8-45.5,46.7-96,105.3-145.1,177.1-41.6,60.9-73.9,119-99,170.8-28.5,7.9-67.8,22.5-108.7,50.1-62.5,42.2-97.7,94-115.3,124.6,43.8,10.5,87.6,21,131.4,31.5,19.9,23.6,38.4,52.6,29.1,72.8-13.4,29.1-72.1,13.1-99.5,46.1-25.4,30.6-6.3,82.2,4.9,121.3,34.7,121.8-10.7,111.3,11.7,369.7,12,138.3,26.6,159,12.5,229.7-16.5,82.9-52.1,141.4-72.8,174.7-41,66.1-86.9,146.3-143.8,250" fill="url(#y)"/></g><g id="z"><path d="M67.5,2598.5c21.8,8.6,43.6,17.2,65.4,25.8v109.9c7.4.3,14.9.7,22.3,1-2.5,152.7-5,305.3-7.5,458-26.4,53.1-52.3,106.3-77.8,159.8-23.5,49.3-46.6,98.7-69.4,148.3v-929.2c22.3,8.8,44.7,17.7,67,26.5h0Z" fill="#0d2041"/></g><path d="M389.4,2505.5c60.4-31,136.1-8.3,171.7,49.1,35.5,57.2,21.3,133.3-28.6,172.6-61.6,48.5-160.9,27.9-198.5-42.6-32.8-61.6-10.2-145.5,55.4-179.1h0Z" fill="#cda535"/><path d="M418.6,1022.9c-2.1-2.1-4.5-3.6-6.7-4.6-45.6-18.8-235-96.7-241.8-98.2-3.2-.7-5.2.5-5.2.5,0,0-1.5,0-2.9,4.6-.6,1.8-1,97,2.8,774.5,0,1,.3,3.3,2.1,5.6,2.3,3,5.5,3.7,6.3,3.8,18.6,6,231.9,75.1,241.7,77.3,1.2.3,4.8,1.1,7.4-.8s2.9-4.9,2.9-5.4c.4-154.9,1.9-741.7-1.6-750.3-1.7-4.2-4.8-7.2-4.8-7.2l-.2.2h0ZM176.4,1697.4c-1.8-3-1.9-6-1.9-7,0-5.5-1.8-319.6-4-748.6,0-.5,0-3.5,2.4-5.7,2.1-1.9,5.2-2.4,7.9-1.4,127.3,51.9,220,89.7,225.3,91.7.2,0,4.4,1.8,6.1,4.7,1,1.8,1.2,3.6,1.2,4.7v.8c-.1,1.8.6,228.4,2.4,732.7-.2.7-.6,1.6-1.3,2.4-2.6,2.9-6.8,2.2-7.3,2.2-75.6-24.2-151.2-48.4-226.8-72.5-1-.6-2.7-1.9-4-4h0Z" fill="#ffdef3"/><g opacity=".3"><path d="M418.6,1022.9c-2.1-2.1-4.5-3.6-6.7-4.6-45.6-18.8-235-96.7-241.8-98.2-3.2-.7-5.2.5-5.2.5,0,0-1.5,0-2.9,4.6-.6,1.8-1,97,2.8,774.5,0,1,.3,3.3,2.1,5.6,2.3,3,5.5,3.7,6.3,3.8,18.6,6,231.9,75.1,241.7,77.3,1.2.3,4.8,1.1,7.4-.8s2.9-4.9,2.9-5.4c.4-154.9,1.9-741.7-1.6-750.3-1.7-4.2-4.8-7.2-4.8-7.2l-.2.2h0ZM176.4,1697.4c-1.8-3-1.9-6-1.9-7,0-5.5-1.8-319.6-4-748.6,0-.5,0-3.5,2.4-5.7,2.1-1.9,5.2-2.4,7.9-1.4,127.3,51.9,220,89.7,225.3,91.7.2,0,4.4,1.8,6.1,4.7,1,1.8,1.2,3.6,1.2,4.7v.8c-.1,1.8.6,228.4,2.4,732.7-.2.7-.6,1.6-1.3,2.4-2.6,2.9-6.8,2.2-7.3,2.2-75.6-24.2-151.2-48.4-226.8-72.5-1-.6-2.7-1.9-4-4h0Z" fill="none" stroke="#f6adcd" stroke-miterlimit="10" stroke-width="16"/></g><g opacity=".6"><path d="M418.6,1022.9c-2.1-2.1-4.5-3.6-6.7-4.6-45.6-18.8-235-96.7-241.8-98.2-3.2-.7-5.2.5-5.2.5,0,0-1.5,0-2.9,4.6-.6,1.8-1,97,2.8,774.5,0,1,.3,3.3,2.1,5.6,2.3,3,5.5,3.7,6.3,3.8,18.6,6,231.9,75.1,241.7,77.3,1.2.3,4.8,1.1,7.4-.8s2.9-4.9,2.9-5.4c.4-154.9,1.9-741.7-1.6-750.3-1.7-4.2-4.8-7.2-4.8-7.2l-.2.2h0ZM176.4,1697.4c-1.8-3-1.9-6-1.9-7,0-5.5-1.8-319.6-4-748.6,0-.5,0-3.5,2.4-5.7,2.1-1.9,5.2-2.4,7.9-1.4,127.3,51.9,220,89.7,225.3,91.7.2,0,4.4,1.8,6.1,4.7,1,1.8,1.2,3.6,1.2,4.7v.8c-.1,1.8.6,228.4,2.4,732.7-.2.7-.6,1.6-1.3,2.4-2.6,2.9-6.8,2.2-7.3,2.2-75.6-24.2-151.2-48.4-226.8-72.5-1-.6-2.7-1.9-4-4h0Z" fill="none" stroke="#f064a5" stroke-miterlimit="10" stroke-width="6"/></g><path d="M418.6,1022.9c-2.1-2.1-4.5-3.6-6.7-4.6-45.6-18.8-235-96.7-241.8-98.2-3.2-.7-5.2.5-5.2.5,0,0-1.5,0-2.9,4.6-.6,1.8-1,97,2.8,774.5,0,1,.3,3.3,2.1,5.6,2.3,3,5.5,3.7,6.3,3.8,18.6,6,231.9,75.1,241.7,77.3,1.2.3,4.8,1.1,7.4-.8s2.9-4.9,2.9-5.4c.4-154.9,1.9-741.7-1.6-750.3-1.7-4.2-4.8-7.2-4.8-7.2l-.2.2h0ZM176.4,1697.4c-1.8-3-1.9-6-1.9-7,0-5.5-1.8-319.6-4-748.6,0-.5,0-3.5,2.4-5.7,2.1-1.9,5.2-2.4,7.9-1.4,127.3,51.9,220,89.7,225.3,91.7.2,0,4.4,1.8,6.1,4.7,1,1.8,1.2,3.6,1.2,4.7v.8c-.1,1.8.6,228.4,2.4,732.7-.2.7-.6,1.6-1.3,2.4-2.6,2.9-6.8,2.2-7.3,2.2-75.6-24.2-151.2-48.4-226.8-72.5-1-.6-2.7-1.9-4-4h0Z" fill="none" stroke="#f065a4" stroke-miterlimit="10" stroke-width="2"/><g id="aa"><path d="M249.9,1393.4c79.1-8.1,129.2,17.9,14,12.2-6.2,34.9,9.5,33.7,39.5,31.5,5.4,22.3-25.4,9.3-39.6,12.6-12,52.6,33.6,33.9,70.1,37,1.8,31-60.5,7.8-84.5,14.6.2-36,.3-72,.5-107.9h0Z" fill="#ffe6f6"/><path d="M249.9,1393.4c79.1-8.1,129.2,17.9,14,12.2-6.2,34.9,9.5,33.7,39.5,31.5,5.4,22.3-25.4,9.3-39.6,12.6-12,52.6,33.6,33.9,70.1,37,1.8,31-60.5,7.8-84.5,14.6.2-36,.3-72,.5-107.9h0Z" fill="none" isolation="isolate" opacity=".3" stroke="#f6adcd" stroke-miterlimit="10" stroke-width="12"/><path d="M249.9,1393.4c79.1-8.1,129.2,17.9,14,12.2-6.2,34.9,9.5,33.7,39.5,31.5,5.4,22.3-25.4,9.3-39.6,12.6-12,52.6,33.6,33.9,70.1,37,1.8,31-60.5,7.8-84.5,14.6.2-36,.3-72,.5-107.9h0Z" fill="none" isolation="isolate" opacity=".6" stroke="#f287b7" stroke-miterlimit="10" stroke-width="6"/><path d="M249.9,1393.4c79.1-8.1,129.2,17.9,14,12.2-6.2,34.9,9.5,33.7,39.5,31.5,5.4,22.3-25.4,9.3-39.6,12.6-12,52.6,33.6,33.9,70.1,37,1.8,31-60.5,7.8-84.5,14.6.2-36,.3-72,.5-107.9h0Z" fill="none" stroke="#f065a5" stroke-miterlimit="10" stroke-width="2"/><path d="M249.1,1575.5c16.3-18.4,29.5,31.5,43,42.8,15.2-11.8,28.8-60.8,47.7-43.1-57.3,54.9-28.6,106.7-55.2,100.9,6.8-40-14-69-35.5-100.6h0Z" fill="#ffe6f6"/><path d="M249.1,1575.5c16.3-18.4,29.5,31.5,43,42.8,15.2-11.8,28.8-60.8,47.7-43.1-57.3,54.9-28.6,106.7-55.2,100.9,6.8-40-14-69-35.5-100.6h0Z" fill="none" isolation="isolate" opacity=".3" stroke="#f6adcd" stroke-miterlimit="10" stroke-width="12"/><path d="M249.1,1575.5c16.3-18.4,29.5,31.5,43,42.8,15.2-11.8,28.8-60.8,47.7-43.1-57.3,54.9-28.6,106.7-55.2,100.9,6.8-40-14-69-35.5-100.6h0Z" fill="none" isolation="isolate" opacity=".6" stroke="#f287b7" stroke-miterlimit="10" stroke-width="6"/><path d="M249.1,1575.5c16.3-18.4,29.5,31.5,43,42.8,15.2-11.8,28.8-60.8,47.7-43.1-57.3,54.9-28.6,106.7-55.2,100.9,6.8-40-14-69-35.5-100.6h0Z" fill="none" stroke="#f065a5" stroke-miterlimit="10" stroke-width="2"/><path d="M256.1,1057.4c-14.1,63.2-9.9,130.8,73.2,97.9,15.8-62.9,9.9-130.5-73.2-97.9h0ZM321.4,1149c-64.6,26-69.6-34.7-57.8-83.1,72-25.2,67.7,32,57.8,83.1Z" fill="#ffe6f6"/><g opacity=".3"><path d="M256.1,1057.4c-14.1,63.2-9.9,130.8,73.2,97.9,15.8-62.9,9.9-130.5-73.2-97.9h0ZM321.4,1149c-64.6,26-69.6-34.7-57.8-83.1,72-25.2,67.7,32,57.8,83.1Z" fill="none" stroke="#f6adcd" stroke-miterlimit="10" stroke-width="12"/></g><g opacity=".6"><path d="M256.1,1057.4c-14.1,63.2-9.9,130.8,73.2,97.9,15.8-62.9,9.9-130.5-73.2-97.9h0ZM321.4,1149c-64.6,26-69.6-34.7-57.8-83.1,72-25.2,67.7,32,57.8,83.1Z" fill="none" stroke="#f287b7" stroke-miterlimit="10" stroke-width="6"/></g><path d="M256.1,1057.4c-14.1,63.2-9.9,130.8,73.2,97.9,15.8-62.9,9.9-130.5-73.2-97.9h0ZM321.4,1149c-64.6,26-69.6-34.7-57.8-83.1,72-25.2,67.7,32,57.8,83.1Z" fill="none" stroke="#f065a5" stroke-miterlimit="10" stroke-width="2"/><path d="M322.3,1267.2c45.5-58.6-29.9-59.7-69-56-.2,36-.4,72-.6,107.9,38.2,4.8,118.2,0,69.5-51.9h.1ZM262.4,1221.8c26.1-4.2,94.5,2,48.5,35.4-33.8,1.1-56.7,6.2-48.5-35.4ZM324.6,1290.4c-4.1,29.2-42.4,12.6-62.4,16.7v-35.4c20.3,4,60.9-12.8,62.4,18.7h0Z" fill="#ffe6f6"/><g opacity=".3"><path d="M322.3,1267.2c45.5-58.6-29.9-59.7-69-56-.2,36-.4,72-.6,107.9,38.2,4.8,118.2,0,69.5-51.9h.1ZM262.4,1221.8c26.1-4.2,94.5,2,48.5,35.4-33.8,1.1-56.7,6.2-48.5-35.4ZM324.6,1290.4c-4.1,29.2-42.4,12.6-62.4,16.7v-35.4c20.3,4,60.9-12.8,62.4,18.7h0Z" fill="none" stroke="#f6adcd" stroke-miterlimit="10" stroke-width="12"/></g><g opacity=".6"><path d="M322.3,1267.2c45.5-58.6-29.9-59.7-69-56-.2,36-.4,72-.6,107.9,38.2,4.8,118.2,0,69.5-51.9h.1ZM262.4,1221.8c26.1-4.2,94.5,2,48.5,35.4-33.8,1.1-56.7,6.2-48.5-35.4ZM324.6,1290.4c-4.1,29.2-42.4,12.6-62.4,16.7v-35.4c20.3,4,60.9-12.8,62.4,18.7h0Z" fill="none" stroke="#f287b7" stroke-miterlimit="10" stroke-width="6"/></g><path d="M322.3,1267.2c45.5-58.6-29.9-59.7-69-56-.2,36-.4,72-.6,107.9,38.2,4.8,118.2,0,69.5-51.9h.1ZM262.4,1221.8c26.1-4.2,94.5,2,48.5,35.4-33.8,1.1-56.7,6.2-48.5-35.4ZM324.6,1290.4c-4.1,29.2-42.4,12.6-62.4,16.7v-35.4c20.3,4,60.9-12.8,62.4,18.7h0Z" fill="none" stroke="#f065a5" stroke-miterlimit="10" stroke-width="2"/></g><g id="ab"><path d="M2708.6,1586.8c-.2-213.9-.3-427.8-.5-641.6-16.7-59.6-51.3-153.6-126.1-247.8-30.7-38.7-156.2-195.6-213.6-172.3-102.8,41.8,110,688.7-55.8,842.2-11.1,10.2-51.5,43.6-72.8,101.9-23.1,63.2-12.6,124.8-1.7,163.8,156.8-15.4,313.7-30.8,470.5-46.2Z" fill="url(#ac)"/></g><g id="ad"><g id="ae"><path d="M2708.5,4312.4h-446.6c37.7-12.6,57.6-36.3,53.7-52-.5-2.2-3.3-11.4-21-18.3,29.5-21.1-41.4-32.4-56.6-46.4-13.8,17.5-24.4,13.5-41.5,2.6-15.3,14.5-30.6,29-45.9,43.5,27,14.8,32.4,12.8,53-9.6l20.1,9.7c-42.2,45.7-52.3,64.9-110,26.4-27.6,14.7-55.1,29.4-82.7,44.1h-95.5c4-6.7,8-13.4,12.1-20.2,3.7-6.3,7.4-12.6,11.1-18.9-6.6-4.7-12.6-6.7-17.5-7.6-24.7-4.5-53,14.4-72.3,46.7h-330.6c7.3-3.2,17.6-8.7,28-18.1,11.7-10.6,18.7-21.7,22.6-29.2,47.2-85.3,109.3-57-39.3-119.8-16.3,9.7-32.7,19.3-49,29,14.1,14.6,82.3,25.4,36.2,46.1-28.3-10-56.3-46.7-83.6-21,111.5,58.4,50.4,65.2-20.5,11.4-62.8,31.1-23.4,35,17.9,62.6-29.6,33.8-56.8-6.1-87-21-15.3,2.9-27.8,11.7-29.9,22.2-2.8,14.5,13.8,35.8,42.8,37.8h-607.6c30.5-9.2,50.9-35,50.6-60.3-.4-33.6-37.5-66.8-83.2-59.7-26.5,20.7-53.1,41.4-79.6,62.1,17,19.3,34,38.6,51.1,57.9H.5v-738.2c94.8-73.7,139.1-115.6,132.8-125.6-2.7-4.3-14.9-2.7-36.6,4.9,58-48,116-96,174-144-77.8,187.2,119.2-130.5,173-191-70.7,48.1-146.8,105-225.3,172.3-84.3,72.2-156.6,143.8-217.9,210.5v-85.8c82.7-114.1,117.2-177.6,103.5-190.6-1.7-1.6-4.1-2.5-7.3-2.5,26.4-33.6,60-84.7,82-153,24.6-76.4,37.4-182.6,11.2-193.4-8.1-3.3-21,3-40.2,23.4-13.9-27.4,43.1-141.3,35-193-2.2-48.4-17.9-109.8-9-158,33.4-67.3-2-118.9-24.4-169.7-23.1-79.6,170-117.7,61.7-180.5-57.2-37.4-124.5-9.8-131.4-6.8,49-93.6,202.6-201.1,275-218,17-135.9,117.2-243.8,225-321,26.7-77.6,93.9-134.5,174.6-147.7,79.5-13.1,160.3,18.1,210.6,81.4,67.6-40.5,149.8-40.4,209.8.5,60.8,41.5,74.4,108.1,77,122.8,29.1,14,75.6,55,93,82,42.5-54.2,129.3-96.3,194-115,40.4-136.5-35.8-42.2-168-146-35.6-117.2-69.4-258.2-90.2-419.3-23.6-182.4-24.6-344.7-16.9-478.5,528.8-183.8,960.8-220.5,1135.2-145.6,124.7,53.6,199,138.3,199,138.3,23.4,27.1,50.9,64.7,74.5,113.4,16.3,33.6,27,64.9,34.3,91.7-.2,48.6-.3,97.1-.5,145.7-48.8,5.6-113.5-89.6-103.4-115.7-34.1,76.1,82.5,177.9,103.4,175.4-1.8,32.6-94.9-58.2-90.5-42.6,14.1,12.8,30,29.5,45.3,50.5,23.7,32.6,37.5,64,45.7,87.9v177.6c-21.1,33.1-26.9,60.9-28.7,79.2-3.8,39.7,9.3,52.2,21.7,135.1,4.7,31.4,6,57.1,6.5,72.7.2,6.5.3,13.1.5,19.6-38.5,3.2-91.9,14-138.5,50.8-61.9,48.8-54.3,98.2-108.6,123.7-65.4,30.7-117.7-21.5-170.7,11-37.8,23.2-49.6,73.4-53.6,112.6,88-7.3,176-14.7,264-22,69.1-72.6,138.3-145.2,207.4-217.8v22.1c-54.8,65.4-109.4,130.8-164,196.3-2.8,3.3-15.6,18.8-18.4,22.1-98.2,7.2-196.5,14.4-294.7,21.6-36.5,102.1-315.3,165.2-403.7,62.3l-523.5,44.7c.2,34.5,8.2,59,15.7,75.2,8.5,18.4,18.8,31.1,16.7,49.5-1.8,15.8-11.6,27.7-19.7,35.3,54.2,29.4,108.3,58.7,162.5,88.1-141.7,67.7-184.7,24.8-64.7,181.9,39.1,34.4,78.1,68.7,117.2,103.1-106.9,15.4,5,62.8,38,95,299.6-.6,158.3,20,207-201,84.5-114.6,123.5,25.9,84-165-44.9-282.4,473.8-208.2,276.1,37.1,23.5-94.1,5.3-176.5-82.1-158.1,103,154.9-50.8,222.8,57,246.1,10.5-27.4,1.5-73.7,41.9-65.5-29.5,78.9-39.6,125.3,3.1,204.5,14.6,44.2-10.6,106.5,35,45.9,231.1-310.5,646.6-93.5,292,191,60.7,36.8,110.7,296.5,55,366,34.2,104.3,32.5,376.1-88,403-81.1,12.2,116.2-191.9,51-348-60.3,101.9-175.3,159.4-180,286-.7-84.7-21.3-62.6-27,3-2.7,9.4,15.8,58.9-8,39,.1,97.6-27.5,7.3-10-32-64.7,31.2-11.1,48.7-27,82-68.8-71.6,35.1-81,27-142-.5-27,30.1-6.3,44-64,6.3-28.1,27.6,14.3,21-31,34.9-64.7,137.5-126.9,142-207-211.5-407-162.6-160.1-401-316.1,41.8,148.6,182.4,210.9,309,276-31.8,42.7,9.9,36,38,58-109.7,124.6-321.3-152.1-385-243,30.3,130.7,133.3,277.5,190.4,328.5,36.3,17,36.7,60.4-2.4,81.5-14.5-14.8-96.9-57.2-88-85-10.9,11.7-20.4,12.4-23.8,12.3-20.3-.2-35.5-27.5-38.9-48.8-3-18.8,5.9-28.5,6.2-43.4.3-19.6-8.1-47.3-46.4-96.2-52.6-18.1-48,219.6,7,232,27.6-28.3,41.8,13,61,28,26.5,25.1,19.1,25.2,3,55,26.5,44.2,105.6,77.6,28,124-26-29-51-58-78-86-6.4.5-19.5,22.5-26,12-196.9-86.7,30.1-606.5-105-528,2.8,2.6,31.2,29.8,25.9,71.1-5.1,40.8-38.5,60-42,62,1.4,2.5,16.4,30.1,2,60-14.6,30.4-46.4,35.6-49,36,11.8,48-39.6,69.4-69,89-9.3,37.2-47.5,60.8-85,51,76.8,157.4,245.9,291.2,363,412-92.5,125.9-227-146.4-307-217-10.2,36.6-20.3,73.2-30.5,109.8,13.3,8.8,136.3,93.7,135,230.8-.4,47-15.3,85.2-28.5,110.4-11.6-1.9-27.1-6.6-37.3-19.3-18.1-22.7-7.7-57.1-4.9-73.1,6.3-35.9-5.6-91.9-91-178.4-57.8,112.3-75.8,177.7-54,196.3,8.4,7.2,22.8,7.3,43.1.5,11.8,16.2,11.1,36.3,30,48,12.8,19.2-34.4,14.9-30-8,1.5-22.7-37.9-25.8-31-3,28.2,76.4-10.3,101.9-21,4-20.9-41.6-22.7-76.1-22-94.9,1.4-39.4,15.8-70.6,34.1-110.1,10.7-23.1,21.2-41.4,28.9-54-23.6-16.5-88.7-66.4-120.9-159-27.2-78.3-16.5-145.9-10.1-175-65.8,71.5-70.2,226.8,30,268,13,13.2-42.9-2.9-47-10-17.2,47,54.1,51.9,45,93-27-28.5-69.3-55.9-79-96-7,66.2-72.2-80.7-63-99,16.1-85.3,31.7-175.5,96-240-11.8-9-22-12.2-31.1-10.9-60.1,8.2-65.5,165.1-145.5,189-16.4,4.9-42.2,6-80.5-16,237,284.7,250.1,432.4,212.5,515.2-25.8,56.8-94.4,131.7-79,159.1,3.3,5.9,20.4,4.8,60.7-2.4,6.3,31.2,41.1,4.9,64,3l-21-30c4.6-1,77.3-45.1,80-36,19.6,28.9,25.9,19.6,53,7,20.9,15.8,34.5,108.8,76,72,42.2,180,211.4-66.4,309-75,38,36.2,49.6-2,84.8-28.5,53.1-29.5,49.2,19.8,60.2-50.5,23.8-65.9,80.4-100.6,138-170,61.7,14.7,96.4,3.3,117-11,85.5-139.1,141.1-25.2,197.3-141.7,1.3.2,33.2,4.5,34.6,4.7,1.4.2,34.3,4.6,35.8,4.8-21.5,23.6-60.7,59.6-119.6,80.5-21.3,7.6-41.2,11.7-58.5,14-50.4,52.3-71.9,83.7-64.4,94,1.8,2.4,5.1,3.7,10,3.8,49.3-94.5,71.8-41.9,146.8-8.2-12.5,28.1-65.1,61.7-17,76.2-.5-25.1,16.3-47.4,40.4-53.9,24.4-6.5,50.3,4.6,62.3,27v469h0ZM1561.9,3255.2c-39.1,23.6-125.7,175.2-69,198-6.7-72.6,30.4-143.2,69-198M870.1,1630.7c55.7,6.6,96.1,29.6,116.8,43.5-134.1-282.8-377.7-81.4-416.1,65.6-1-8.5-1.9-17.1-2.9-25.6-160.2,89.4-245.7,349.5-85,477,.4,0-72.1-174.6-15-74,119,184.7,455.1,258.5,659,202,82.8-14.7-177.3-43.7-188-60-50-16.7-100-33.3-150-50-49.5-22.4-103,8.9-149-21-88.8-63.4,11.4-174.6,96-163,180.2,33.4,360.9,178.1,550,111,18.9-17.1-7-73.3-10.8-81.4-31,5.9-73.1-9.2-86.1,27.1-11.2-49.4-80-123.2-114-136.8-20.1,50.8-74.7,55.1-121,64-53.7,25.2-134.4,15.8-175-16,33.7,7.5,86.6,12.7,122,12,65.3-6.6-148.7-14.1-166-125,93.3,79.9,230.8,170.9,311,59-231.4,85.6-264.5-131.5-337-98,100-168.2,306.8,42,364.5,49.3-83.4-80.6-257.9-208.5-378.5-87.3,134.2-194.7,284.8,28.3,387,42-103.8-116.6-287.2-209.7-413-62,72-184.1,307.4-85.3,401,28-12.5-22-67.2-112.6-181.5-148-79.3-24.6-147.3-10.2-176.5-2.1,22.1-11.8,81.1-39.4,158.1-30.2h0ZM2113.5,2742.2c53.1-70.9,19.9-94.5,8.6-157.1,13-21.9,8.4-42.9-13.1-58.9-33-29.4,3-73.5-60-85-48.4-7.3-95.6,9.7-144-1,3.2,102.5,181.3,25.3,158,71-83.7,22.6-92.7-13.2-123,74.6-113.6,89.7,118.7-31.3,134.1-6.9-31.6,56.7-175.3,18.7-151,118.2,2.6,17.6,3.3,3.8,9-1,94.4-62.1,275.1-33.2,38,11-47.5,19.7-26.5,82.1,15.4,71.6-60.2-28.6,127.7-113.4,108.2-14,1.1.6,6.3.5,19.8-22.5h0ZM1806.9,2803.2c-5.7-22.6-43.1-79.5-35-107-32.6,21.1,9.8,92.7,35,107M1843.9,2908.2c-15-17.6-168.9-56.6-65-58,1.4-3.5-45.5-23.4-47-25-46.1-18.4-94.1,69.4-124,92-101.6,81.3-182.4,19.7-212,197,17.1,8.5,45.6,26.2,57,1,10.9-43.4,2.9,26.5,41,42,23.9,18.2,106.2,42.8,122,17-22.3-18.3-27.7-59.1,6-25,29.4,44.6,84,59.2,124,88-102.3,25.7,115.4,36.7-21-76-105.7-132,32.7-17.8,67,24,12.4,23,34.2,4.6,44-11,24-38.3-100.6-104.5-120-143,61,7.3,98.3,52.2,140,90,98.2-50.8-84.6-134.7-114-180,36.2-25,111.2,62.9,148,79,42.1,19,50.7-46.5,24-68-20.1-20.8-45.3-32.5-70-44M1001.9,3338.2c-41.4,54-197.1,255.5-66,110,26.6-25.1,69-88.1,66-110M1296.9,1860c13.7.6,26.8,1.8,39.1,3.6-15.5-26.3-46.9-48.7-91.1-34.5-121.5,31-100,15.8-131,68,44.5-20.1,108.1-40.5,183-37.1ZM1063.9,3389.2c-60.2,46.2-144.7,104.3-185,164,63.1-44.3,156-90.2,185-164M1202.9,3324.2c-11.6-33.6-68.6-179-46-47-50.2-18.9-85-120.4-74-22,2.1,35.6,92.9,54.1,120,69M1279.1,1807.1c15.6,0,55.8,11.9,68.8,36.1-21.8-109.2-169.4-41.5-235-16-18.8,58.5,147.9-47,166.2-20.1ZM922.9,2711.2c49.5-93.8,23.9-40.1-32-12,17,18,8,38,4,58,102.2-97.8,74.4-47.5,16,28,44.9,23.9,103.8-153.8,112-198-24.2,46-57,93.1-100,124M1198.9,1722.2c-44-2-87,3-128,21l36,68c50.6-34.7,121.1-47.2,183-47-20.2-30.3-55-39.3-91-42M776.9,3642.2c44.5,68.5,139.4,107.6,215,137,58.2,32.8,100,94.8,175,88-43.8-19.9-176.4-93.1-57-76-111.5-48.2-234.1-73-333-149M925.4,1934.2c37.5,5.7,216.4-18.1,77.5-49-1.9,38.7-47.3,48.6-79,41-50.6-8.3-52.8-93.7,1-100-277.9-89.3-94.9,112.6.5,108ZM649.9,3689.2c-95.6,95.4-216.6,205.1-252,339,96.8-93.7,185.2-228.9,252-339M1326.9,2677.2c146.7-44.8,85.3-10.3,6,51,86.2-.5,191.1-64.7,72,46-71.1,133.1,71.3-92.3,123-76-40.6-93.2-146.5-99.7-201-21M1285.9,2575.2c118.1-53-27.6,46.3-30,107,51.6-56,113-125.2,196-123,10.5-19.2-81.9-45.1-112-32,8.4-23,39.5-38.2,27-63-16-30.8-59.1-102.8-97-65,45.1,8.7,14.6,56.6,6,83-5,24.2,42.1-35.3,64-35-13.8,42-40.9,91.8-54,128M1180.9,1701.2c129.6,13.8-75.5-212.7-198.9-91,78.9,122.9,50.2,114.7,198.9,91ZM1186.9,2973.2c92.5-122.2-126.9-15.4-118,167,6.8,23.6,86.7,38.9,108,53-12.4-22.5,146.6-350,10-220M1348.9,3007.2c-26.9,30.6-98.1,264.2-35,129,17.6,3.2-18.9,135.6-4,168-55.7-121.9,9.6,101.5-74-83-55.1,72.4,47.9,118.2,104,140-31.2-146.4-3.2-313.7,105-423-44.5.9-95.7,12.3-140,7-41.4,22-110,172.3-20,71,24.6-12.8-22.2,60.6-15,69,16.9-22.8,53.6-64.2,79-78M832.9,2544.2c37.8,110.9,159.4,43,188-42,35.8-54-81.9,26-81,0,34.4-25.3,104.8-46,110-96,2.3-7.6,3.9-40.5-10-27-88.3,60.5-208,18-297-22-240.9-131,131.1,169.4,219,188-39.8,8.9-92.8,25.9-129-1M1141.9,2389.2c134.6-88.5,170.4-110.4,79-8-31.7,45.2-119.6,171.7-73.2,169-116.4,312.3-169.3,413.4,37.3,90.8,29.1-46.4,52.6-85.4,68.9-112.8-9.2-26.8-77.7-38.7-95,1,22.6-110,121.7-187.9,216-239-27.4-18.2-95.9-113.5-99-23-21.4,81.4-127.7,28.4-134,122M77.9,3726.2c30.1-37.3,150.9-191.2,111-81,36.3-44.1,76-98.5,124-133,18.1-11.5,36.9-31.8,57-36-16.6,15.7-66,123.2-48,123,60-38.9,331.8-534.2,136-305-41.3,50.7,32.9-92.2,32-115,12.4-54.7-15.3,8.4-23,20-76.1,211-301.4,333.1-389,527M418.9,2188.2c5.4,41.7,50,81.8,79,113-15.9,22-263.4-122.4-173-137-13.9-29.1-98.6-35.3-68-47,27.1-21.4,124.7-60.2,97-106-67,3.1-154.9,98.9-182,142,180.5,10.7,58.6,114.1,352,209,62.7,32.6,88.6,94.9,92,163,81.1-4.5,156.4,47.5,196,116,18.3,37.3,22.9,51.1-16,16-20.1-8.1,45,71.1,43,46-14.9-166.8-193.4-280.1-303-387,260.2,149.4-53.9-56.1-117-128M2366.9,2557.2c-288.1,259.3-254.5,119.3,49.9,212,182.3-51.4,183.6-351.1-50-212M1078.9,3529.2c-15.1,12.9-108.2,72.8-80,84,32.6-11.8,239.8,47.3,126,35-83.1-14-14.1,29,22,37,7.1,2.9,60.1,8.8,31,20-116.2,29.6,85.4,39.6,103,94-19.8,11.3-58.1-3.4-70,21,36.7,14.5,77.5,27.8,115,10,39.5,5.2-80.3,103.1,2,61,45.5-11.6,126-140.4,76-15,32-31.2,58.1-121.5,48-28,71.5-77.6-40.9-282.3-152-223,16-23,38-35,63-43-232.8,32.2,78.7-41-151-53h-48c-11.3-.8-1.1-2.9,2-6,128.4-40.4,51.4-41-25-14-24.6,4.7,8.4-28.4,17-35-163.8,45.1-72.8-1-16-50-72.5,34.6-286.5,182.9-63,105M549.9,3397.2l40-32c1.3,3.3-44.1,74.1-47,79-20.1,62.9-543.1,525.5-322,395-21,58.9-48.3,126.6-34,194,4.5,18.7,4.8,41.3,17,56,88.2-297,443.9-437.1,499-749,7.2-71.4-3.3-24.3-22,8-17.5-82.5-5.3-18.1-50,1,10.2-34.1,3.7-69.6,10-104-21.7,33.1-63.5,119.9-91,152M934.9,2933.2c-9.5,11.3-21.4,27.7-31,49.7-51.4,103.6,110.5-52,113.3-27.5,10.4-.6-38.2,42.7-98.2,105.8,55.5-13.8,153.9-93.2,104,8,46.3-39.5,61.9-102.6,99-149l-28-12c-31.9-18.6-65.2-1.4-98-1-25.6,3.3-36-25.5-56-27-50.2,2.2-142.4,73.2-155.8,108.6-5.3-34.3,75.9-124.9,110.8-123.7-62.9-22.6-235,31.1-269.4,77,65.6-203,320.9-81.1,152.2-176.2-132.1-57.3-131.1-34.3,2.5-42.3-35.9-57.7-87-113.8-132.3-126.6-4,3.9,7.8,22.7,20.1,40.1-127.5-75.2-53.8-235.7-343-167,20.1-65.1,154.8-56.9,214-39-32.3-29.5-69.5-43.1-112-50-73.7-25.9-147.8-72.2-208,6-5.7-23.3.2-47.3,3-70-22.9,15.9-45.7,95.7-11,98,218-82.2,13.6-36.4,28,174,15.1-36.1,31.3-77.1,67-95-12.5,26.2-52.6,118.5-14,206.4,76.4,139.6,217.7,148.4,313.7,161.9-39.9,20.6-165.1,24-219.6-6.3,93.7,101.8,278.7,387.7,417,365,68.8-7.2,150.8,14.2,217,30,49.9,30.8,52.4-42-2-26-30.8,2.5-32.8-7.8-6-20-104.8-10.6-133.1,24.5-18-46-74.6,14.7-150.5,46.2-230,35,56.3-14.1,103.5-42.6,157-77-78.9,17.3-227,81.3-247-42,42,37.7,104.4,23.5,154,15-24-13-51-13-78-20,18-5,35-5,50-16-93.4-1.6,106.4-99.5,134.7-120.9h0ZM2191.8,546.5c-272.6,55-545.3,110-817.9,165,25.1,237.8,50.2,475.7,75.2,713.5,292.9-43.7,585.7-87.4,878.6-131.1-45.3-249.2-90.6-498.3-135.9-747.5h0ZM931.9,3913.2c-33.6,44.2-106.7,114.4-147,154,9.3-35.8,28.7-78,23-121-138.5,178.8-18-40.9-15-119-1.2-12.4-6.6-.6-10,3-45.8,97.6-157.8,219.7-265,219,58.9-74.3,116.5-177.6-9-64-45,33.4-100.3,84.5-108,138-18.1,18.6-89.4,61.3-76,82,25.7,12.4,16.6-15.5,38-11,32.3,13.8,35.9-16.2,55-34,120.9-.7,66.7,61.8,151-70,44.6-17.3,77.5,36.7,139-15,38,50,22.2-23.1,83,59,163,27.9,158.9-184.2,240-276-84.5-75.7-50.8,3.8-99,55M2432.9,4032.2c25.4-20,80,61.6,101,8,21.2-25.3,77.9-80.4,97-106-87.2-71.6-59.2,8.2-144,3-20.3,11.9-5.9,41-21,53-22.8,15.4-47.8-22.1-67-31,64.5-84.7,24.1-60.1,102-54,1.1-7.4,30.4-33,15-39-134.3-102.7-54.4,55.9-164-1-12.2-4.3-29.7,14-17,24-9.8,15-17.3,17.2-26,0,52.6-112,56.4,23.3,109-77-60.3-38.7-30.6-2.3-63,4-12.6-3.2-26.7-16-36,0-5,13.9-62.5,65.3-49,82,10.1,40.4-60.4,40.2-5,83-10.2,8.3-29.9,53-48,42-43.3-18.4-44.5-19.6-68,23,21.2,15,53.9,41.9,74,11,17.8,11.2,21.6,19.9,6,35,58.8,42.6,105.1-139.9,157-102,5.7.8-153,157.7-91,128,18.3-10.2,103.6-137,121-108-11.3,22.9-126.1,121.9-98,131,16.9,17.1,33.1-14,47-22,36.3,31.7-60,27.8,35,66,128.9-104-91-50.9,33-153M1370.9,1882.2c6.6,168-147.1,133.8,155,111,87.3-7.3,182.9-16.6,270-26-41-27.5-49.1-108.2-91-46-72.9,93.6-13.8-30.1,25-43-9-13.1-7.3-62.9-33-55-13.8,4.6-58.1-.2-65,16-11.4,5.2-59.2,123.6-79,97-.8-6.2,34.8-49.5,11-43-36.4,2.4-88.9,10.2-125,11-2.5-33.2,49-7.5,63-24,2.8-3.8,19-25.5,19-30l-97,8c4-16,9-21,24-21,111.1,4.8,95.4-30.4,148-109-67.2-27.4-213.9,65.8-225,154M1755.9,1621.2c-161.2,313.7,314.4,580.9,469,243,135.4-301-303-537.3-469-243M2280.9,1695.4c-6.4,100.2,253-68.3,128,78.8h36.6c52.4-56.2,104.9-112.4,157.3-168.6-74,29.4-384.3-8.6-321.9,89.8h0ZM2458.9,2850.2c-29.2-27.1-72.2,21.7-106,29,55.2,72.9,110.3,145.6,166,218,6.8-48.8,18.6-179.6-60-247ZM1999.9,4227.2c-125.9-69.1-78.6-5.4-144-31l60-37c-3.3-4.4-15.6-9.1-7-15,12-3.7,59.2-53.6,73-37,21.8,9,24.8-32.4,51-19,59.3-110.6-249,105.2-291,125,34.5,14.8,55.4,45.5,85,3,48.7,30.4,42.3,55.4,95,10,23.4-20.2,106,64.4,114,16l-36-15M1661.9,1807.2c72.8-3.1,37.1-7.8,47-90-79.2-46.5-137.6,101.3-175,156,33.3-.3,68.9-1.8,78-40,10-27.7,26.2-22.1,50-26M1818.9,3736.2c-125.5-173.2-299.9-263.7-180-510-219.6,232.6,165.6,402.6,197,619,37.1-13.4-6.5-81.1-17-109M1628.9,3410.2c29.3,50.3,58.6,100.6,87.9,150.9l12.2-90.9c-30-49.3-60.1-98.7-90.1-148-.5-.4-.9-.5-1.4-.5-5.2.4-8.1,29.9-8.6,88.5ZM179.9,3243.2c69.5-45.2,199.9-151.6,199-214-51.5,63.4-134,99.7-195,151-24.4,23.1-65.4,125.2-4,63M1870.9,2576.2c96.9,37.7,25.1-149.3-33-125-35.2,23.3-59,62.3-29,100,35,49.6,2.3-17.5,6-40,25.6,17,29.9,47.6,56,65M1151.9,1967.2c94.8,17.1,169.4,9.3,184.4-24.8,5.4-12.2,4.6-31.2-4.4-44.2-18.8-27.2-70.2-24.1-70.8-21.2-.2,1.1,7.1,1.6,15.8,7.2,18.8,12.1,32.4,41,25.1,61-12.1,32.9-81.3,42.1-100.9,13.5-10.3-15.1-6.1-39.7,6.8-61.5-78.9,9.4-118.7,21.1-119.5,35.1-.6,10.4,20.6,22.1,63.5,35h0ZM2572.9,1072.2c-10.6-38.1,11.5-103.5-29-126-87.8-64.5-71.9-117.2,18-28-8.5-27.9,13.7-101.2-24-106-5.4-1.8,10.3,80.2,9,81-41.7-29.5-104.3-101.7-142-99,7,29.5-9,76.3,30,85-.4-53.7-21.1-72.8,39-30,4.1,3,4.6,47.9,5,53,2.1,34,73.7,49.2,74,85,9.2,34.2-10.6,126.4,24,143l-4-58M2140.9,2856.2c160.1,76.9,360.3-56.3,433-199-28.5,24.5-66.4,88.7-111,117-231.2,209.9-497.1-75.5-322,82M2394.9,675.2c62.3,96.1-2.4-105.6,30-71,32.7,33.7,118.6,64.9,108,121,28,47,14-29.2,14-44-42.7-48-110.8-100.2-162-141,3.5,41.6,5.8,93.3,10,135M1753.9,3403.2c-38.4-37.2-72.3-83.6-75-139-74.6,50.3,135.2,212.6,178,287,163.3,186.7-44.8-96-103-148M1565.9,2769.2c159.6-155.5-124.1,16.4-115,114,146.3-188.6,5.5,92.2,115-114M2000.9,2866.2c.5,108.3,62.4,287.4,147,327-155.4-131.6-123.4-514-147-327M2283.9,3085.2c-37.5-13.3-39.3-21.2-63,16,8,9.7,58.2,28.6,50,44-17.7,8.6,54.2,40.2,55,45l13-20-49-29c25.2-41.5,23.5-18.4,57-2,54.7-11.1-41.1-45.4-63-54M308.9,2920.2c1.5-4.1,10.3-21.7,0-13-77.3,93.7-33.6-29.8-50-77-22.5-36.4-19.9,202.8-30,234,50.8-31.3,17.8-86.9,80-144M1802.9,2616.2c8.7,34.6,24.1,78.5,39,111-22.2-12.5-16.8,5.3-6.4,31.5,105.3-79.5-30.8-198.5-32.6-142.5ZM1584.9,2800.2c-10,23-20,45-22,70,31.6-32.2,44.4-84.6,84-111-7.1,30.5-37.5,64.2-14,94,16.1-54.4,26.2-115.3,77-150-56.5,2.6-98.3,49.5-125,97M1995.9,2277.2c-4.5,18-2.7,118.6-3,139,93.2,26.9,44-315.2,3-139M1288.9,2906.2c-3.2-45.9-41.7-64.4-74-88-17,19-32,39-46,62,28.6,6.6,91,25.5,120,26M2103.9,2160.2c9.1,4.4,21.6,11.2,9-5-142.4-101-190.8,219.1-150,252-9.1-88.2,12.1-287,141-247M2424.9,2486.2c-52.9,15.1-188.6,97.4-178,116,82-60.7,191.4-131.1,296-89,.8-23.1-80.6-47.9-118-27M326.9,4000.2c-210.5,174,68.5,13.2,77-79,6.7-26.8-74.1,61.3-88,66,20.6-.9,51.5-13.2,11,13M2195.9,2779.2c26.7,12.7,65.7,25.6,93,47,178.1-22.3-27.4-61.5-93-47M2388.9,1775.2c6.7-14,13.3-28,20-42-39.1,14.7-131.5-13.2-122.4,44.3M1122.9,3946.2c13.1,39.3,72.6,68.8,104,47-60.1-15-82.6-88.7-138-101l34,54M1982.3,3094.7c-13.3,51.1-22.5,117-12.6,191.7,1.9,14.3,4.4,27.9,7.2,40.9l20-19c-26.5-74.6-17.4-155.8,5-230,3.5-19.6,4.2-29.7,2.2-30.2-2.6-.7-9.9,14.8-21.8,46.7h0ZM2186.9,3058.2c68.4,33.2-128.2-134.6-128-173,25.2,69.2,63,133.2,128,173M2248.9,1582.2c-1.6,21.1,14.2,25.3,32,19l-11-110-25,3c0,22.3,1.9,66,4,88M1932.9,2367.2c-4.4-52.4,8-107.5,24-157-78.1,52.8-25.2,217.2-24,157M1172.9,1997.2c10.3,62.6,127.9,32.6,144-10-45.1,24.4-96,25-144,10M2469.9,1169.2c-8.1,15.5-44.6,48.2-30,68,19-20,65.7-84.8,84-107,14.4-12.7-6-19.4-17-15-10.7,0-30.9,47.2-37,54M1897.9,2353.2c1.9-64.1-1.5-151.2,67-184-64-24.7-93.2,131.2-67,184M2418.9,885.2c-17.3-10.8-2.2,34.8-4,42,9.7,158.5,57.5.3,4-42M853.9,3451.2c18-27,32-55,40-87-47.7,25.1-110.8,188.1-40,87M2327.9,1459.2c23.5,2.2,106.6-71.4,67-62-18.2,6.1-113.1,45.8-67,62M2537.9,1283.2c-5.7,8.3-11.6,69.4,4,60,9.5-19.3,32.2-23.3,45-36,7.6-30.8-27.5-28.7-49-24M2623.9,1395.2c-34.6.8-52,35.4-28,60,22.2-25.2,63.5-12.9,40-53-2-5-5-8-12-7M2046.9,3372.2c26.3,44.3,21.6,18,51-5-23.7-23.4-26-49.4-55-13-7.9,5.5-1.7,12.9,4,18M2649.9,1503.2c25.9,9.3,4.9-30.8,4-43-50.7-10.9-73,71.5-4,43M2553.9,1389.2l9,13c16-17,32-30,57-32-19.6-50.1-74.3-20.3-66,19M2018.9,3344.2c4.8-10,10.3-17-3-23l-30,36,56,70c30.3-22.5-48.7-52.2-23-83M2514.9,1212.2c-.3-4.8,63.7-59.9,46-64-3.7-18.2-100.8,114.8-104,113,14.4,23.5,46.7-42.9,58-49M2460.9,1509.2c-39.9-36.7-47.3,9.9-37,40,48.7,5.2,35.5,2,37-40M2217.9,3291.2c-31.6-23-2.9-21.5-15-40-20.3-18.9-57.2-32.5-20,6l-11,16,59,49c17.8-16.9-2.9-18.8-13-31M2024.9,3688.2l-43-43c-25.3,31.4,22.3,53.7,38,75,3.6,5.4,16.1-20.3,18-21l-13-11M2608.9,837.2c23.8,21.6,10.4-19.3,12-31-4.8-13.6,9.6-71.1-19-63-5.1,10-2.6,86.4,7,94M1892.9,2741.2c-5.1-17.3-50,103.6-62,115,6.4,43.1,67.7-94.6,62-115M2398.9,713.2c2.4,40-7.3,51.4,34,72-8.7-30,6.5-69.8-31-79-6.8-3.5-2.5,3.8-3,7M1439.9,3261.2c40.8-92.6-42.6,51.5-66,66-7.3,56,56.5-48.5,66-66M2108.9,3422.2c-55.2-45.5,28.4,65.4,34,72,29-28.9-18.5-51.9-34-72M2525.9,3229.2c17,85,.8,172.3-25,254,40.3-71.8,53.4-190.4,22-270l3,16M2651.9,1130.2c-22.5-47.5-38.5,23.8-21,40,19.1,29.7,23.2-22.5,21-40M2372.9,1525.2c-27-2.9-43.1,7.5-38,36,17.7-2.6,78.4-15.4,38-36M2452.9,1122.2c-.6-3.3-1.3-20.7-4-23-40.3-40.8-13.9,44.2-15,70,5.8-12.6,21.8-31.8,19-47M2332.9,1497.2c-7.8,20.2,42-4.4,47-2,9.6-2.4.9-21.5,1-27l-51,14,3,15M2446.9,1039.2c3.5-16.2-22.3-38-26-25-6.8,40.5,37.2,103.9,26,25M2578.9,1208.2c-2.1,11.3,24.5,11.1,30,24,39.8-33-.8-65.3-30-24M2452.9,3044.2c-4.3-3-51.5-77-58-72,37.4,43.4,75.7,116.1,103,167,7.2-29.3-30.6-65.7-45-95M1198.9,2710.2c-21.2,49.9-28.8,123.9-81,154,58.5-7.2,71.3-104.6,81-154M1697.9,1521.2l-16,6,6,46c36,.5,18.7-28.7,10-52M2588.9,3792.2l-13.7-6.4c-7.3,18.9-52.1,48.3-20.3,57.4M1939.9,3637.2c-16.4,17.3,4.5,17.5,15,28,5.2-16.3,11-24.8,22-37-18.9-12.6-25.2-9.7-37,9M2469.9,757.2c24.5,16.5,23.7-19.7,17-34-19.8-20.7-30.7,19.8-17,34M2535.9,3766.2c-7.9,17.9-52.8,45.5-21,54,6.6-17.3,49.2-45.4,21-54ZM1844.9,3901.2c10.4-30.2,4.5-39.2-27-24,4.2,25-1.7,28.6,27,24M2458.9,3916.2c-16.2-3.4-22.1,30.2-30,40,21.5,16.5,15.8-.3,26-15,6.6-12.2,27.3-16.7,4-25M2234.9,2828.2c-24-13-50-19-77-20,3.2,12.1,92,35.4,77,20M2633.9,1551.2c7.8-1.3,26-3.9,34-5,5.8-38.3-76.9-3.1-34,5M2125.9,3221.2c-33.8-36.2-31.5,9,0,27,13.7-14.3,8.4-15.6,0-27M1700.9,1626.2l-11,3,3,33c29.7,8,16.2-24.6,20-39l-12,3M963.9,1915.2c14.9,3.9,26.3-15.5,14-26-16.9-9.6-35.7,14.9-14,26M1660.9,1548.2c-2.2-5.2-.6-14.1-9-9-19,0-3.2,30.3-4,40,30.9-1.2,15.8-10,13-31M2388.9,1585.2c-.4-13.1-62.5-7.3-52,10,13.2-2,44.9,6.4,52-10M1662.9,1634.2c-18.1-1.7-5.4,25.1-7,35l20-3-2-33-11,1M2583.9,1243.2c-13-7-34.7-8.6-34,12,15.4-2.7,66.3,17.5,34-12M1254.9,1962.2c9,12.3,26.5,1.8,24-11-3.1-18.1-31.5-10.9-24,11M1754.9,2796.2c-15-13-25-29-35-47-10.8,31.4,69.2,86.1,35,47M2098.9,4145.2c13.2,11.3,28.3,17.6,37-2-14.7-9.5-26.1-17.8-37,2M1881.9,2869.2c5-14,29.9-47.3,26-63-3.6,18.5-74.7,115.2-26,63M1495.9,3489.2c5.8-24-11-22.8-27-10,7,22.7,7.6,17.7,27,10M2050.9,4180.2c-24.4,13.5,19.8,31.1,28,9-5-1.6-23.1-16.5-28-9M2017.9,4173.2c18.6-14.5,4.1-13.3-8-22-5,6-14,8-18,16,7.5,2.8,17.6,13.8,26,6M1693.9,1589.2c-12-1-5,13-4,19l23-4c1.1-21.2-.2-18.4-19-15M1653.9,1595.2c-9.5-.6-2.3,14.5-2,19,28.4,3.4,24.2-27.7,2-19M2082.9,4113.2c-10-9.3-22.2-1.9-28,9,10.3,9.8,23.8,5.2,28-9M2385.9,3185.2c7.3,7.8,13.1-2.6,6-7l-19-13c-10.2,8.3,8.1,15.7,13,20M1926.9,2850.2c23.5-54.3-23.7,36.1-25,40,12-11,18-25,25-40M387.9,3016.2v2-2Z"/><path d="M2.2,1636.2c125.5,17.6,92.7,33.5,95.8,140.8-116.7-23.1-95.3-32.5-95.8-140.8ZM2.2,1424.3c118.1,26,99.9,28.4,98.7,140C-15.1,1536.6.3,1536,2.2,1424.3Z" fill="#054d76"/><path d="M2.9,1833.4c31.3,16.6,109,11.1,96.7,55.4-32.2-9.2-64.5-18.5-96.7-27.7v-27.7h0ZM2.9,1778.2c32.2,9.8,64.4,19.6,96.7,29.4v29.4c-32.2-10.4-64.4-20.9-96.7-31.3,0,0,0-28,0-27.5Z" fill="#054d76"/><path d="M3.1,1209.6c26.5,20.6,99.4,26.6,94.3,64.3-27.3-20.5-101-24.8-94.3-64.3ZM97.3,1207.2v22.6c-28.6-21.3-98.5-20.9-94.3-62.4,31.4,13.3,62.8,26.5,94.3,39.8Z" fill="#054c74"/><path d="M2704.9,3798.2c-18.9-3.9-152.7-68.3-76-42,5.4,5.5,86.1,26.6,76,42Z" fill="#000104"/><path d="M2354.4,900.9c16.5,143.9,23.4,277.4,24.3,398-108.5,51.5-255.1,108.1-434.4,143.2-217.2,42.5-404.5,38.3-538.2,24.7-24.6-81-47.1-172.1-63.7-272.3-34-204.3-33.7-385.8-21.8-531.5,107.8-40.2,232-78.8,371.3-109.2,225-49.2,427-63.5,592.2-63.1,28,122.1,53.1,259.4,70.4,410.2h0ZM2172.4,578.1c-118.4,13.6-243.4,31.6-374,55.2-151,27.3-292.4,59-423.6,92.9l71.9,685.6c125-4.9,250-9.7,375-14.6,160.6-43.7,321.2-87.3,481.8-131-43.7-229.4-87.4-458.8-131.1-688.1h0Z" fill="#044e78"/><path d="M800.9,2072.2c147.9,44.2,300.8,137.4,460,96,10.3,1,61-26,55,2-161.9,149.1-411.6-73.7-595-73-18-6-64.6,42.2-30,33,97.4-53.7,384,154.6,562,107-30.8,153.6-453.5-105-560-69-126.7,9.5-39.8-168.4,108-96Z" fill="#d22724"/><path d="M2332.2,2157c5.3,4.7-35.1,61.4-121.3,170.2-3.4,9.1,124.4-19.1,123-12-42.6,46.9-172.4,113.5-42,91-33,31.7-66,63.3-99,95,12.3-22.3,24.7-44.7,37-67-117.6,18.3-85.7,8.2-25-68.3h-90.3c138.7-144.9,211.5-214.6,217.6-208.9Z" fill="#ebd297"/><path d="M268.9,1817.2l40,16.2v149.8c-149.5-42.1-18.5,38.3-122.1,87.1v-157.2c122.3,39.5,72.2-9.3,82.1-95.9h0Z" fill="#054d76"/><path d="M2505.5,1916.1c4.8,14.5,9.7,36.6,5.9,62.6-10.4,70.6-75.7,106-84.5,110.6-57.3,13-135.4-14.6-169,44-16.8,13.3-42.5,78.8-63,48,99.7-148.6,130.4-48.1,215-167,18-22.8,31.2-38,63-35l18-3c-.8-19.6-1.5-39.3-2.3-58.9,5.6-.4,11.3-.8,16.9-1.2h0ZM2476.9,1993.2c-40.5-8.8-76.6,57.3-102,80,7.2-1.4,46.9,1.4,50-8,4.7-10.2,81.1-79.2,52-72h0Z" fill="#02274e"/><path d="M2426.9,2311.2c10.2,50.7-18.4,41-44,79-5.5,22.2,11.5,84.4-12.5,88.6-43.3-95.2.2-79.4,36.5-155.6-4.1-113.9-18.5-107.6,68-191,20.6-14.6,32.2-20.6,34.8-17.8,4.8,5-20.5,39.2-76,102.5-7.9,41.1-8.2,72.7-6.8,94.4h0Z" fill="#02274e"/><path d="M99.3,2184.9c-6.9,33,22.9,95.4-36.3,53.3v-177c59.4,4.8,34.5,59.2,37.5,102.7-8.3,14.9-29.9,34.5-1.2,21Z" fill="#054d76"/><path d="M1824.9,2020.2c-2.9,9.4,13.4,74.4-3,74-13,6-8-53.7-11-58,0-16.3-9.4-27.3,14-16h0Z" fill="#02274e"/><path d="M776.9,3643.2l-1-1,1,1Z" fill="#101637"/><path d="M1202.9,3323.2l1,1-1-1Z" fill="#101637"/><path d="M1848.6,3984.3c36.5,37.9,43.5,38.7-14.6,27.8,4,21.4,7.9,42.7,11.9,64.1-37.6-51.5-36.9-57.1-70,1l14-66-32,8c25.2-26.7,51.4-51.2,74-84-5.2,28.1-21.9,42.5,16.7,49.1h0ZM2110.9,3927.2c-59.3-54.9-51.7,33.4-68,37,29.3-114.9-26.2-80.3,11-164-32.2-62.4-15-39.5,22.1-1.4-37.6,59.7,4.2,78.9,34.9,128.4ZM2103.5,3650.7c-3.3-23.2,6.4-78.3-14.6-32.5l-26-87c9.1,17.2,18.2,34.4,27.2,51.6,33.7-69.1,22,28.5,31,62.4,20.6,32.5,41.2,65,61.8,97.5l-79.4-92ZM2178.8,3861.1c-25.8-48.6-67.1-88.7-120.7-103.6,86.9,14.2,92.2,20.9,120.7,103.6Z" fill="#e7cf94"/><path d="M154.9,1830.2c1-60.3-11.7-60.6,47-32,.5,58,5.1,56.2-47,32Z" fill="#054d76"/><path d="M64.9,2433.2l-.8-115.2c63.1,17.2,31.4,87.2,38.2,137.5-12.5-7.4-24.9-14.9-37.4-22.3Z" fill="#054d76"/><path d="M42.9,2952.1c57.7-20.1,23,130.5,31.9,151.7-61.3-7.9-20-104.3-31.9-151.7Z" fill="#054d76"/><path d="M1613.9,4194.2c15.3,4.4-13.9,25.6-20,17,.3-10.4,4.3-24.3,20-17ZM2637.9,3738.2c-31.4-10.8-14.3-12.9-3-33,2.7,3.5,25.2,13.2,21,20-4.6,4.6-9,18.1-18,13ZM2680.9,3725.2c-20.4-11.5,5.8-34.2,18-10-5.5,6.9-6.9,19.4-18,10ZM2574.9,3733.2c56.3,32-62.7-14.7-32-16l32,16Z" fill="#000104"/><path d="M77.9,2855.2c-27.8-7.7-34.6-8.2-31-39,27.7,7.8,34.3,8.9,31,39Z" fill="#054d76"/><path d="M70.9,2716.5c30.6,2.1,14.9,38.1,19.2,60.1-28.7-3.5-14.3-38.8-19.2-60.1Z" fill="#054c74"/><path d="M2251.9,4290.2c-9.5,12.2-17,.5-26-5l16-19c8.1,8.7,24.4,12.2,10,24ZM2280.9,4251.2c18.1,9.4,4.9,12.7-3,23l-14-11c2.6-1.7,13.1-14.4,17-12Z" fill="#000104"/><path d="M15.5,2634c31.9,4.2,27.5,21.3,27.5,47.2-33.9-1-25.7-22.4-27.5-47.2Z" fill="#054d76"/><path d="M763.9,4271.2c-5.4-2.8-3-4.4,0-8,16.2-19.3,19.7,16.8,0,8Z" fill="#000104"/><path d="M598.9,2091.2c-20.1,32.4-19.8,93.5,23,106-33.9,41.7-91.2-73-23-106ZM520.9,2137.2c46.5,96.4-84.1-86.5-31-118-1.2,35.8,17.2,84.9,31,118ZM468.9,1872.2c-.5-23.9,23.6-47,43-58-5.7,18.6-29.4,44.8-43,58ZM498.9,1866.2c7.7,11.1-19.4,46.3-31,61-22.6,21.5,20.5-49.3,31-61ZM475.9,1952.2c-4,8.1-24.6,57.2-26,36-1.4-12.5,42.5-77.8,26-36ZM708.9,1884.2c-13-45.1,17.5,18.6,27,33-5.8-3.7-20.2-14-27-33Z" fill="#010703"/><path d="M2320.5,1262.6c-7.6,11.8-20.6,16.1-25.7,17.7-331.1,103.8-371.4,111.2-371.4,111.2,0,0-161.3,29.5-446,39.7-4.7.2-16.6.4-28.3-6.2-15-8.4-21.5-23.3-23.7-28.4-27.7-63.9-48.9-308.3-48.9-308.3-1.6-18.5-25.3-286.1-15.1-341.7.8-4.2,2.8-14.9,10.1-26,12.8-19.5,33-27.3,40.9-30.2,86.8-32,326.1-66.8,326.1-66.8,59.4-8.6,376.4-60.3,423.9-62.9,6.4-.4,18.5-.4,29,6.9,9.2,6.4,13.4,15.8,15.5,21.7,40.5,113.3,58.5,264.3,58.5,264.3,10.3,86.5,48.9,296.6,60.2,376.9.8,5.8,2.6,19.9-5.2,32.1h.1ZM1410.3,745.2c-5.4,65.7-7.4,138.4-3.6,216.9,8.3,172.5,42.2,319.7,78.9,434.4,112.3,4.7,262-.4,432.9-38.6,145.4-32.5,265.5-79.9,357-123.8-12.5-109.2-30.5-226.6-55.8-350.6-19.7-96.7-42-187.7-65.5-272.7-115.4,3.9-249.2,16-396.2,43.7-131.1,24.7-247.5,57.1-347.6,90.7h0Z" fill="#010102"/><path d="M404.9,2483.2c139.8-35.2,245.2,126.6,155,240-166.4,192.7-388.9-161.7-155-240M348.9,2688.2c72.9,130.1,250.6,36.3,215-99-49.9-182.1-321-60.2-215,99h0Z" fill="#030201"/><path d="M532.9,2923.2c54.9-12.9,62.4,45.3,111,70-43.3-5.1-28.6,27.2-10,51-27.8-20.7-194.5-79.3-82-67,12.8-15.3-86.4-37.8-88-70,17,5,51.5,13,69,16Z" fill="#000001"/><path d="M576.9,2785.2c-18.1-18,109.7-15.2,121-14,150.4,14.1-83.3,39.7-121,14ZM768.9,2931.2c-35,34-64,71-89,114-22.7-96.3,156.7-178.6,89-114Z" fill="#010102"/><path d="M316.9,2440.2c-56-.4,54.7-56.3,73-51-26.3,14.3-49.4,33.2-73,51ZM573.9,2813.2c-14.4-5.7-30.2-14.3-32-30,17.6,13.2,102,39.2,32,30Z" fill="#000104"/><path d="M1558.9,3027.2c-49.2,6.4,184.7-124.7,158-42-25.6-35.4-112.1,40.4-158,42Z" fill="#030201"/><path d="M1605.9,2956.2c15.7-13.1,61.2-51.8,78-62-3.3,34.8-116.5,97.5-78,62ZM1674.9,3038.2c-17.1-9.1-31.6,11.5-47-2,12.2-11.5,27.7-16,44-11l35,15c-11.7,22.3-17.9,8.3-32-2ZM1578.9,3081.2c94.7-26-16.9,39.1-47,12,14.3-3.2,33.5-5.9,47-12ZM1724.9,2917.2c-6.4,4.3-45,10.2-33,1,6.2-5.5,63.3-23.6,33-1ZM1513.9,3114.2c6.8-5.5,22.2,11.5,24,16-17.1-2.2-57.9,5.1-24-16Z" fill="#010703"/><path d="M1644.9,2501.2c6.8,15.7,5.4,44.2,5,63-30.3,5.6-86.1,9.5-39-30,17.1-18.4-35.9-12-45-15-16.9-12.1-2.9-124.5-9-151-.4-11.3-34.5.1-41-1-12,.3-9.8,48.2-13,55l-76,17c-24.4-42.7,45.5-16.3,54-36,1.3-7.2,4.8-43.7,7-50,203.3-54-13,170.2,157,148Z" fill="#02274e"/><path d="M1615.7,2432.9c169.7,46.5,1.3-80-35.8-153.3,34,37.9,242.5,197.6,144,149.6,61.3,139-37,32.2-108.2,3.7Z" fill="#e7cf94"/><path d="M1706.9,2260.2c117.8,110.6,56.3,9.8,47-81,13.5,56.1,144.6,246.6,36,170,12.2,146.2-49.6-45.4-83-89Z" fill="#ead196"/><path d="M1594.9,2147.2c41.4-29.9,20.2-87.2,3.2-126.9,34.9,1.1,38.7,68.9,59.8,95.9,20.9,22.5,74.7,47.2,33,79,8.2-41.9-3.6-37.7-33-60-13.2-8.4-18.2-16.6-31-3-12.1,10.5-20.2,9.8-4,23,45.3,24.2,33.3,85,34,126-37.2,25,16.6-87-62-134Z" fill="#02274e"/><path d="M1575.9,2219.2c-45.9-34.5-57.9-42.7-53-103-40,21.7-121.2-70.2-88-73,14.7,13.2,44.5,44.2,58,59,93.2-6.7.4,47.5,82,98,9.1,6.8,26.8,15.8,24,30,3.8,11.1,8.4,65.8-12,35-2.8-10.6-.5-39.3-11-46ZM2312.9,2032.2c-13.2,19.5-167.5,7.9-152,41,2.9,8.8-9.1,8.3-15,7-20.6-69.5,48.4-41.2,92-51,84.5-2.1,53.7-12.1,59-80,30.7-.5,9.5,59.7,16,83h0ZM1713.9,2085.2c11.9,7.1,41.6,25,53,32,15.3,12,29.5-9.5,40,9,10.8,12-16.8,11.3-24,14-30.6-14.8-101-40.8-111-77-21.3-102.5,22.4-17.9,42,22Z" fill="#02274e"/><path d="M2319.9,4002.2c-15.3,20.9-27.8,5.1-32-13,6-6,11-13,19-17,1.4,5.2,20.1,24.2,13,30ZM2566.9,3963.2l-20-11c13.7-20.8,16.1-23.3,36-6,10.6,5.5-6.8,27.6-16,17ZM2519.9,4005.2c-17.6-5,10-35.9,16-28,6.6,7.6,16.9,10,6,18-5.7,3.9-14,20.6-22,10ZM2268.9,4049.2c-11.5,19-9.5,19.2-27,5,9.3-12,15.7-23.9,27-5Z" fill="#000104"/><path d="M1531.9,2044.2l-5-9c22.5-21,37.2,43.5,52,58-20.5,6.6-34-38.2-47-49h0Z" fill="#02274e"/><path d="M489.9,1517.2v-86c47.6,16.4,27.4,65.9,31.7,106-10.6-6.7-21.1-13.3-31.7-20h0Z" fill="#054c74"/><path d="M518.4,1638.9c-42.6-.9-24.3-43.8-28.5-74.1,35.9,6.9,27.3,47.9,28.5,74.1Z" fill="#054d76"/><path d="M1748.9,1755.2c4.6-324.1,481.6-322.5,474,6-12.1,318.6-465.6,309.3-474-6M2074.9,1622.2c-205-124.7-342.2,207.3-133,294,170.2,45.5,266.6-188.3,133-294M2137.9,1665.2c4-4.3,23.7-6.4,13-16-89.9-206.3-436.6-28.3-338,124-21.9-184.4,235.8-273.5,325-108M1929.9,1927.2c96.7,121.3,331.7-114.6,232-257l-17,10c63.3,134.3-68,308.3-215,247M1830.9,1837.2l-17-47h-22c3.1,19.2,33.6,110.4,49,74,6.6-7.5-7.3-20.5-10-27M1905.9,1927.2c13-14.9-43.2-35-52-54l-10,18c17.9,14.7,41.3,41.3,62,36Z" fill="#030101"/><path d="M1933.9,3333.2c4.4,1.4-22,24.8-22,26,51.5,54.9,48.4,48.6-14,17,7.3,151.2,3.1-32.1-76,7,45.9-34.2,3.7-35.9-23-58,81.4,16.7,59.2-35.9,90-83l5,91h40Z" fill="#ead196"/><path d="M902.9,2471.2c-62.9-29.6-135.7-49.7-182-104,34.3,37.2,369.3,118.5,182,104Z" fill="#010102"/><path d="M1077.2,1206.7c29.3-10.2,25.7,5.4,25.2,29.9-29,11.3-24.4-7-25.2-29.9ZM1154.9,1299.9c-34.7,16.3-31.1-44.6,0-43.7v43.7ZM839.9,1459.6c-1.9-13.1,5-18.3,17-20.4,1.4,13.4-3.6,19-17,20.4ZM1099.7,1340.2l-25.8,6c-9.3-51.4,33.1-65.8,25.8-6ZM1220.9,1336.2l-.4-31.2c25.5-.9,27.7,49.7.4,31.2Z" fill="#054c74"/><path d="M1168.9,3007.2c-26.2,22.3-41.1,53.4-32,88,38.8-64.4,25.7-20.6,22,20,30.2,107.2-162-25.7,10-108Z" fill="#010102"/><path d="M1162.9,2979.2c-6.6,4.5-18.7,15-24,21-10.6-19.9,34.1-34,24-21Z" fill="#000104"/><path d="M1186.9,2973.2l-2,2,2-2Z" fill="#000001"/><path d="M1134.7,1431.9c-15.6-59.3,28.5-58.5,23.5,0h-23.5Z" fill="#054c74"/><path d="M1681.6,1378.3c-12.9,4.9-178.5,66.8-208.7,19.7-4.5-7.1-7.5-18.9-.7-39.7,8.8-6.5,19.3-15.5,29.7-27.4,11-12.6,18.7-24.8,24-34.7,21.9-73.7-47.3-140.5-21-213,17.7-45.4-13.6-95.9-2-142,.8-31.9,39.9-48.7,33-80,40.5-193,312.3-222.3,533.5-178.9,38.3,20.5,59.4,39.2,72.5,59.3,18,27.6,22.4,53.3,25.7,71.9,14,78.9,43.2,154.4,64.3,231.7,7.7,28.5,19.7,71.4,35.7,124-4.5-.6-9.7-1.4-14.3-2-4.6-.6-9.8-1.4-14.3-2,2.8,1,18.1,6.6,25.7,23.1,9.3,20.2-1.3,39-2.4,40.8-9.9-17.5-24.7-41.3-45.3-67.9-5.1-6.6-27.1-35.2-30.6-32.9-2.8,1.8,9.7,22.7,20.6,50.9,12.4,32.2,17.3,60.2,19.5,78.8-7.1,3.9-14.1,7.8-21.2,11.7-6.7-2.8-13.4-5.6-20.2-8.4-6.5-27.3-14.1-41.3-22.8-42.1-23.6-13.5-24,81.1-66.9,88.5,7.6-51.2,6.1-266.5,40.3-258,13.4-3.4,35.9,9.5,41,2-17.3-44.5-13.3-92.4-40.6-141.5-36.6-44.4-50.2,71.4-1.9,43.9-37.6,64.2-128.8,175.5-218,107.1-37.4-3-61,53.3-84,4-33.5-13.4-25.2,66.9,13,38,11.1,11,10.7,10.5-21.1,22.3-51.7,21.6-43.1-17-34.9-75.3,1.1,27.4-16.1,34-41,40-38.4,32.9-76.5,108.9-123.4,101,77.9-118.4,128.7-97.5-41.6-70-10.9-28.8-37.4-29.9-38-6,20.8,39.6,11,42.3,33.6,32.8,9.2-1.6,13,115.2,40.4,65.2,38,34-13.6,128.6,57,133.9-69.9-216.8,283.7-276.5,368.5-88.6,16.5-43-52.8-151.4-56.5-146.4,1.9-1.6,54,61.8,64.3,55.3,8.8-3.4-15.1-58.3,2.6-38.2,50.8,122.8,15.5,207.8-117,115-41.1-7.6-29.2,23.1-92,7-22.5,2.9-38.5,24.2-63,18-39.5-7-39.2,35.3-67,48-28.6,4.8-38.2,30.6-34.4,61,0,0,0,0-.1,0ZM1655.9,1069.2c-.4,15.7,11.1,7,21,8,26.3-2.4,16.7-13.9,15-34-19.1,2.6-45.7-.4-36,26M1873.9,969.2c-24.2-11.1-36.9,26.8,9,20-8.1,7.2-2.8,12.8-2,22,31.8-4.3,10.1,22.7,51,12.9.2,8.9,20.8,13.7,23,10.1,6.6,16.2,29.4,5.4,35-9,12.9-11.8,34.7-.3,30-26,.5-1.4-38.5,5.2-29,0l53-7v-19l-23,1c1.2-6.7,23.9-2.5,28-7,30.3,2,3.5-22.1,12-32-1.3-11.5-5.3-28.3-5-40-7.1,1.7-26.8-5.4-24,8-14.5-19.6-26.8.3-40,10-22.1,14.4-18.3,13.5-15,38,.4,1.1,19.6-2.4,12,2-11.4,1.4-10.5,6.3-10,16-6.6-21.9-25.4-8.5-44-10,6.9-5.8,11.5-3.7,5-18-13.6,8.9-60.2,22.6-27,20.5,0,.8-12.9,3.3-39,7.5h0ZM1650.9,1066.2c0-22.4-3.5-17.8-22-15,1.6,9.3,2.4,24.6,3,34,14.6-3.4,23.2.3,19-19M1732.9,1013.2c29.5-27.9-25.4-21.2-42-19-3,31.2,33.2,17.8,4,25-4.6,19.7,15.1,26.1,25,12,13.6,16.9,34-12.8,13-18M1689.9,767.2c-13-8.7-13.3,4.7-26,5-18.2,0-9.6,30.9-21,42,34.1,5.5,40.4-23.5,54-45,31.6-4.2,67.5-40.5,95-56,31.9-20.7,19-17.9-7-9-32.9,17.2-105.1,8.5-126,43,8.4,4,35,5.3,31,20M1663.9,846.6c3.3,12.4,16.9,16.5,15.8,19.6-277.4-11.8,68.1,192.2,24.2-4.9,71.7-64.8,3.8,93.2,71.8,104.7,27.8-14.3-19.4-105.2-11.4-131.7,40.4-38.2,16.2,233.3,70.7,33.1,38.9,32.8,67.5-40.7,98.3-63.6-1.7-26.2-26.3-41.9,22.6-48.4,54.3,6.9,1.5-33,55,9,7.8,10.6,0,23.7,4.5,28.5,47.5-3.1,121-9.1,38.5,35.5,4.1-30-57.6,9.6-67.9-4.9-7.3-9,12.8-31.9,2.9-44.5-47.5-25.3-44.9,54.6-72,73.4-17.4,10.9-49,65.6-13,67,102.4-58.4,37.5-65.2,182-85,35.3-53.2-96.8-219.5-76.2-83.9-33.7-5.2,4.5-50.8-38.8-60.1-9,3-13,10-11,19,7,48.3-65.2,47.4-26-2-.6-36.8-47.7-3-21,20,19.1,30.3-42,23.6-58,39,9.7-39.1-63.4,14.4-84,7-8,1.1-27.4,3.9-16,16,11-10,23-11,36-8,44.4-2.7,82.3-18.6,2.5,11.6-33.9,13.6-42.4,21.5-51.5,16.4-11.5-6.4-7.1-25.1-21.7-31.6-14.4-5-19.4-1.2-12.4,12.1-.7,14.6-52.9,25.4-43.9,56.7h0ZM2171.9,1109.2c11.5-25,39.2-8.4,59-9-4-13-13-19-23-24-19.7-4.8-45,8-66,9-21.8,6.7,18.5,41.5,30,24M1567.9,1279.6c-11.3-63.5-21.4-20.5-12.4,21.6,10.5,37.6,14.7,15.3,12.4-21.6ZM1603.9,1369.2c17.5-8.6,14.1-40.3-7-35-8.5,5.2-.9,21.8-8,30-3.4,8.9,7.7,8.4,15,5M1598.9,1014.2c2.2-17.6-10.7-10.8-22-12l2,24c9.2-1.9,22,2.4,20-12M1630.9,998.2c-10.8-1.8-3.5,18-4,23l19-2c-1-15,5.9-23.9-15-21M1574.9,986.2c0,18.1,7.9,11.9,21,12v-20c-10.1.5-24.5-10.3-21,8M1620.9,1022.2c5.7-16.8.8-26.6-17-22,1.4,17.7-7.2,26.1,17,22M1969.9,952.2c10.4-25.2-34.5-20.9-24,3l24-3M1622.9,1046.2c7.3-20.2-3.8-21.5-20-18,1.5,19.4-.6,20.4,20,18M1648.9,1032.2c2.6-15.3-14.2-5.5-22-6l2,19c10.1-2.2,23.5,3,20-13M1581.9,1030.2c-6.8,19.6,2.6,21.7,19,18-1.8-18.1,1.5-20.8-19-18M1668.9,1002.2c.5,18.9,4.6,14.7,20,13l-3-21c-5.5,1.4-18.6-2.3-17,8M1671.9,1022.2c-5.3,18.2,4.3,20.8,20,17-2-19.8,1.9-22.1-20-17M1728.9,1229.2c-21.1,11.7-9.7,13.2,1,27,13.5-5.9,9.8-20.2-1-27M1825.9,1212.2c-21.1-2.7-21.2,5.5-14,22,13.4-6.5,23.5-4,14-22M1777.9,1226.2l-3-10c-42.4,6,8.9,42.1,3,10M1666.9,1010.2c-.9-17-2.4-15.6-18-13l3,22c6-1.1,17.1,1.4,15-9M1619.9,1052.2c-15.2.8-14.8,2.7-14,17h20c-.7-5,2.9-17.8-6-17M1603.9,978.2c-8.8,16.9,1.9,21.2,17,18,.8-16-3.3-15-17-18M1855.9,1211.2c1.2,14.3,10.4,18.4,20,10l-4-15c-4,1.1-17.3-3.5-16,5M1916.9,1216.2c-4.3-16.7-7.5-12.2-21-8l7,17c4.7-2.4,20.7.7,14-9M1660.9,1042.2c12.4.9,6.4-13.9,7-21l-16,2c1.7,5.8-3.1,23,9,19M1718.9,1044.2c.2-5.5-19.5-1.3-22-2l3,16c5.8-3.4,23.7-3,19-14M1950.9,1224.2l4-2c6.8-36.6-37.2-2.5-4,2M1645.9,990.2c.8-6.2-19.9-5.8-23-7-1.5,14.5,12.9,15.6,23,7M1662.9,992.2c8.1-8.4-8.7-7-13-7-1.8,12.9,6.6,6.4,13,7M1669.9,986.2c-.9,8.5,11.6,5.6,18,2-6-4-12-3-18-2Z" fill="#0d070f"/><path d="M1721.9,1369.2c39-97.2,113.7-69.6,188-99,14.8,4.3,18.7,23.9,38,23,15.1-1.1,26.4,32.6,9,31-25.9-29.4-64.1-.5-96-15-33.4-17-49.1,33.7-78,27-31.9,17.6,3.3,27.1-61,33Z" fill="#0d070f"/><path d="M849.9,1416.2l-33,7c-5.6-27.9,45.5-40.9,33-7Z" fill="#054c74"/><path d="M2074.9,1622.2c133.6,105.7,37.2,339.6-133,294-209.2-86.8-71.9-418.7,133-294" fill="#b91b1f"/><path d="M2136.9,1665.2c-41.9-69.7-126.5-101.7-203.3-77.2-78.4,25-129.2,102.6-120.7,185.2-10.6-16.2-19.9-36.8-19.1-60.3,3.1-93.1,162.2-195.7,273.4-149.2,48.9,20.5,76,64.5,89.4,93.4-6.6,2.7-13.1,5.4-19.7,8.1ZM1930.9,1928.2c146.6,58.8,276.3-114,214-248l17-10c8.5,11.9,19.9,31.2,24.3,56.4,19.6,113.8-119.9,255.8-207.7,234.1-15.6-3.8-31.9-13.4-47.6-32.6h0ZM1813.9,1790.2c10,22.8,20,45.5,30,68.3-3,11.1-6.6,16.9-10.9,17.4-10.1,1.2-23.8-27.3-41.1-85.7h22ZM1916.4,1922c-2.7,4.5-5.8,6.8-8.6,8.1-15,6.9-40.8-8.6-63.9-38.9,3.3-6,6.7-12,10-18,20.8,16.3,41.6,32.5,62.5,48.8Z" fill="#da2828"/><path d="M715.9,1253.2l-1-31c29.8,9.3,37.8,61.5,1,31ZM630.3,1299.9c-2.7-19.5,4.3-24.2,23-25.4,5.1,20.7-4.3,23.3-23,25.4ZM631.9,1255.2c-2.8-17.4,5.7-20.6,21.2-23.5,3.9,17.4-6.8,20.2-21.2,23.5ZM630.9,1215.2c.8-21.2,4.7-31.2,27-34,0,20.8-5.2,31.6-27,34Z" fill="#054c74"/><path d="M1919.9,952.2c4.4,8.5,16,.8,14,8-31.9,14.4,24.9,40.2,9,0,7.1-4,4.5,16.7,6,19,5-2.3,31.6,1.2,28-10,6.9,9.1,25.6,3.4,35,2,2-2.8,6.5-1,9,0-15,18.1-49.4-8.7-32,32-2.7,16.5,15.9,19.2,0,21l-33,1c1.3,5.4,1.2,10-3.1,9,3.3-11-8.1-10.8-20.8-7.1-2-6.3,13.9-2.9,19-4.9,1-20.2-4.7-14-20-13-.8,2.9,2.7,16.7-4,15,2.5-35.5-35.1,12.5-33-33-1.5-1.1-14.8,2.7-10-3l9-3c1.4-.9-8.5-23-1-17,2.5,27.2,11.6,14.9,31,14-1.4-4.4,1.1-21.8-8-19,1,.3,8.4-6.7,4.9-11h0ZM1980.9,1002.2c8-53.6-78.3,3.4,2.2,1.1-.4,2.3-10.5,3-30.4,2.2-3.8,31.6,53.3,15.7,28.2-3.3h0ZM1915.9,988.2c-21.7,1.5-19.9.3-15,21,13.4-3.4,28.3,3.7,23-17,0-4-2-5-8-4M1947.9,993.2c-12.7-30.5-39.8,24.1,1,10l-1-10Z" fill="#0d070f"/><path d="M1992.9,913.2c7.4-3.4,7.2,8,10,13,19.8-5.4,34.1,5.7,26-23,11.6,6.3,0,21.2,22,16,4.9-2,8-7.7,7,2l-20,3c2.6,16.7,0,19.9,19,17-14,14.1-18.9-4.8-10,26-6.6,6.2-7-17.1-9-19-14.1.6-32.9,6.3-47,5-1.1-4.1,11.9-5.8,14-7-3.3-21.8-14.1-13-30-13,10-5.5,35.7-3.3,18-20M2014.9,927.2c-16,1.4-8.8,9.2-7,20,19.1-5.7,36.7,6.3,25-22l-18,2Z" fill="#0d070f"/><path d="M1874.9,969.2c-.3.9,3.2,18.1,1,18-.7-4.5-5.3-14.8-1-18Z" fill="#0d070f"/><path d="M502.9,2591.2c20.7-38.5,23.1-3,38,18-20-17.3-38.7-21.4-51,15-6,0-2-5-4-7l-28-1,1,12c-8.6,5.3-17.1-43.1-7-40,2.8,23.7,12.8-4.5,26-3-48.3,28.2,18.1,42.7,25,6M511.9,2593.2c9.5-4.3,9.8-5.3,4-14,0,2.7-13.6,15.2-4,14h0ZM350.9,2633.2c-5.8,1.7-.2,13.5,0,17-9.9-4-15.4-39.9-5-40,6.8,27.6,52.8,48,33-6,22.6,25.9,6.5,52.3-28,29ZM398.9,2627.2c30.5-78.3,63.7,33.4,29-14-17,3-28,13-31,31-11,.6,1.4-13.2,2-17M422.9,2611.2c6-4,1-7-1-12-2.9,5.8-18.7,20.9,1,12Z" fill="#1d1707"/><path d="M2026.9,1756.2c-2.9,52.2-91.3,69.1-96,9-11.1-78,96.2-87.5,96-9ZM1930.9,1663.2c-8.8,25.2-46.8,36.7-46,67-41.4,122.5-24.2-104.6,46-67ZM2039.9,1873.2c3.8,12.8-21.9,18-21-4,1.3-5.5,6.1-9.1,11-8.9,5.9.3,10.9,6.1,10,12.9ZM2072.9,1855.2c-13.6,12.6-14.4,9-22-5l14-12c4,6,11,9,8,17ZM2078.9,1819.2c1.9-24.9,27.5,7.1,18,13-8.5,10.2-14-8.4-18-13ZM2105.9,1787.2c-12.7-11.5,3.9-20.6,12-7,5.2,3.7-.9,12.2-3,16l-9-9ZM2122.9,1752.2c-11.3-2-14.2-4.9-11-16,9.8-3,22.9,8.2,11,16Z" fill="#e02929"/></g></g><g id="af"><g id="ag"><path d="M308.3.6h49.2c1.4,11.9,14.4,120.5,28.7,241,14.3,120.3,27.2,228.8,28.6,240.7,30.4-9.6,60.7-19.2,91.1-28.8,387.9,257.2,34.6,332.3,329,532-24.9-127.4,91.4-205.8,62.1-332.1,14.8-28.6,60.8-22.2,67.9,8.1,4.7,76-66,10.9-46,113-116.7,34.8-16.9,538-89.4,437.1,35.5-176.4,0-223.1-139.6-328,32.1-192.1-62.3-449.3-276-379-12.5,77.6,24.7,46.9,79.8,38.8,261.1,112.9,46.2,345.4,257.2,470.1,4.3,34.1-7.8,75.5,14,101.2,3.2,20.5-35.1,25-34.6,1.9,39.2-85.4-30.9-127.9-94.5-174,9.8-162.1-14.5-431.8-244.1-348.6-12.1-105.2-25.7-210.1-40.5-314.9-13.2-92.9-27.5-185.8-42.9-278.5h0Z" fill="#0b2870"/><path d="M1124.6.6h19c.4,11.3.9,22.6,1.3,33.9-99-29.8-135.6,729.2,7.8,541.9,24.8-9.6,39.6,25.3,18.3,38.8-88,9.8-179.9-14.6-156.3,105.7,59.8-12.4,119.5-24.9,179.3-37.3l2,16c-50.8,13-106.7,6.4-95.9,74-164.8,71-60.3,441.1-129.1,344,28.1-62.8-3-155.3,2-229,299.9-314.2-158.7-169.3-43.8,375,42.9,41.3-61,41.4-16.1,0-13.2-59-27.3-157.1-7.9-275.8,18.5-113.2,60-198.5,89.9-249.7,3.6-62.2-27.3-121.5,57.5-121.7l.6-541.7c4.6-1.1,61.8-15.7,70.7-56.4,1.1-4.9,1.6-10.8.7-17.7Z" fill="#0b2870"/><path d="M810.3.6c12.8,7.3,27.4,17,42.4,29.8,21,17.9,36.3,36.2,47,51.4,0,0,13.9,20.1,24.1,42.9,46.2,103.9,2,352.8,5,353.5,2.7.6,101.8-182.1,21-351.1-28.8-60.3-71.8-100.8-106.4-126.5,0,0-33.1,0-33.1,0Z" fill="#0b2870"/><path d="M1723.2,315.1c19.6-92.4-23.5-259.8,30.8-314.5-21.3,126.8,38,289.1-64.3,383-267.6,50.1-141.5,89.9-276,160,127.4-222.8,191.4-95.6,309.5-228.5Z" fill="#0b2870"/><path d="M111.7,499.1c60.6,48.4-65.9,56.2-14,0,16.3-68-105.4-62.1-95.5-125.8,31.7,22.8,63.5,45.5,95.2,68.3-1.4-147-2.8-294-4.3-440.9,34.7,136.9,5.2,339.8,18.6,498.4h0ZM1677.9.6c-38.8,223.9,58.3,342.4-221.9,377.8,5.9,15.1,1.8,23.5.6,25.6-10.9,19.3-56.1,18-64.8-1.1-6-13.1,6.8-30.7,8.9-33.5,369.1-45.7,164.3-169.6,277.2-368.8h0Z" fill="#0b2870"/><path d="M1179.6.6h18.2c.4,23,.7,45.9,1.1,68.9-93,86.9-78.1,435.4,69,472.8,9.1,6.4,10,19.8,4.9,28.2-14.9,22.5-52.2,4.3-40.3-22.4-22.5-22.6-100-105.8-113.1-239.6-12.7-130.3,43.8-225,61.4-252.2-.4-18.6-.8-37.1-1.2-55.7Z" fill="#0b2870"/><path d="M2512.6,389.6c59.3-17,52.3,16.5,0,19-15.7,267.1-28-125.4-18-198,58.8-31.9,117.5-63.9,176.3-95.8-7.5-172,25.5-118,16.3,14.7-153.1,79.8-191.6,73.5-174.7,260.1h0Z" fill="#0b2870"/><path d="M1279.5.6c-17.8,70.4-38.1,193.2-4.5,337.4,15.4,66.1,38.6,121.1,60.8,163.8-2.3,18.2-29,14.5-25.8-3.6-42-98.4-86.2-248.8-57.9-421.9,4.3-26.6,10.1-51.9,16.8-75.6h10.6ZM2138.9.6c4.1,0,8.2.1,12.3.2,3.5,32.1,7.1,64.1,10.6,96.2,15.4-13.8,44.8-84.2,48-40.5-67.6,80.5-43,179.4-42.4,276.6,20.9-3.6,39.1-14.5,32.9,15.1-1.3,0-19.1-1.8-30.2,11.8-7.8,9.5-7.3,20.5-7.1,23.2l-34.9-4.7c9.8-46.7,17.9-101.2,21.1-162,4.4-83.2-1.4-156.3-10.3-215.9h0Z" fill="#0b2870"/><path d="M1870.7.6c-58.6,81.9-10.1,210.5-24,309.9h-26.6c20.6-77.5-53-306.9,50.6-309.9Z" fill="#0b2870"/><path d="M2374.5.6c-4.5,196.3-145.8,43-106.6,388.8-50.1,11-13.3-170.9-24.9-214,38.3-41,76.7-82,115-123l4.9-51.8h11.6Z" fill="#0b2870"/><path d="M2340.5,147.7c51.5-43.8,128.2-67.4,111-147h7.6c1.6,27,3.1,53.9,4.7,80.9-34.6,26.7-69.3,53.4-103.9,80.1,5.6,330-33,267.3-19.4-14h0Z" fill="#0b2870"/><path d="M2024,.6c1.4,68.1,2.8,136.2,4.2,204.2-42.1,2.1-148.1,74.8-154.4,28.6,245.7-46.4,66.6-126.5,150.2-232.8h0Z" fill="#0b2870"/><path d="M1792.5,348.3c66.1-3.2,215.9-95.8,239-45.9-154.9,58.1-309.8,116.1-464.7,174.2-9.5-44.6,189.5-71.2,225.7-128.3Z" fill="#0b2870"/></g></g><path d="M2564,1940.9c-6.3,1.9-3.5,77.1,30.4,90.3,21.2,8.2,40.7-13,68.4-.2,15.6,7.3,22.5,20.2,26.6,17.8,4.7-2.8,2.7-24.1-9.7-36.4-19.5-19.3-47.1.9-76.8-15.1-31.5-16.9-34.1-57.8-38.8-56.4h0Z" fill="#02274e"/><path d="M2668.2,1794.8c-7.9-3.2-34.6,39.1-80.2,127.2,3.4,17.1,8.1,26.1,14.2,27.2,14.4,2.5,36.4-39.8,66.1-126.7,3.3-17.1,3.3-26.3,0-27.7h-.1Z" fill="#02274e"/><path d="M2564,2152.5c-1.4,7.8-5.9,34.1,8.2,48.2,17.1,17.2,42.8-2.4,62.5,9.4,41.8,25.1,2.2,159.1,11,161.4,2.8.7,9.9-12.2,26.7-60.7,3.5-103.5-10.7-135.2-27.5-140.3-17.2-5.2-36.4,17.5-50.4,8.6-18.7-11.9-1.6-63.3-9.6-65.5-5.1-1.4-17.2,18-20.8,38.8h0Z" fill="#02274e"/></svg>