<svg xmlns="http://www.w3.org/2000/svg" width="800" height="448"><style>
<style>
@keyframes textFlicker {
  0%, 5% { opacity: 0; fill: #ff0026; }
  6%, 10% { opacity: 1; fill: #ff0026; }
  11%, 30% { opacity: 0; }
  31%, 33% { opacity: 1; fill: #ff0026; }
  34%, 100% { opacity: 0; }
}
.frogExe {
  font-family: 'Courier New', monospace;
  font-size: 14px;
  animation: textFlicker 2s infinite;
}
</style>
@keyframes jitter{0%{transform:translateY(0)}50%{transform:translateY(1px)}}@keyframes verticalJitter{0%{transform:translateY(0)}50%{transform:translateY(1px)}}@keyframes redFlicker{0%,50%{fill:#ff0026}51%{fill:#000}}:root{--bg:#0b0b0b;--frog:#9aff19;--human:#000000;--burst:#00e0ff}.human{fill:var(--human)}.pulseRed{fill:currentColor;animation:redFlicker .1s infinite steps(1,end)}</style><defs><pattern height="4" id="scanlines" patternUnits="userSpaceOnUse" width="2">
    <animateTransform attributeName="patternTransform"
                      type="translate"
                      values="0,0; 0,1; 0,-1; 0,0"
                      dur="0.2s"
                      repeatCount="indefinite" />

<rect fill="#111" height="1" width="2"/>
</pattern></defs><g fill="var(--bg)"><path id="Background" fill="#0b0b0b" d="M0 0h800v448H0z"><animate attributeName="fill" dur="0.08s" repeatCount="indefinite" values="#0b0b0b;#111111;#0e0e0e;#0b0b0b"/></path></g><g id="Human_Thoughts" fill="var(--burst)"><path fill="#ff0040" d="m494 91 1 1-1 1-1 1v6h-1 1l1 1-1 1h-3l-1-1 1-1-1-1v-5 20l3 2h2V93l-1-3v-2 3Zm-2-4h-8l-1 1h-11v1l-1 1 1 1v1h17v-4l1-1h2Z"><animate attributeName="fill" dur="1.2s" repeatCount="indefinite" values="#00e0ff;#004466;#00e0ff"/><animate attributeName="fill" dur="0.21s" repeatCount="indefinite" values="#ff0040;#cc0033;#ff3366;#ff0040"/></path><path fill="#40f" d="M510 9v6l-1 1h-5 5l1 1-1 2h-4l1 2h2l1-1 1 1v5l-1 1 1 1v7l-1 1 1 1v3l2 1 6-1 2 2-1 2v3l2 2h11l1-2V14l-1-2h-11l-2-3h-9Zm166 4 75 1-1 12-1-11h-70l70 4-5 78-11 1 15 2 1 13-31-27v18l7-12 20 13 3 17-21-12 17 7 5 23v-23l22 17-15 6 10 3 6-11-22-17 1-14 17 1-1 19 3-17-37-5 38-5 1-73 2 73V22l-20-3 18 10v63l-9 5V60l-2 37V60v37l-10-1V40l-2 57V27l16 14-3 16 7-19-18-5V16l21 1-21-3 23 1-98-2Z"><animate attributeName="fill" dur="1.2s" repeatCount="indefinite" values="#00e0ff;#004466;#00e0ff"/><animate attributeName="fill" dur="0.28s" repeatCount="indefinite" values="#4400ff;#220077;#6a00ff;#4400ff"/></path><path fill="#00ffd2" d="m487 0-2 11h-14l-2 4h16l2 10h5V8l2-2 4 2v133h2V93l14-1-14-1V8l17-2V4h-16l-1-4-1 4-1-4-1 4h-4l-1-4h-5Z"><animate attributeName="fill" dur="1.2s" repeatCount="indefinite" values="#00e0ff;#004466;#00e0ff"/><animate attributeName="fill" dur="0.35s" repeatCount="indefinite" values="#00ffd2;#00bfa6;#66ffe5;#00ffd2"/></path></g><g id="Human" class="human"><path fill="#00e0ff" d="M663 213h4l1 1-2 2v1l-1 1-2-2 1-1-1 1 1 1-2 2 2 2-1-1v-1l1-1h1l3 3v1h1l2 2-1 1h-1l-1-1 1 1h5l1 1 2-2v-2l3-5v-2h-4l-2 2-1-1h-1l-1 1-3-3 1-1h-1l-1-1v-1 1l-1 1h-3Zm-58-29-2 4 1-2 4 2-6 2 3 2v8l-4 1 2 2-2 3 1-2 3 2-3 2 1 4-3-2 4 5-5-3 5 6-4 1v3l5 5 1-9 2 9-3 3-3-9-5 6 1-12 19 18-8-2 1-4-3-3 2-1-3-1 3-10-7-3 6-2-1-11 1 7-4 1v-13l2-2 1 5 3-4-3 2 1-8-1 2-2-2Z"><animate attributeName="fill" dur="0.21s" repeatCount="indefinite" values="#00e0ff;#004466;#33f0ff;#00e0ff"/><animate attributeName="fill" dur="0.35s" repeatCount="indefinite" values="#00e0ff;#7fffd4;#00e0ff"/></path><path fill="#9aff19" d="m693 245-198-3-24 22 57-25-35 38 44-19 30 49-89 27 68 8-47-21-86 50 133-28-22-42 43 6-1-49 56 29-52-12 22 131-4-91 112-63-7-7Z"><animate attributeName="fill" dur="0.28s" repeatCount="indefinite" values="#9aff19;#76ff00;#b6ff4d;#9aff19"/><animate attributeName="fill" dur="0.4s" repeatCount="indefinite" values="#9aff19;#b4ff3b;#9aff19"/></path><path fill="#ff0040" d="m683 85-17-5 6 7-12 3 3 20-19-11-8 5 11 1-16 7h11l-11 12 10 10-1 12-15 7 2 32 2-18 23-12-17 12v-17l16-3-13-10 21-15 4 9-9 2h10l-7 10-5-7 11 6-14 11 12-7-10 15 6 8-24 5 9 10 13-24 24-16-7 6-4-9-4 9 5-19-7-4 11 7-1-12 26-8-3-6-19 16-8-9 8 3-8 9-14-7 17-22-5-7 17-6Z"><animate attributeName="fill" dur="0.35s" repeatCount="indefinite" values="#ff0040;#cc0033;#ff3366;#ff0040"/></path><path fill="#40f" d="m676 67-4 4-1-1v-1 3l-3 3v3l1 1h1l2 2v1-2l1-1 3 4v-1l2-3-2 2h-1l-2-2 1-1v-1l1-1 1 1 3-2 3 2-1 1v3-2l1-1v-1l-4-3-1 1h-1l-1-1 2-2-1-1v-1l1-1h1l1 1h2l1 1-1 1h-2 2l1 1v1-1l-1-1 1-1-1-1h-2l-1-1h-1l-1 1-1-1v-1l1-1ZM552 52l4 21 7-3 2 55V68l-5-3 8-1v79l-2-17-4 4 5 14-1 35 6-19-5-11 1-8 4 1v-16l-5-2V68l6-1-6-4 3-7-5 9-1-8-4 1 4 5-7 6-5-17Z"><animate attributeName="fill" dur="0.21s" repeatCount="indefinite" values="#4400ff;#220077;#6a00ff;#4400ff"/></path><path fill="#00ffd2" d="m577 201 61-67-28 20 5-76h38l-40-41 56-11c19 19 44 50 50 92 8 62-29 121-26 122a165 165 0 0 0 27-80L694 41 569 16l-8 40 9-40 65 1-69 174-10-113-4 131 24-8Z"><animate attributeName="fill" dur="0.28s" repeatCount="indefinite" values="#00ffd2;#00bfa6;#66ffe5;#00ffd2"/></path><animateTransform attributeName="transform" dur="0.1s" repeatCount="indefinite" type="translate" values="0,0;0,-1;0,1;0,0"/></g><path id="Human_Eye_and_Mouth" fill="#00e0ff" d="M568 45v3l4 3h4l9-4 3-3-1-1 1-1v-1l1-1v-1l-1-1h-9v1l1 1v2l-1 1 1 1-3 3-1-1h-4v1l-5-2Zm10-21v6h6l1 1 1-1 1 1 1-1h1v-2l-1-1 1-1v-2h-2l-1-1h-7l-1 1Z" class="pulseRed" color="#000"><animate attributeName="fill" dur="0.15s" repeatCount="indefinite" values="#000000;#ff0026;#000000"/><animate attributeName="fill" dur="0.35s" repeatCount="indefinite" values="#00e0ff;#004466;#33f0ff;#00e0ff"/><animate attributeName="fill" dur="0.35s" repeatCount="indefinite" values="#00e0ff;#7fffd4;#00e0ff"/></path><g id="Chair_Right"><path fill="#9aff19" d="m737 139-13 107-118 76-12-3 72-43-37 38 98-51 13 65-3-189Z"><animate attributeName="fill" dur="0.21s" repeatCount="indefinite" values="#9aff19;#76ff00;#b6ff4d;#9aff19"/><animate attributeName="fill" dur="0.4s" repeatCount="indefinite" values="#9aff19;#b4ff3b;#9aff19"/></path><path fill="#ff0040" d="M762 378v41h24l-4-3 3-2-4-1 3-6-3 4-4-1 3-3-3 2-5-2 2 5-3 4-3-7 2-2-2-1-4 2 2-2 3 1-2 6 1 3h3l2-3 4 5h-15v-39l22-1 1 5h14-13l-2-5h-22Z"><animate attributeName="fill" dur="0.28s" repeatCount="indefinite" values="#ff0040;#cc0033;#ff3366;#ff0040"/></path><path fill="#40f" d="m698 365-3 5 11-5 36 3 5 5 2 14 4-8 2 60h21v-11l-4-1 3-4h-3v5l4 1-1 10-20-1-2-59 3-6-3-4 46 7-11 1-2-5h-28v-24l-4 6 3 12-6-1-2 6 7 5-7 8-2-9 4-1-8-6 5-2-2-6 4-5-5 7-4-8-3 12-40-1Z"><animate attributeName="fill" dur="0.35s" repeatCount="indefinite" values="#4400ff;#220077;#6a00ff;#4400ff"/></path><path fill="#00ffd2" d="m783 178-9-4 4 6-14 2 6 7 5-10 4 4-14 7 3 8-4 4-3-5-2 12 6-6-5 12 4 4-5 3-3-7-7 14v-9l-5 8 9 14h13v19l1-5 4 5 4-4-3-5-4 5 2-17h-7l3-6 1 5 10-1v7l5-6 10 3-1-10-6 2-8-12 1-7-6 4-4-8 5 9-4 8-1-10h-5l1-14 10 4-6-5 9-2-3-6-7 10-2-15 10 3 8-9 4 7-8-1 9 8-6-16 1-4Z"><animate attributeName="fill" dur="0.21s" repeatCount="indefinite" values="#00ffd2;#00bfa6;#66ffe5;#00ffd2"/></path><path fill="#9aff19" d="m783 246-5 5-4-3 6 4-2 11-9 3v-4l-1 17-9 3 13 8-28 3v8l7 2-7-6 2-6 33 1 2 7-2 9-14 2-6-2 1-13h-4v12l15 5-3 8-5-4-5 13-3-6-5 15 6-10v4h7l1-7-5-1 11-5v-9l10-2v-16l-6-3 3-14 23-2h-23l-3 19-9-7 9-7-7 2 6-4-5-3 2-8 3 8 4-5h23l-24-1 7-21Z"><animate attributeName="fill" dur="0.35s" repeatCount="indefinite" values="#9aff19;#76ff00;#b6ff4d;#9aff19"/><animate attributeName="fill" dur="0.4s" repeatCount="indefinite" values="#9aff19;#b4ff3b;#9aff19"/></path></g><g id="Frog" fill="var(--frog)"><path fill="#ff0040" d="m132 232-10 18 15 27-18-9 12 24 19-1 31 29-2 12-39-27 3 22 20 8-15 9h14l-10 14 32 3-16 10 20 39 9-12-11 1-13-27 23-10-14 3 7-7-25-17 12 1-5-8-2 15-10-8 15-16 10 15-3-18 11-3-58-40 12-5-9-13 24 14v-11l-29-32Z"><animate attributeName="fill" dur="0.21s" repeatCount="indefinite" values="#ff0040;#cc0033;#ff3366;#ff0040"/></path><path fill="#40f" d="M163 224v73l3-12 2 15 23-2-24-2-2-38 16 13-16 5 31 14-19-8-1 12 64 21 22-6-62-13 9-11-22-14 12 8 4-11 20-3-17 26 38 1-5 8 27 9 4-11-21-1-10-23-18 6v15l-12-23-1-19-20 4 12 15-18-6 7-13-8 11-2-15h-13l9 19-13-34 10 16-9-19 7 9 10-24-12 15-5-7Zm174-7-1-1h-1l2 2v1l-1 1-1-1h-1l-1-1v-1l-3-3-1 1h-2l-1 1h-1l-1-1-1 1v1l-2 2 2 6-2 2-1-1v-2h-1l1 1v2h2v-1l2-2v-1l1-1h2l2-2 2 2-1 1 1 1v-2l1-1 2 2 1-1h1l1 1v-1l-1-1v-1l1-1v-2Zm-145-37h-2l-1 4v-2l2-2 3 3-3 2-1 4-2 2-6-1v2l-3 2 2 3-1 1 1-1-2-3 3-2 4 6-2 3-2-1 1-1h-1l1 2 2-1 2 2-1-1 1-1h3l-5-1 4-1h-3l-2-2 3-3 2 1 1-1 1 2 1-1 3 3-1 2-2-2 2 3-3 4-2-1 1-1-2 2-4-1 3 2 2-2 1 1-3 4-3-3 3 3-1 1 6-5 3-5v-3l-2-2 2-1v-3l2-2-1 1-1-1 2-5h-3l-2-3Z"><animate attributeName="fill" dur="0.28s" repeatCount="indefinite" values="#4400ff;#220077;#6a00ff;#4400ff"/></path><path fill="#00ffd2" d="m184 174-6 3-2-2h-4l-1 3-3 2v-5l-1 2-2-2 7-5h-2l-5 5 3 5-3 5-3-2-5 2 5 3-3-3h7l1-2 2 4-3 4 3 3-1-6 2-2 10 5-1-1 3-3-3 3-1-2 3-4 6 5 1-3-1 2-3-3 2-1-2-1v-4l-1-1v3l-4-4 2-2 3 1v-2Zm109-25-1-1v2l-2 2h-1l-2-2v-1l-1 1-2-1 2 2-3 4h-2l-2-2 1-2 2-1 1 1-1-1-3 1 1 1-1 1 2 2-1 1-4-1-2-2 1-1v-2h-1l-1 1v2l2 2v2l2 2-1 2 4 2h2l1-1h5l1-1-1-1-1 2h-2l-2-2v-2l1-1h3v-1l-1 1h-2l-2 2-2-2v-1l1-1 1 1 2-1 3-5 1 2h2l1 1 2-4Zm-33-2-3 1 2 3-3 8 4 1 2-2 2 2-2 1 2 2-2 2-1-2 1 2-1 1 2 1-2-1 3-3h2l1 3-1 1-1-2 1 3-2 1 2 1-2 2-4-2-1-5v3l-3 3-2-6 3-3-3-3-1 3 2 1-1 1v4l2 3-1 1 4 2-1-1 2-2 1 1 2-1 2 4-1 1-2-1v1l3-1-1-1 1-3 2 1 3-2 1 1-2 2 2-1-2-4-1 3-2-4 2-4 2 2-1 1 3-3-2-1 1-3-4-6 3-1-1-3-2 4-3-1-1 3-6-6 3-2Z"><animate attributeName="fill" dur="0.35s" repeatCount="indefinite" values="#00ffd2;#00bfa6;#66ffe5;#00ffd2"/></path><path fill="#00e0ff" d="m270 130-1-1h-2l-1 1v2l-2 2v1l-1 1h-1l-1 1h-3v1l-2 2h-1l-1 1h-2v2h1l1 1 1-1h3l1 1 1-1h1l1-1h3l3-3v-4l2-2v-3Z"><animate attributeName="fill" dur="0.21s" repeatCount="indefinite" values="#00e0ff;#004466;#33f0ff;#00e0ff"/><animate attributeName="fill" dur="0.35s" repeatCount="indefinite" values="#00e0ff;#7fffd4;#00e0ff"/></path><path fill="#9aff19" d="m150 158-13 59 23 22-24-18 12 33 12-5 1-32-20-5 16-3-4-18v-10l48-58 46-1-61 41 39-12-26 4 80-56-129 59Z"><animate attributeName="fill" dur="0.28s" repeatCount="indefinite" values="#9aff19;#76ff00;#b6ff4d;#9aff19"/><animate attributeName="fill" dur="0.4s" repeatCount="indefinite" values="#9aff19;#b4ff3b;#9aff19"/></path><path fill="#ff0040" d="m184 239 94-32-44 48 64-35-19 22 68-1-43-7 18-40 41 38 10 6-38-41-60 26 81-107-37-20-40 3a109 109 0 0 1 71 17l-37 47-129 76Z"><animate attributeName="fill" dur="0.35s" repeatCount="indefinite" values="#ff0040;#cc0033;#ff3366;#ff0040"/></path><path fill="#40f" d="m268 304 1 13-2 11-5-10-20-2 15 10-5 11 3-17 10 8-17 27-7-4-5-8-3 12-2-6-5 9-26 1 5-10-15-9 11 8-7 12-11-16 26 29-5 5 21 4-15-24 18 29h10l-4-11 18 9-17-11 10-2-3-10-6 11 4-8-9-3 11 19-18-9 10-10-5-7 7 9 7-10 17 18-11-20 22-31-4 16 7 1-6-34Z"><animate attributeName="fill" dur="0.21s" repeatCount="indefinite" values="#4400ff;#220077;#6a00ff;#4400ff"/></path><path fill="#00ffd2" d="m195 338 15 10-1 4 5-4 11 1 2-5 2 3 5-5-5 5-2-3 7-5 11 4 2-5-19 2 1-9 3 5 3-2-5-2 2-4-4-5-3 10-2-9-6 4-4-13 11 7-9-8 13-3-14-7 6 6-12 6 7 1-4 8 3-3 3 6h-5l3 8-4 3 7-1-5-4 5-7 5 4-5 3 11 3-1 6-7-8 4 11-6 4-10-2v-4h9l-4 1 2-5 5 5-2-5-11 4 1-11-6 5 6 1-3 7-8-8 6-3-1-5 2 3-10 5z"><animate attributeName="fill" dur="0.28s" repeatCount="indefinite" values="#00ffd2;#00bfa6;#66ffe5;#00ffd2"/></path><path fill="#00e0ff" d="m255 383-5-6 5 7-15 8-6 16-5-11-11-1v-5l2 10 3-7 4 5-4 7-12 2-2-3 9-6-4-2 1 5-5-7-10-2 4-3-6-4 1 7 13 5-6 6-2-4-1 7-3-11-2 13-13 7-6-5 2-6 3 2-9-6h7l-2-7-8 8 7 3-4 1 5 8 9 2 9-7 39 2h-7l-6-9 12 6 4-13 7 7-4 8-3-7 3-3-4 6 4 4-4 1 9 2-4-4 5-1-5-4 4-7-8-4 12-4-6-1 9-5Z"><animate attributeName="fill" dur="0.35s" repeatCount="indefinite" values="#00e0ff;#004466;#33f0ff;#00e0ff"/><animate attributeName="fill" dur="0.35s" repeatCount="indefinite" values="#00e0ff;#7fffd4;#00e0ff"/></path><path fill="#9aff19" d="m261 333-2 114 7-36 6 36 14-14 4 13-3-28 7 26 20 3 6-21 10 21 3-40-22-14 28-26-13-16-6 13 3-13-14 28v-28l-13 12 10 15-18-2 35-1-10 16-11-8-2 29 27 5-18 1-1 26-19-61-13 3 4-24-4 33 21 25-23-26 1 17-11-4-3-74Zm-149-6v8h3l2 2v3h1l1 1h9v-3l-2-2v-1h-1l-1-1v-4l-1-1v-1h-2l-1-1h-8Zm83 11 15 10-1 4 5-4 11 1 2-5 2 3 5-5-5 5-2-3 7-5 11 4 2-5-19 2 1-9 3 5 3-2-5-2 2-4-4-5-3 10-2-9-6 4-4-13 11 7-9-8 13-3-14-7 6 6-12 6 7 1-4 8 3-3 3 6h-5l3 8-4 3 7-1-5-4 5-7 5 4-5 3 11 3-1 6-7-8 4 11-6 4-10-2v-4h9l-4 1 2-5 5 5-2-5-11 4 1-11-6 5 6 1-3 7-8-8 6-3-1-5 2 3-10 5Z"><animate attributeName="fill" dur="0.21s" repeatCount="indefinite" values="#9aff19;#76ff00;#b6ff4d;#9aff19"/><animate attributeName="fill" dur="0.4s" repeatCount="indefinite" values="#9aff19;#b4ff3b;#9aff19"/></path><path fill="#ff0040" d="m154 297-5 1h4l-4 3-4-4-1 3-2-2 1-2-6 6-1-4 3-4-3 3-2-1-1 3h-3l-2-3v4l2 3-2-3 1-2 3 3 1 4-2 2-3-1v4l4-1 3 7-2-2 1-4-2-1 1-4 3 3v6l5 5v4l-2 2 3-3-1-5-2-1 1-3-3-1 4-3-3-3 3 3h-3l-1 3-2-9h6l-2-2 2-3 3 4-1-1 2-2 2 1-1 1h6l-1-1 2-2 2 2-1 2 1-2 3 2-5-4 1-1Z"><animate attributeName="fill" dur="0.28s" repeatCount="indefinite" values="#ff0040;#cc0033;#ff3366;#ff0040"/></path><animateTransform additive="sum" attributeName="transform" dur="1.8s" repeatCount="indefinite" type="scale" values="1;1.02;1"/><animateTransform attributeName="transform" dur="0.15s" repeatCount="indefinite" type="translate" values="0,0;1,0;0,0;-1,0"/></g><g id="Frog_Eye"><path fill="#40f" d="m322 112-2-1h-6l-8 4 3 2-1 1-3-1-3 3 1 1-2 2v3l-1 1 1 3 1-1-2-2 1-1v-3l2-1 1 1-1 2 1 1 1-1v-2l-2-1v-2l2-2h1l1 3 3 2-3 1 6 1 1 1 7-1 3-3-1-3 1-2-2 2h-5l-3 2h-4l-1 1-2-3 6-5-3 2h-3l-1-1 8-4 2 1-1 1h4l2 1 1-2Z" class="pulseRed" color="#000"><animate attributeName="fill" dur="0.15s" repeatCount="indefinite" values="#000000;#ff0026;#000000"/><animate attributeName="fill" dur="0.35s" repeatCount="indefinite" values="#4400ff;#220077;#6a00ff;#4400ff"/></path><path fill="#00ffd2" d="m331 111-10-5-12 2-4-4 2 3-6 6 3-4 1 3-11 10 5-8h-6l-5 8v-7l12-6-8-4 1 6-6 5v5l-9 1h8l-2 12 16 11 3 6-3 2 5 2 1-7-5-8 12 5 1-3h6l5-6-4 4-13-2 19-7 5-12-5-5 5 5-2 2-2-4 1 7-8 8 7-6 1 3-9 6-9-1-1 3-6-7 5 7-4 1-8-9 1-10 8-8-2-2 16-3 12 5h-1Z" class="pulseRed" color="#000"><animate attributeName="fill" dur="0.15s" repeatCount="indefinite" values="#000000;#ff0026;#000000"/><animate attributeName="fill" dur="0.21s" repeatCount="indefinite" values="#00ffd2;#00bfa6;#66ffe5;#00ffd2"/></path></g><g id="Roots" class="human"><path fill="#00e0ff" d="m400 426 1 1-1 1v1l-2 2v3l-1 1v2-2l1-1 2 2-1 1 1 1v2l-1 1 1-1v-1l1-1h1v-2l1-1 1 1 1-1h1l1 1-4 4h1v-1l1-1 1 1v1-1l1-1 1 1v2-2l-2-2 1-1h1l1 1-1-1v-2l-2-2v-1l-1-1v-3h-4l-1-1Zm170 5-2-2-7 7-1-3h-3l3 7-2 3-3-3 1-3 1 8-6-6 3-2-2-1-1 3-4-2 2 1-4 4-2-2 4-5-3-3 5-1 1 3 1-8 5-4-8 4-6-7-1 5 2-4 4 5-3 1 2 4-3 3-10-6 1-4-1 4 3 4-3 2-4-4 5 5-3 2-1-3-2 5-2-4-1 3h-6l-2 4 3 2-7 4 4-3h8l3 3 5-5 1 3-4 2h4l1-4 1 4 1-2 3 2-1-3 4 3 4-4 2 2 2-6 2 8 3-3 4 1-1-4 4 1-2-6 4-3 1 5 4-7Z"><animate attributeName="fill" dur="0.28s" repeatCount="indefinite" values="#00e0ff;#004466;#33f0ff;#00e0ff"/><animate attributeName="fill" dur="0.35s" repeatCount="indefinite" values="#00e0ff;#7fffd4;#00e0ff"/></path><path fill="#9aff19" d="m483 406-14 2 8 6-4 7-7-6 1-14v10l-9 3-3-15-6-3-4 28h-7l-3-10-1 11-2-5-1 4-9-1 10-6-4-1 1 4-7 3 1-4-9-2 1 7h-24l27 1-3 9h4l-4-5 5-2 1 10 7 4-1 4-5-4v4h6v-8l7 10-1-22 13-2 2-14 5 6-4 2 4 13 2-18 16 8v4l-6-4-2 3v-4l-5 4 4 2-6 8 3-7-1 8 8 1-6-2 1-9 16 1 5-6-7 1v-11l7-3Zm-156-16 1 1v2l-1 1-1-1v-1 2h1l1 1h2l1 1-1 1h-1v1l1-1h1l2 3v2l1 1h3l1 1-1 1h-3l2 2 2-2h1l1 1-2 2h1v-1l2-2v-1l-1-1 1-1h-1l-5-5v-1l1-1h1-1l-1-1 1-1h1v-1l-2 2-1-1v1l-1 1h-5l-1-1 1-1h1v-1l-1-1v-1h-1Z"><animate attributeName="fill" dur="0.35s" repeatCount="indefinite" values="#9aff19;#76ff00;#b6ff4d;#9aff19"/><animate attributeName="fill" dur="0.4s" repeatCount="indefinite" values="#9aff19;#b4ff3b;#9aff19"/></path><path fill="#ff0040" d="M470 389v9l2-10 10 1 2 12 14-2-1 8 6 1-4 4-5-8 5 17-4 4-2-8-1 11-24-1 10 5-7 5-1-4-1 11 5-10 7 7 1-15 4 5-5 3 11-5 4 16 2-8-6 3 4-10 2 13 4-5 1 7 7-3 5-16-2 5-11-3 3 9 4-5 3 5-6 6-11-14 3-6 3 7 2-15 8 9-5-2 8-8-7 2-2-6 10 2-2-14-2 14-7-4 3-7-10 3 10-6-22 3-2-12h-13Zm83-1 1 2-2 1v2l3-4 2 2-2 4h-8l-2 2-1-4-1 4-2-5 3-1-1-4-4 10-2-2 1-9-1 6-1-3-1 2-1-1 3 2 1 4-2 3h6l-5 5h-4l2 1-1 3 4 1-3 2v3h2l-2-2 4-4 6 4v-4l-4 2-2-2 2-3-4-1 4-2 3 4-2 1 4-1-6-5 1-1 14 5-4-4-2 2-2-2-3 1-2-3 2-2 1 3 1-3 3 2-3-2 7-1 1-2 2 2 2-4 1 4v-4l-6-4Zm-138-1h-14l14 1-5 18-6-9 3 10-19-7 8 6-12 1 6 1-2 11-1-9-2 4-11-12-6 5 10-3 4 11-4-5-16 3 3-10 9-3-5-7-1 9-3-1-8 11 8 7-5-4-4 4 15 7-7-12 9 3 2-5v10l9-3-10 7 13 1-9 7-16-7v-5l-4 3 15 9 1-4 2 9 5-6v5l6-11 3 7-1-5h8l-13-5h5v-15l7-6 16 2 3-18Zm-258 14h-10l-1-3-3-1 2 2-4 3-3-3 2-4 1 4-1-8 6-4-4-3 1-4-2 3 2 2-3 2 2-1v3l-3 2h-5l-1-2 1 2-3 3 7-4 3 3-3 4-9-1-2 2-1-2 3-2-2 1-1-4-5 1-1 3-1-2-6 1h6l-2 6-6 1v-7l-1 6-3 1 4 4 2-4 4-1 2 2v-5l4 4-1 2 7-7h6l3 2v6l1-4 3 3-2 2 2-2 5 2 4-5v9l6-8Z"><animate attributeName="fill" dur="0.21s" repeatCount="indefinite" values="#ff0040;#cc0033;#ff3366;#ff0040"/></path><path fill="#40f" d="m555 381 17 21-9 2 12 1-9 9-12-16 6 4-2 11-6-6 7 20-1-11 5-5 2 18 5-2-3-13 10-6 7 6-10 8 4 11-3-6 4-5 4 6 7-10-8-2 10-9v10l3-4 5 8-3 9-6-4 3-7-7 11 16-2-8 14 17-23 3 9-6-2-3 10 8 3-3-7 8-7-5-6 10-3-11-2-15 14 11-11-10-6-1-10v8l-9-6-2 10-1-6-6 3-1-8-3 6-6-18-8-2 11-9-10 1-1 8-7-7Zm100-24 3 2-1 4 2-3 1 2h2l3 3-3-3 1-2 7 7-1 1h-2l-1-1h-2l-3-3h-2l4 3h3l1 1-1 2-1-1v2l1 1-1-1 1-1h3l-1-1 2-1 3-4h2l2-3-1-3-1 1-2-2h-1l2 1-1 1h-2l-2-3h-8l2 1-1 1h-2l-1-1 1 1h2l2-2h5l1 1-1 2h-2l-1 1-1-2-4 4-4-5h-2Z"><animate attributeName="fill" dur="0.28s" repeatCount="indefinite" values="#4400ff;#220077;#6a00ff;#4400ff"/></path><path fill="#00ffd2" d="m650 353-5 2-1-3-12 11-2-2 3-3-4 4-2-2-1 3 5 7-3 8-3-3-8 3-2-7-5-4-1 5 3 10-4-1 2 1-4 3 4 2-3 6-2-1-3 3-2-2 3 3-2 1 4-1 3 3-5 2-4-5-3 2 2-1 6 5-1 2-2-2-1 3 3-1 1 2 2-2-2 1-1-4 7-1-5-6 5-5 3-13 2-1 2 3 6-2 1 5 4 1-2 2 2 3 1-5-5-2 9-4 3-9 2 5 3-1h-3l-3-10 3-4 9-4 3 8-2-3 2-5Zm-537-3-1 1 8-1 2 4v4l1 1-1-1 1-2 4 4-2 1 2 2-3 2-1-1 1 1-1 1 1-1 2 1-2 2 3 1-1 2h-2l3-1-1-2 2-2 3 1-2 2-1 6 1-2 1 1-1-1 1-2 3 3v4l-4 2-1-2 2-2-3 3v3l1-3 2 2 1-2h2l-1-6 4-1 1 2v-2h-3l-2-2-1-3 1-3-5-5v-3l-1 3-6-7 2-1 2 2 3-1 1 1-1 1 1-1 2 1-4-3-2 2-4-3 1-1h3l-11 1Z"><animate attributeName="fill" dur="0.35s" repeatCount="indefinite" values="#00ffd2;#00bfa6;#66ffe5;#00ffd2"/></path><path fill="#00e0ff" d="M603 348h-2l-3 7v7l2 1-5 1v6h3l-1 4 2 1h-6l2 1-1 1 2-1 2 5 1-1 2 2-3-4v-7l2-3 4 4h-3l2 2-2 2 4-3-5-5v-2l1 1-3 3-1-3v2h-2v-4l6-1 1-3-1-2-1 4-2-5 3-2 1 1v-3l5 3-3 2 1 7-2 2 4 4v-5h-2v-9l4 3-1 4h4l2-2 4 2v-3l-5 1v-2l-1 4-3-1 1-2-4-6 1-2-7-1 1-4 2-1Zm-326-7v1l-1 1h-4v2l-1 1h-1v2h1l2 2v1l-3 2-1-1v-1l1-1-1 1h-1l2 2v3l-2 2h1l1 1 2-2v-1h-1l-1-1 1-1v-1l1-1 1 1v1l2-2 3 3v2l-1 1-1-1h-1 1l1 1 1 3-1-3 1-1v-3l1-1v-1l-2-2v-3h-1l-1-1v-2l2-2 1 1 1-1-1 1-1-1v-1Z"><animate attributeName="fill" dur="0.21s" repeatCount="indefinite" values="#00e0ff;#004466;#33f0ff;#00e0ff"/><animate attributeName="fill" dur="0.35s" repeatCount="indefinite" values="#00e0ff;#7fffd4;#00e0ff"/></path><path fill="#9aff19" d="M112 327v8h3l2 2v3h1l1 1h9v-3l-2-2v-1h-1l-1-1v-4l-1-1v-1h-2l-1-1h-8Zm244-4h-1l1 1-1 1-3-1 2 1 1 3-1 1 1 2-3 1v2l3 1-2 3-3-3 2 2-2 1-4-5 1-1-1 1-2-2 2-1h-2v2l3 2-1 1-2-1 2 5-1 3 2 1 3-1 2 4-1 1-2-1v-1l3 3 1 4h2v-1l-1 1-2-2v-5l-2-3 3-2 2 4-1 1 1 1-1 3 1-3 2 1 1-1v-3l2-2-2-1-1 1-4-3 2-1v-3l3-1v-1l-3 2-3-1 3-2-1-5 2-1v-2Zm344 0 1 5-5 10-3-2 3-2-3 1 1 4-5-1 1-12-5 2-4-4 2-2h-3l1 4-6-2 14 4 1 4-12-2-4-4-13 13 7 12-5 3h6l-5-8 2-3 5 11 5 1 5 8 2-6-3 2-5-8 2 2-3 2-2-6h9l3 3-2 3 5-2 2 3h-4l-3 10-4-1-5 8-2-3 2 7 14-5-2-5h6l-8-2 3-8 5 2-2-6 6-2 4 6-2-3 11-8-3-3-6 6v-19l3-4 4 4-3 1 4-1-7-7Zm-100 8 5 5 4-4 3 4 3-3 6 5h5l-3 4 2-2 3 3-5 3-4-4-6 2 1-4 3-1-3 1-1-2 3-1-6 1-1 4-2-1 1-4-3 4 4 3 3-6 3 3-2 2-1-2-1 3 1-2 2 3 4-3 5 4h-3v3l8-6-2-2 4-5 5 5-1 2-3-3-2 1 1 5 1-3 5-1-2 4 12 1 5 5-4-4 6-4-5-1 4-4-3 3-4-1-1 3-1-3-6 2-5-5 4-2-4-1v3l-5-4-2 2 2-2 2 2-6 2-1-2 4-4-5 6-3-4 2-1h-7l-1 3-3-4-4-1v3l-5-3Zm-405 7 15 10-1 4 5-4 11 1 2-5 2 3 5-5-5 5-2-3 7-5 11 4 2-5-19 2 1-9 3 5 3-2-5-2 2-4-4-5-3 10-2-9-6 4-4-13 11 7-9-8 13-3-14-7 6 6-12 6 7 1-4 8 3-3 3 6h-5l3 8-4 3 7-1-5-4 5-7 5 4-5 3 11 3-1 6-7-8 4 11-6 4-10-2v-4h9l-4 1 2-5 5 5-2-5-11 4 1-11-6 5 6 1-3 7-8-8 6-3-1-5 2 3-10 5Z"><animate attributeName="fill" dur="0.28s" repeatCount="indefinite" values="#9aff19;#76ff00;#b6ff4d;#9aff19"/><animate attributeName="fill" dur="0.4s" repeatCount="indefinite" values="#9aff19;#b4ff3b;#9aff19"/></path><path fill="#ff0040" d="m615 321 10 2-6-3 7-2 6 8-3 1 3-1 2 4-2-4 3-1 13 6 6-3-3 3-1-5-2 5v-7l5 2 2-3 2 5-9 9 6-6 5 2 7-6-3-1 13-4-1-3-7 2-5 7h-6v-5l4 2 4-4-4 4-5-1-5-6 5 1-5-4-1 5h-4l3-4-8-4 6 4-1 7 1-3 4 1v-3l4 4-2 3-4-2-3 5-9-2-1-4-1 3h-4l-3-3 2-3 4 3-2-6-10 3 4-6-11 8Zm-332-20-2 5-3-2 3 3-4 1 7-7 3 16 1-4 3 2-2 2 4-2 4 7-3 5-3-5 1 4 7 1-5 9-3-6 5-1-6-2 3 6-3 1-3-3 3-7-4 1 3-4-8-10 7 16-2 3-2-3 2 7-3 1v11l4 2-4-4 4-1-1-8 4 2 4 28-1-5 5-7-5 4-4-15 4-1 2 10-2-4 4-2-4-3 4-5-5-1 7-4v6l1-5 3 1v-4l-5 1 1-4h5l2 5 8-4-4 4-2-4h-8l-6-13-11-8 3-1-3-5Z"><animate attributeName="fill" dur="0.35s" repeatCount="indefinite" values="#ff0040;#cc0033;#ff3366;#ff0040"/></path><path fill="#40f" d="M640 360v9l1-1 3 3 2-1 2 3-1 2h-3l9-1 1 2h4l5-2 4 3 1 7h3l4 5h3l-4-2v-5h-5l-2-2 1-4-3-2-7 2-4-2 6-3 1 2v-3l2-1-9-6 2-3h-3l-1-5 3 9-2 2-2-3 1-1h-5v-2 2l4 2-1 3 3 5 1-2-3-2v-3l6 5-3 4-3 1-1-4-4-1-1-4h3l-4-6h-2l2 2-4 3v-5Z"><animate attributeName="fill" dur="0.21s" repeatCount="indefinite" values="#4400ff;#220077;#6a00ff;#4400ff"/></path><animateTransform attributeName="transform" dur="0.2s" repeatCount="indefinite" type="translate" values="0,0;-1,0;1,0;0,0"/></g><g id="Table" class="human"><path fill="#00ffd2" d="m324 257-78 14c52 14 91 51 100 97 7 30-2 56-7 69l1 6 29-64-20-20-85-75 330-76-27 177 18-164-3-18c-84 19-171 37-258 54Z"><animate attributeName="fill" dur="0.28s" repeatCount="indefinite" values="#00ffd2;#00bfa6;#66ffe5;#00ffd2"/></path><animateTransform attributeName="transform" dur="0.25s" repeatCount="indefinite" type="translate" values="0,0;1,0;-1,0;0,0"/></g><g id="Chair"><path fill="#00e0ff" d="M120 426v11h78l2 10-1-3 6-3-5 2-1-6h-40v-2l51-1 2 3h-3l-3 6 2 4-1-7 3-3 2 1-2-4-69 1-3-15-12-1-6 7Z"><animate attributeName="fill" dur="0.35s" repeatCount="indefinite" values="#00e0ff;#004466;#33f0ff;#00e0ff"/><animate attributeName="fill" dur="0.35s" repeatCount="indefinite" values="#00e0ff;#7fffd4;#00e0ff"/></path><path fill="#9aff19" d="m65 368-3 3h-9l-2 6H35l1 2h27l-1 5-12 2v2l11-1 2 2v58-78h2v7l1-5 10 1-1 6H65v69-67l11-2v-7H66l-1-3Z"><animate attributeName="fill" dur="0.21s" repeatCount="indefinite" values="#9aff19;#76ff00;#b6ff4d;#9aff19"/><animate attributeName="fill" dur="0.4s" repeatCount="indefinite" values="#9aff19;#b4ff3b;#9aff19"/></path><path fill="#ff0040" d="m111 164 7 39-5-9-6 16 4-9 8 8-11 13-11-39 8-4-10 7 8 8-11-5 2 18-18-19 29 108-6 8 2-16 6 25-9-1-38-134 38 144 10-13 3 6-8-7-24-121 14 16 12 68-13-81 13 6 8 64-1-44 8-5-6 3-3-50Z"><animate attributeName="fill" dur="0.28s" repeatCount="indefinite" values="#ff0040;#cc0033;#ff3366;#ff0040"/></path><path fill="#40f" d="m48 130 42 218-55 1v11l53 7 3-13-56-4 62 2-19-20-3-28 19 30-42-168 13 11-5-49 36 22-6 12-15-16 15 44v-28l16 5 5-17-15 10 2-13-42-18-4 37-4-36Z"><animate attributeName="fill" dur="0.35s" repeatCount="indefinite" values="#4400ff;#220077;#6a00ff;#4400ff"/></path></g><g id="Frog_Creativity"><path fill="#00ffd2" d="m126 77 23 31-16-3v-5l22 7 45 5 55-6h-87l17-3-42-8 40 1-26-5-18-10 75 20-36 4 24-12-41-11 36-4-71-1Zm56-10 5 8 18 2 2-2 2 2-2 1 5-1 5 4-2 1 2 1-1-1 3-1-3-1 2-2h2l2 4-1-6-2-1-2 2h-7l-3-2h9-5v-2h7l1-2 3 1h-4l-2-3-7-3h-8l-2-2v-3l1 6-1 1-2-2 1 2 2-1 3 2-2 3-3-2-3 3-1-1 2-3-4-3-1 1 1-1 4 4-2 1-2-2 2 2-1 2-5-7h-3 3l5 7-5 2-6-8Zm17-14-1 2 1 2 3 1 4 4h1l1 1-1 1 2-1 2 2h1l-2-1 1-2-2-2 2-2h1l1 1-1 1 4 3-2 1 1 2 3 2-3-2 1-3-4-3 1-1h2l-2-1 2-3 6 4-2 1 2-1 2 1-14-8-2 2 4 4-1 1h-1l-5-5h-3l-2-1ZM0 64l26 1-26 6 13 5-13 8 35 1-14-8 18-14 25 13-9 6 9-2-40 41 55-39 54 23V88l-19-15 11-2-25-9 33 5-14-5 14-6-17-11 13-2-21 6 10 8-28-1 28 22-29-3 31 2 12 13-57-12 12-3-48-14 42 6-31-1 19 9-32-12-27 18 19-17H0Zm245-29 3 2-1 10 1-2 1 11 4-5 5 3 1-3 4 3-2 1 3 1-9 1 1 1-3 3-1-4 4-2h-3l-2 7-5-6 1 4 1-1 3 3 2-1 4 6 1-2 4 4-2 1 4 8-1 2-1-1 5 3-2 5 3 2-3-3 6-2 2-3-4-15-6-12-5-4 1-2 1 1-2-3-2 1 3 1-2 5-3-1 1-2-1 2-1-1 1-4-3 6-2-1-1-15 2-1 5 9 1-5-1 2-4-6-6-1Zm-106-1-3 2 2-1 7 3h-7l2 1-2 2-3-3v25l2-3 3 1-5-2 1-3 13 7-12 1 4 2h-4l4 2-3 2-3-2v-3l1 5h6l-3 3 4-1-2-3 4-2-6-2v-2l11 2 1 5-2 1-2-2 2-2-2 3 4 1v-6l-3-1 3-1V49h-4l4-2v-4h-5l5 1-1 3-2-2v3l-4-5-9-1 5-3h10v2l1-2-12-3v-2Z"><animate attributeName="fill" dur="0.21s" repeatCount="indefinite" values="#00ffd2;#00bfa6;#66ffe5;#00ffd2"/></path><path fill="#00e0ff" d="m153 0 13 17-13-5 1 27 11 2-7-15 13 16-17 1-1 22 31 9-21-7 23-4-16-6 19 3-26-15 28-8 4 28 7-29 41 49 35 14-41-31-29-30 16 4 40 42-25-44 4-16 15 5-13-29-3 25-13-11 12-14h-17l9 26-14 7 6-28-13 14-9-19-1 29 12-5-17 12 3-36-27 17-13-17 30 30-16-2 6 11-27-39ZM34 0l15 11-9 1 5 6 10-6L42 0l33 26-14-10 13 7-3-5 9 1 4 11-7-6 7 6V16l5 1-2 17-31-5 24 14-6-9 11 3-2 5-6-5 11 9 4-5-7-6 7-2 22 11-28-19 3-5 18 15 11-7-19-6v-6H84l-2-9 13 8-11-7 11 2-5-10 4 11L83 0l-5 1 6 6-12-7 9 8-11-8 14 11-11-4 9 11L71 8l9 11-20-2-1-8 15 6L49 0l7 8-22-8ZM0 1l11 13-11 1 46 18-16 2-14-16 11 14-9 7-3-16-15-3 20 9-10 10L0 28v11l10 1-10 2 30 5-5 11L0 48l12 8-12 2 35 5-9-4 5-8v8l54 2-10 3 12-1-6 8 23-3-32-7-5-8 22 5-27-11 20 5-16 1 2 7-33-8 5-12 15 12 5-9 13 3-17-13 3 11-14-6 14 9-19-7 10-8-17-19 5 7H28L17 2l15 15-19-2L8 4l14 6L0 1Z"><animate attributeName="fill" dur="0.28s" repeatCount="indefinite" values="#00e0ff;#004466;#33f0ff;#00e0ff"/><animate attributeName="fill" dur="0.35s" repeatCount="indefinite" values="#00e0ff;#7fffd4;#00e0ff"/></path><path fill="#9aff19" d="M211 86h2l4 5 3-1 7 7 6 4-3 1-6-4 1 2 5 2 18-2-14 1-5-4 5-2-6 2-6-6 2-1 5 3-1 1 1-1 3 1-1-1 1-1 7 2-8-3 5-1 3 2 1-6-1 1-1-2v2l2 2-2 2-11-3-3-2 1-1-3 1h2l1 1-3 2-2-1-3 3-4-5h-2Z"><animate attributeName="fill" dur="0.35s" repeatCount="indefinite" values="#9aff19;#76ff00;#b6ff4d;#9aff19"/><animate attributeName="fill" dur="0.4s" repeatCount="indefinite" values="#9aff19;#b4ff3b;#9aff19"/></path></g><rect width="100%" height="100%" fill="#ff0040" opacity=".1"><animate attributeName="fill" dur="0.21s" repeatCount="indefinite" values="#ff0040;#cc0033;#ff3366;#ff0040"/></rect><rect width="100%" height="100%" fill="url(#scanlines)" opacity=".2"/><rect width="100%" height="100%" fill="url(#scanlines)" opacity=".2"/>

<text x="10" y="440" class="frogExe">FROG//EXE</text>
</svg>