<svg xmlns="http://www.w3.org/2000/svg" width="448" height="536" version="1.0" viewBox="0 0 336 402"><path d="M0 201v201h336V0H0zM98.1 75.6a332 332 0 0 1 46.3 19.6c50.2 25.1 83.1 53.4 110.1 94.4l8.8 12.9c2.3 2.5-5.2-11-10.9-19.5a279 279 0 0 0-72.2-72.5 35 35 0 0 1-7.8-6.2c.7-.7 12.3 5.8 21.1 11.7a216 216 0 0 1 71.5 75.3c2.2 4 4 6.7 4 6 0-2.1-5.2-15.6-9.1-23.7-6.4-13.1-4.6-11.2 8 8.4q7 11-.4-6.2c-5.9-13.7-17.4-31-29.2-43.9-9.5-10.4-10.2-11.6-3.1-5.5a166 166 0 0 1 36.9 49.1c2.4 5.2 4.6 9.5 4.9 9.5s1.2-1.3 2.2-2.9c5.3-9.4 20-6.7 22.9 4.2 1.5 5.7.6 11.7-3.6 24.4-6.1 18.2-16.3 35.9-24.6 42.5-4.2 3.4-11 4.8-13.4 2.8-2.3-1.9-3.1-.6-6.6 10a226 226 0 0 1-22.1 50.8c-4.4 6.4-11.8 10.7-28.6 16.6-8.3 3-16.3 6.3-17.9 7.4-5.2 3.7-16.6 9-23.3 10.8a80 80 0 0 1-33 .1c-13.9-3.7-19.7-7.8-32.5-23.1a87 87 0 0 0-10.2-9.6c-3.4-2.7-7.4-7-8.8-9.4Q73 302 68 264c-1.2-9.1-2.8-20.8-3.7-26a136 136 0 0 1-.9-41.3c2-8.6 2-15.8 0-24.4-2.4-9.9-2.2-26.3.5-40.8 4.5-25.2 11.5-47.4 17.6-56.7 1.4-2.1 2.7-3.8 2.9-3.8z"/><path d="M118.4 238c-7.2.9-13.1 2.7-12.1 3.6.3.3 3.9-.2 8.1-1 9.5-2 26.9-2 36.1-.1 8.2 1.7 8.5 1.8 8.5.6 0-2.6-27.7-4.7-40.6-3.1"/><path d="M114.3 242.2c-2.9.5-5.3 1.3-5.3 1.7 0 1.5 5.2 3.3 6.4 2.1.5-.5 1.5-1 2.1-1 .5.1 3.9 6.1 7.5 13.5a71 71 0 0 0 7.6 13.5c.6 0 4-6.1 7.5-13.5a67 67 0 0 1 7.4-13.5c.6 0 1.6.5 2.1 1q1.1 1.2 3.7-.1c5.1-2.3 3.1-3.3-8.6-4.5-6.2-.6-7-.5-9.2 1.6l-2.5 2.4-3-2.2c-3.2-2.4-6.9-2.6-15.7-1"/></svg>