<svg xmlns="http://www.w3.org/2000/svg" xmlns:xlink="http://www.w3.org/1999/xlink" id="a" viewBox="0 0 1024.8 1280.5"><defs><style>:root{--hue-offset:0deg}#hueLayer{animation:hueAnim 20s infinite;animation-timing-function:cubic-bezier(.25,.1,.25,1);filter:hue-rotate(var(--hue-offset))}@keyframes hueAnim{0%{filter:hue-rotate(0deg)}20%{filter:hue-rotate(90deg)}40%{filter:hue-rotate(180deg)}60%{filter:hue-rotate(270deg)}80%{filter:hue-rotate(360deg)}100%{filter:hue-rotate(360deg)}}#desatLayer{animation:desatAnim 60s infinite;animation-timing-function:cubic-bezier(.25,.1,.25,1)}@keyframes desatAnim{0%{filter:saturate(1)}15%{filter:saturate(.8)}30%{filter:saturate(.6)}45%{filter:saturate(.4)}55%{filter:saturate(.2)}65%{filter:saturate(0)}75%{filter:saturate(.2)}85%{filter:saturate(.4)}95%{filter:saturate(.6)}100%{filter:saturate(1)}}#greyUse{opacity:0;animation:greyAnim 60s infinite;animation-timing-function:cubic-bezier(.25,.1,.25,1)}@keyframes greyAnim{0%{opacity:0}30%{opacity:0}55%{opacity:.2}65%{opacity:1}75%{opacity:.5}95%{opacity:0}100%{opacity:0}}#grainRect{animation:grainAnim 60s infinite}@keyframes grainAnim{0%{opacity:.3}30%{opacity:.3}55%{opacity:.4}65%{opacity:.6}75%{opacity:.5}100%{opacity:.3}}</style><filter id="hueAccent" x="0" y="0" width="100%" height="100%"><feBlend in="SourceGraphic" in2="background" mode="screen" result="temp"/><feComponentTransfer><feFuncA type="table" tableValues="0 0.1 0.2 0.3 0.4 0.5 0.6 0.5 0.4 0.3 0.2 0.1 0"/></feComponentTransfer></filter><filter id="grain" filterUnits="userSpaceOnUse" x="0" y="0" width="1024.8" height="1280.5"><feTurbulence type="fractalNoise" baseFrequency="1.05" numOctaves="2" seed="7" amplitude="0.05" result="n"><animate attributeName="seed" values="7;13;3;17;9;7" dur=".42s" repeatCount="indefinite"/></feTurbulence><feColorMatrix in="n" type="matrix" values="1 0 0 0 0 0 1 0 0 0 0 0 1 0 0 0 0 0 2 -.5" result="g"/><feBlend in="SourceGraphic" in2="g" mode="soft-light"/></filter><filter id="grayBeat" filterUnits="userSpaceOnUse" x="0" y="0" width="1024.8" height="1280.5"><feColorMatrix in="SourceGraphic" type="matrix" values=".2126 .7152 .0722 0 0 .2126 .7152 .0722 0 0 .2126 .7152 .0722 0 0 0 0 0 0.9 0"><animate attributeName="values" values=".2126 .7152 .0722 0 0 .2126 .7152 .0722 0 0 .2126 .7152 .0722 0 0 0 0 0 0.9 0; .2126 .7152 .0722 0 0 .2126 .7152 .0722 0 0 .2126 .7152 .0722 0 0 0 0 0 1 0; .2126 .7152 .0722 0 0 .2126 .7152 .0722 0 0 .2126 .7152 .0722 0 0 0 0 0 0.9 0" keyTimes="0;0.65;1" dur="60s" repeatCount="indefinite"/></feColorMatrix></filter><filter id="bgTexture" filterUnits="userSpaceOnUse" x="0" y="0" width="1024.8" height="1280.5"><feTurbulence type="fractalNoise" baseFrequency="0.1" numOctaves="1" seed="5" amplitude="0.02" result="noise"/><feBlend in="SourceGraphic" in2="noise" mode="overlay" in2-opacity="0.1"/></filter></defs><g id="hueLayer" filter="url(#hueAccent)"><g id="desatLayer"><g id="art"><g id="b" filter="url(#bgTexture)"><rect width="1024.8" height="1280.5" fill="red"/></g><path d="M782.1 397.9c1.4 0 1.3 22.4 8.9 52.3 2.7 10.7 10.8 39.5 28 67.6 6.3 10.4 48.5 77.9 126.5 101.7 27.1 8.3 44.1 6.9 46.2 16 5.9 26.1-97.7 68.2-90.1 96.4 5.5 20.4 64.4 10.7 76.3 38.8 6.4 15.2-3.6 35.2-24.3 61.5-42.4 54.1-89.1 113.6-177.1 131-20.9 4.1-150.4 29.2-209.9-55.8-32.8-46.9-38-124.1-3.7-165 59.6-70.9 189.6-6.1 228.1-69.6 13.9-23 4.4-33.7-8.9-156.9-7.1-65.6-2.1-118 0-118.1z" fill="#87dd91"/><g id="c"><path d="M807.7 1257.9c-3.8-14.1-16.8-64.1-10.2-114.9 4.2-31.9 14.4-51.1 25.5-76.8 16.5-38.1 36.5-94.5 49.7-171-42.8 42.6-106.5 92.8-193.6 118.9-87.3 26.2-177.1 22.1-179.5 43.5-1.9 17.3 55.4 18.8 77.4 66.1 20.6 44.2-1.5 102.8-7.9 119.7-5.9 15.7-12.7 28.1-18 36.7h263.2c-1.7-5.1-4.2-12.7-6.7-22.1z" fill="#006d00"/></g><g id="d"><path d="M991.9 769.8c5.6 3.5 2.5 21.1 0 35-3.9 21.5-10.2 27.9-14 42.1-8.6 32.1 9.8 46.4 7.6 71.2-4.2 48.3-83.9 53.5-140.3 120.3-28.2 33.4-40.8 70.6-47 99.8 7.8-117.4 45.6-196.5 74.5-243 41.2-66.4 106-133.6 119.2-125.3z" fill="#229f50"/></g><g id="e"><path d="M372.8 857.4c.6 14.3 3.7 62.9 31.6 115.3 9 16.9 19.2 36.1 38.2 53.4 44.2 40.2 103.2 40.1 132.9 40 21.1 0 151.3-2.8 220.9-105.6 22.9-33.9 31.8-67.6 35.6-89.8-22.1 23.2-64.1 61.2-127.8 84.9-36.4 13.6-95.7 35.7-164.6 15.8-68.1-19.7-134-77.1-147.2-146.8-13.1-69.1 29.8-127.8 27.6-128.6-2.4-.9-50.7 67.3-47 161.4z" fill="#d30965"/></g><g id="f"><path d="M393.1 948.9c50.5 30.5 86.5 62.5 109.7 85.8 47.3 47.5 82.2 81.7 88 134.3 5.6 51.2-16.8 92.6-28.7 111.1-45.8.2-91.7.4-137.5.5-10.5-110.6-21-221.1-31.4-331.7z" fill="#7a0334"/></g><g id="g"><path d="M442.5 700.5c-1.2-1.2-22.9 13-40.2 40.3-12 19-35.7 66.2-14.5 177.3 12.4 65.1 24.9 86 43.2 137.1 17.3 48.2 33 121.3 19.4 224.8h-146.8c-3.3-34.7-8-85-13.3-145.9-9.7-111.6-14.5-167.9-12.1-186.9 18.7-148 167.6-243.7 164.4-246.7z" fill="#401d2a"/></g><g id="h"><path d="M428.9 946.4c23.9 49.8 103.7 74.8 161.9 66.4 49.8-7.2 67.5-37.4 141.2-42.5 19-1.3 33.4-.4 50.2-9.7 32.2-18 44.5-57.9 49.8-89.8-6.1 6.5-15 15-27.1 23.1-60 40.2-155.9 43.2-197.2 1.3-54.9-55.6 4.4-164.6-24.8-178.4-37.8-17.9-198.4 137-153.9 229.7z" fill="#748e66"/></g><g id="i"><path d="M807.7 769.5c5 4.9 13 11.7 24.1 16.8 13.5 6.2 25.2 7.1 61.9 5.7 43.8-1.7 61.9-4.3 79.3-8.2 22.5-5.1 32.5-9.8 38.8-19.3.8-1.3 8.8-13.7 4.9-28.3-4.6-17-22.3-25.9-35.6-27.5-12-1.5-20 3-42.1 14.6-30.4 15.9-48.7 25.5-60.9 30.8-15.2 6.6-38.4 14.2-70.5 15.6z" fill="#9b2626"/></g><g id="j"><path d="M807.7 769.5c.1.8 25.4.9 56.6-8.3 16.2-4.8 28.1-10.7 51.3-22.4 43.5-21.9 65.4-33.2 73.6-50.4 9.2-19.3 6-38.9 4.9-43.7-1.7-7.7-2.7-11.5-5.8-12.9-5.9-2.7-15.2 5.1-35.6 25.9-15.8 16.1-26.7 28.2-39.6 42.4-19 20.7-27.8 30-41.3 41-12.7 10.4-19.7 14.2-21.8 15.4-22.6 12.1-42.4 12.4-42.3 13.1z" fill="#ff7878"/></g><g id="k"><path d="M789 403.6c-7.9 37.6-4 66.2 2.4 87 9.1 29.4 20.5 33.9 29.1 65.9 3.9 14.4 13.1 48.6 0 85.1-14.1 39.2-46.2 59.5-58 66.8-40.8 25-64.5 13.3-144.9 27.6-56.2 10.1-87.6 15.3-114.9 33.8-18.3 12.4-68.7 53.7-73.9 176.6-28.6-56.6-56.7-136.2-26.6-205.6 26.4-60.9 83-80.5 164.3-134.5 59.2-39.3 139.5-102.2 222.4-202.7z" fill="#62af47"/></g><g id="l"><path d="M705.3 446.1c8.9 7 3.2 14.9 20.6 59.5 14.7 37.7 23 42.9 25.5 65.5 1.3 11.5 2 35.9-10.9 60.2-18.7 35.3-54.1 47.5-69.2 52.8-56.6 19.6-107-2.1-121.3-8.6-25.2-11.3-61.9-27.8-69.2-57-19.4-78.1 181.8-206.1 224.5-172.3z" fill="#44232d"/></g><g id="m"><path d="M683.4 505.5c1.5 10.7 4.6 24.8 11.3 40.3 7.8 18.2 17.7 31.7 25.3 40.6-12 5.4-29 11.4-50.2 13.7-35.1 3.8-63.2-4.5-78.3-10.3 30.6-28.1 61.2-56.2 91.8-84.4z" fill="#68c151"/></g><path d="M715.4 580.7c3.5 1.4 8.9 3.5 15.5 5.8 12.6 4.3 21.3 6.1 21.1 7-.3 1.5-19.2-1.5-19.5 0-.3 1.6 19.7 6.5 19.5 7.7-.3 1.3-24.1-4.6-26 0-1.5 3.8 13 12.5 11.9 14.4-1.5 2.5-26.5-11.3-29.7-7-2.4 3.2 8.8 15 7.6 16.2-1.6 1.5-18.1-17.6-24.8-14-5.5 2.9-.9 19.2-4.9 20.5-4.4 1.4-12.7-18.1-17.3-16.7-5 1.5-.7 26-4.9 27.1-4.2 1.1-11.5-22.7-17.3-21.7-5.7 1-5.4 25.8-8.6 25.9-3.1 0-3.7-23.4-10.8-24.8-7.4-1.4-16.5 22.3-21.6 20.6-4.1-1.3.2-17.2-5.2-20.1-4.6-2.5-14.2 5.6-24.5 16.6 0-5.1.5-16.6 7.6-28.5 5.3-8.8 11.9-14.1 16-16.9 10.7 2 23.1 3.4 36.9 3.4 33.4 0 60.6-8.1 78.9-15.5z" fill="#000c27"/><g id="o"><path d="M0 903.7c12 28.1 30.9 70.9 55.7 122.8 24.3 50.8 33.4 66.7 46.5 96.7 15.6 35.5 35.6 88 51.1 156.8H.1c0-125.4 0-250.9-.1-376.3z" fill="#008346"/></g><g id="p"><path d="M153.2 1280c-28.3-43.3-58.3-95.5-86-156.4C35.6 1053.9 14.5 989.3.1 933.9c0-135.5 0-271-.1-406.5 59.1 27.1 148.6 79.1 221.3 175.3 181.6 240.3 94 539.5 82.3 577.4h-150.4z" fill="#306f3b"/></g><g id="q"><path d="M274.2 995.8c6.6-28 17.3-65.6 35.5-108 11.9-27.7 31.5-73.6 66.7-118.8 17.1-21.9 36-41.3 123.1-105.7 118-87.3 118-77.4 163.2-117.5 39.6-35.1 68.4-70.8 126.2-142.2 80.6-99.7 77.3-112.7 74-117.2-9.3-12.8-51.9-4.1-80.9 18.5-33.5 26.2-34.4 59.8-52.6 99.9-18.7 41.2-51.5 68.3-117.2 122.6-18.9 15.6-38.6 29.5-78 57.3-86.3 60.9-89.5 57-115.6 78.6-73.8 61-104.4 139.8-116.2 171.1-24.8 65.6-28.7 124.1-28.2 161.4z" fill="#0b3919"/></g><g id="r"><path d="M363.1 603.8c14 7.7 18.2 26.1 20.6 36.7 6.1 26.8-3.6 49.3-15.2 75-17.6 39.1-26.7 45.4-43.1 76.4-5.8 11-33.9 65.8-41.3 137.5-3.4 32.6-1.3 57.1 0 72.4 5.8 70.1 12 160 19.4 278.2h-114.1c22.1-23.3 54.2-63.8 71.6-121.6 22.4-74.3 13.8-154.6 0-156.5-21.9-3.1-68.6 189.9-75.2 188.1-2.6-.7 10.3-29.3 0-63.1-7.8-25.6-22.3-30.3-29.6-57-5.3-19.4-2.6-34.7 0-52.2 9.6-64.7-.6-39.3 12.6-135.9 8.2-60 12.5-90.5 23.1-120.1 6.8-19.2 15.5-43.6 34-70.4 36.6-53.2 104.2-105.5 137.1-87.4z" fill="#008c00"/></g><g id="s"><path d="M782.1 304.9c-6.6 18.9-17 44.8-33.2 73.9-9.7 17.4-19.7 33-30.1 47.2-32.9 45.3-67.7 76.2-91.3 96.5-74 63.6-145.9 117.6-185.1 146.4 27-39.8 40.3-76.6 44.6-99.4 2.9-15.4 4.2-37.8 3.6-50.2-.8-15.1-3-24.6-3.6-28.7-6.7-47.1 103.6-117.5 217.4-160.6 32.1-12.2 59.3-20.2 77.7-25.1z" fill="#004615"/></g><g id="t"><path d="M336.8 768.9c7.3-7.7 19.3-20.3 34.8-35.2 57.1-55 79.8-63.7 97.5-100.3 3.9-8.1 8.1-23.8 16.4-55 14.7-55 22-82.4 14.1-87.7-14-9.4-45.5 49.2-114.7 87.7-8 4.4-29.8 16.1-29.1 30.3.3 7.5 6.7 10.6 12.1 18.2 12.5 17.7 6.7 41.4 0 69.1-4.2 17.4-12.7 43.7-31.2 72.8z" fill="#229f50"/></g><g id="u"><path d="M467.7 134.5c6.2-.8 16-2.5 27-7 41.4-17 51.8-53.3 76-75.7 18.2-16.8 51.7-32.8 119.2-24.1-15 9.6-35.9 25.3-54.6 49.7-33.4 43.5-26.8 71.6-56.5 90-24.9 15.4-63.5 16.8-89-2.7-12.6-9.6-18.9-22.1-22.1-30.2z" fill="#4fe19e"/></g><g id="w"><path d="M553.5 172.8c-2.7-3-2-7.4-2.2-17.8-.3-25.7 11.1-45 18.9-57.7 10.9-17.9 29.4-48.2 67.4-62.6 21.6-8.1 41-8 52.3-7-11 4.7-24.3 12.1-36.8 24.1-41.2 39.6-39.3 96.3-38.7 108.2-5.6 3-49.1 26-61 12.8z" fill="#3ba738"/></g><g id="x"><path d="M898.2 222.1c2.3-8.5-2.7-17.3-6.8-22.9-181.9-33.7-290.1-42.2-356.8-43.1-15.3-.2-34.5 0-75.2-.8-159.9-2.8-163.8-9.8-193.3-1.6-58.9 16.4-93.4 58.1-153.7 131.1-43.2 52.3-68.4 82.8-79.3 132.7-1 4.7-24.7 120.5 36.4 177.2 72.7 67.4 227.2 16.3 313.1-33.2 126.7-73 169-180.1 298.5-253.2 53.6-30.3 81.3-43.8 112.4-51.8 50.5-13 98.8-12.6 104.7-34.2z" fill="#009151"/></g><g id="z"><path d="M894.8 198.9c-26.7-32.2-149.3 24.6-172.2 35.2-39.8 18.5-94.5 48.5-153.4 97.8-232.9 166.9-248.8 181.4-285.5 177.4-62.1-6.6-101.6-57.2-147.8-33.6-21 10.8-30.6 30.4-36.7 42.7-24.3 49.6-16.2 121.9 31.7 162 33.9 28.4 76.8 25.3 82.4 24.9 35.4-3 53.6-23.1 113.3-71.2 59.6-48.1 99.9-80.9 125.4-101.1 22.4-17.8 56.5-42.6 123.8-91.4 112.8-81.8 216.4-154.9 262.9-140 3.5 1.1 18.6 6.5 34 .8 10.1-3.7 26.2-14.6 25.4-30.7-.7-14.1-13.9-27.4-32.1-29.2 3 .2 12.6 .5 22-6 8.1-5.5 11.4-12.9 12.6-15.8 0 0 2.9-11.3-5.8-21.8z" fill="#ff6700"/></g><g id="ab"><path d="M130.1 678.7c-9-14-26.9-46.6-23.4-88.8 1.2-14.4 4.5-54.2 28.3-64.9 21-9.5 37.6 12.9 80 18.5 29.4 3.9 52-2.7 75.3-9.6 71.1-21 110.6-64.9 215.2-151.3 19.6-16.2 51.2-41.9 91.6-72.8-30.3 14.1-56.6 23.8-76.5 30.3-24.4 8-55.4 18.4-97.4 23.4-27.7 3.3-47.2 5.6-73.6 1.8-24.8-3.5-35.7-4.9-75.4-16.6-9.9-2.9-24.3-6-41.8-5.8-61.7 .7-103.6 42.5-113.7 52.6-59.6 59.5-55.7 139-55 148.9 5.1 77.9 55.7 124.9 66.3 134.3z" fill="#76d46a"/></g><g id="ac"><path d="M172.6 607.5c-3.2-2.5-11.7-9.5-21.3-7.1-.8 .2-9.3 2.4-11.5 9.5-1.6 5.4 1.1 10.3 2.4 12.5 5.5 9.6 16.6 13.5 25.3 15.7 29.3 7.2 56.9 .3 58.2 0 24.6-6.4 45.5-17.3 153.6-95.9h0c68.2-49.6 111.2-91.2 132.9-111.1 0 0 112.2-103.1 239.9-156.6 30.9-13 51.2-18 51.2-18 3.5-.9 8.5-2 15.8-3.7 5.6-1.3 16.2-3.7 29.7-6.6 4.6-1 10.5-2.2 17.4-3.7-7.3 0-17.1 .4-28.7 1.6-2.5 .2-31.1 3-61.1 11.7-24.5 7.1-57.9 20.4-112.1 52.3-11.3 6.7-48 28.6-93.1 62.3-48.8 36.4-62.4 50.6-140 115.7 0 0-63.5 53.3-154.1 111.6-26.5 17.1-78.1 41.8-91 27.9-3.6-3.9-4.4-11-13.3-18.2z" fill="#003900"/><path d="M866 242.6c18.6 1.2 33.5-10.5 35.2-23.8 1.2-9-3.5-18.5-10.3-23.9-5.9-4.6-12.1-5.4-18.7-6.2-7.6-.9-13.6-.1-26.6 2.3-13.7 2.6-20.5 3.9-28.6 6-19.3 5-38.2 9.9-63 19.3-25.7 9.7-45.5 19.5-64.2 29.3-55 28.8-75.1 43.9-103.1 59.3-5.2 2.9-87.7 47.8-184.3 55-72.4 5.4-125.7-10.5-124-9.9 47.9 15.4 87.6 17.4 113.3 16.7 51.9-1.4 93.1-14.9 135.8-29 28.1-9.2 50.7-18.6 66.2-25.4 13.9-10.3 32.5-23.4 55.3-37.5 34.8-21.6 62.9-35.5 73.6-40.6 0 0 55.6-26.8 133.5-40.7 3.9-.7 13.6-2.3 23.7 2 2.5 1.1 8.2 3.5 12.7 9.5 .9 1.2 6.6 9.2 5.6 17.1-1.2 10.2-14.3 20.1-32.1 20.5z" fill="#49660a"/></g><g id="ad"><path d="M173.1 253.1c8.6 13.2 22.1 31.1 42.2 48.5 15 13 39.1 34 74.4 42.6 61.3 15 112.8-15.7 130-25.9 18.1-10.7 44.6-25.8 62.6-57.7 3.1-5.6 13.9-25.7 16.7-54.5 .6-6.5 4.1-47.3-17.3-84.1-31.9-55-108.8-83-162.9-64.7-45.9 15.5-34.5 50.6-114.9 121.3-39.9 35.1-52.8 35.4-87.9 72.3-37.1 39-58.4 76.3-66.9 92.2C38.1 363.9 2.3 435.3 .1 534.9c-.7 32 2.1 61.5 9.2 99.6 11.7 63.7 37.9 166.5 103 295 31.8-61.8 62.3-148 30.7-226.5-16-39.8-32.2-38.2-58.2-89.7-34.6-68.4-60.8-179.6-15.1-255.5 20.9-34.7 61.3-71.2 63.6-73.3 15.6-14 29.7-24.4 39.8-31.3z" fill="#000b23"/><path d="M723.3 171.7c2.5-6.7 4.9-14.5 6.6-23.5 3.2-16.5 3-31.1 2-42.1-11 10.7-45.5 41.2-91.3 38.4-7.9-.5-15.3-1.9-22-3.9-.2-11.6 1.1-27.2 7.8-43.8 18.4-45.2 65-66.7 63.4-69.2-.9-1.4-15.5 5.9-28.3 15.5-24.3 18.3-35.2 40.3-37.2 44.5-15.3 31.6-11.8 61.1-9.9 72.3 20 2.1 40 4.3 59.9 6.4 16.3 1.8 32.7 3.5 49 5.3z" fill="#060b17"/></g><g id="ae"><path d="M205.3 214.3c6.7 6.3 16.4 15.3 28.3 25.9 26.3 23.4 39.5 35.1 51 41.3 30 16.1 60.1 14.4 68 13.8 13-1 54-6.5 81.7-40.3 6.3-7.7 18.8-23.5 21-47 2.3-24.7-8.1-43.1-12.9-51.8-14.2-25.2-35.2-37.4-44.5-42.1-27-13.5-51.7-11.4-60.7-10.5-45.1 4.4-74.4 34.4-91.4 51.8-11.6 11.9-27.6 31.1-40.4 59.1z" fill="#407d34"/><path d="M618.4 140.7c5.1 1.8 12.9 4.1 22.7 5.3 8.5 1 46.9 5.6 75-19.5 4.2-3.8 10.4-10.2 15.8-20.2-.4-2.2-.8-4.4-1.2-6.6-6.8 6.9-16.1 14.7-28.3 21.1-35.3 18.6-70.4 13.3-83.7 10.6l-.3 9.4z" fill="#407d34"/></g><g id="af"><path d="M208.4 207.9c24.2 18.9 46.9 30.6 64.1 37.9 18.7 8 31.7 13.5 50.2 14.6 33.7 2 59.3-12.3 70.4-18.6 35.3-20.2 52.4-50.3 59.1-63.9-2.5-9.6-8.2-26-21.8-41.3-30.1-33.8-73.6-33.8-81.5-33.8-41.5 0-70.1 22.8-87.4 36.7-30.2 24.2-45.7 52.4-53 68.5z" fill="#a1b742"/><path d="M618.7 131.3c.1-5.7 .8-13.5 3-22.6 3.9-15.6 10.4-26.2 13.6-31.3 17.2-27.8 45.9-44.8 54.6-49.7 7.8 7.1 18.5 18.5 27.5 35.1 7.7 14.2 11.4 27.3 13.4 36.9-3.5 3.9-9 9.4-16.6 14.8-25 17.8-51.2 19.5-61.1 20-8.2 .4-20.1 .2-34.4-3.1z" fill="#a1b742"/></g><g id="ag"><path d="M249.8 210.2c10.2 2.3 24 4.8 40.5 5.7 26.7 1.4 46.6-2 51-2.8 12-2.2 27.6-5 45.3-13.9 11-5.5 30.2-17.1 47.7-39.9-9.3-4-22.5-8.6-38.8-11.1-24-3.7-42.6-.9-47.7 0-8.1 1.3-34.2 6.4-61.5 25.7-17 12-28.7 25.6-36.4 36.4z" fill="#060b17"/><path d="M623.6 113.8c1.7-3.1 18.1-31.3 51.9-35.5 28.1-3.5 48.2 11.9 51.9 14.9-10.3 5.8-24.4 12.4-41.9 16.8-25.6 6.4-47.6 5.6-62 3.9z" fill="#060b17"/></g><path d="M91.8 265c-.8-1.4 3.3-6 46.4-37.8 24.8-18.3 23.4-16.7 26.4-19.4 19.4-17.5 20.1-30.6 38.3-63.6 9.3-16.9 23.4-41.9 48-66.3 11-10.9 22.6-22.2 41.5-31.8 28.1-14.2 54.1-15.2 65.3-15.1 4.1 0 43.1 1 77.9 24.5 68.1 46 64.3 140.2 64 145.6-3.5-6.5-8.3-15.1-14.9-24.8-3.5-5.2-17.3-25.3-36.4-43.4-14.5-13.8-40-38.8-70.7-45.4-53.6-11.5-109.4 27.4-138.5 60.7-42.8 49-47.1 108-79.3 109.8-9.4.5-24.3-3.6-48 2.2-11.7 2.8-19 6.5-20 4.9z" fill="#3ba738"/></g><use xlink:href="#art"/><use id="greyUse" xlink:href="#art" filter="url(#grayBeat)"/></g></g><rect id="grainRect" x="0" y="0" width="1024.8" height="1280.5" fill="#000" fill-opacity="0" filter="url(#grain)" opacity=".3"/></svg>