<svg xmlns="http://www.w3.org/2000/svg" xml:space="preserve" width="400" height="560" style="shape-rendering:geometricPrecision;text-rendering:geometricPrecision;image-rendering:optimizeQuality;fill-rule:evenodd;clip-rule:evenodd">
	<defs>
		<style>.fil2{fill:#57873d}.fil3{fill:#b90101}.fil4{fill:#fff}</style>
	</defs>
	<g id="Layer_x0020_1">
		<path d="M0 0h400v560H0z" style="stroke:#000;stroke-width:2.08;stroke-miterlimit:2.61313;fill:#000"/>
		<g id="_2803726183984">
			<path d="M343 541h11c-4-32-18-75-29-105q-5-12-13-23c-14-18-38-29-59-38-6-3-9 26-30 38-28 16-49 6-75 0 1 2 10 7 12 8q58 28 96-21c13 1-16 45-16 45 10 0 28-24 32-17 10 15 29 74 29 74l1-14c0-10-5-59-2-60 12 10 41 95 43 113" style="fill:#9a7b8d"/>
			<path d="M149 64c17 5 21-1 40 13 7 6 21 24 20 34-2 2-27-1-33 2 2 5 47 22 43 28l-25 7c0 2 51 6 55 2 1-2-2-10-3-12-3-7-13-14-14-15-2-4 2-10-3-21-24-55-80-44-80-38" class="fil2"/>
			<path d="M150 299c29-19 65-15 97-7l40 7c13 0 30 0 42 4 12 3 17-10 12-16-6-7-16-3-23-2-48 9-97-26-148-5-6 3-26 15-24 20q2 2 4-1" class="fil3"/>
			<path d="m243 74 4 1c18 4 41 28 40 45-3 2-12 3-16 4 2 3 34 19 34 20 1 3-15 3-18 6l29 2c8 2 29 13 24 5l-5-8c-7-10-28-22-30-25-7-11-6-42-32-50-5-2-29-5-30 0m57 159c0 1 8 15 5 15 1-2-38-31-37-25l21 18q12 15 15 35v4l31-2c5 0-3-29-6-34-12-20-6-14-16-11z" class="fil2"/>
			<path d="m170 309 37-3q54 7 107 18c12 2 25-16 3-17-26-1-47-2-74-5-19-2-40-8-58-1-3 0-15 5-15 8" class="fil3"/>
			<path d="M311 180h-5q-2 0-1 1l1 1q7 8 3 18l-9 10a75 75 0 0 0 26-2l4-2 5-4 4-6h1l1-7q-1-3-4-4-12-5-26-5m-91 6 1 10-4 6-3 3-2 3h5l15-3q6-2 11-7c2-5 5-13 0-18l-4-2-21 1h-1z" class="fil4"/>
			<path d="M293 170c6 1 20 0 29 2 6 1 25 9 24 7 13-11-50-26-53-9m-15 186c8-5 20-14 24-22v-3l-9 6c-23 19-40 28-70 33h-3c10 6 48-8 58-14m-79-185 8-1c14-1 23 0 38 2 8 1 5-12 0-13-9-2-41 6-46 12m-30 30c2 12 44 21 58 17 4-1 16-6 16-10l-2-1q-6 4-11 4c-13 4-34 4-46-2z" class="fil2"/>
			<path d="m283 215 7 3a58 58 0 0 0 35 2l1-1q6-1 8-6l2-3 1-1-5 2-6 3c-7 2-21 3-28 1l-14-1h-1zm-79 25h3l7-3h1v-1l9-7 1-1q-5 0-9 4l-10 7z" class="fil2" style="stroke:#57873d;stroke-width:.9;stroke-miterlimit:2.61313"/>
			<path d="M260 155c3-1 4-20-3-22 4 9 3 19 3 22" class="fil2"/>
			<path d="M275 190h-1l-1 2q0 6 4 9h1l-1-2-2-6zm-91 7 3 2c4 2 1-3 1-4q-2-3-3 0z" class="fil4"/>
		</g>
	</g>
</svg>