<svg xmlns="http://www.w3.org/2000/svg" xml:space="preserve" id="Layer_1" width="400" height="560" x="0" y="0" version="1.1"><style>.st3{fill:#998c00}.st5{fill:#034f08}.st6{fill:#780c00}</style><path d="M0 0h400v560H0z" style="fill:#5cad5f"/><path d="M145.1 295.4c.4-3 2.3-8.7 3.3-11.5s3.2-8.2 4.5-10.8c1-2.2 3-6.7 4.6-8.5a8 8 0 0 1 3-2c1-.5 3.3-.5 4-1.1 1.9-1.5 2.6-6.4 3.5-8.5s3.1-5.8 4.8-7.3a38 38 0 0 1 10.5-6.6c2.2-.7 7-1.3 9.4-1 2.2.3 6.5 1.6 8.5 2.5 2 1 7.3 4.6 7.3 4.6s4.4-2.7 6-3.4a29 29 0 0 1 12.2-1.8c1.8.4 5.3 1.8 6.7 3 1.4 1 3.8 3.7 4.6 5.2.6 1.3 1.6 5.5 1.6 5.5s4.3 1 5.7 1.5a11 11 0 0 1 4.3 3.3c.2.3 5.8 4.7 5.4 8.7-.5 4-4.1 8-5.4 8.8-.8.6-1.1 2.6-1.7 3.3-.7.9-3 1.8-4 2.3-.7.3-2.7.7-2.8 1.5-.2 1 2.4 2.5 3.4 3.2s2.6 2.5 3.1 3.5.8 2.7 1 3.6 0 2.7.6 3.4c.3.3 1.5.1 1.9.4.4.2.7 1.3.7 1.7 0 .5-.2 1.6-.5 2-.4.7-1.7 1.6-2.4 2-.8.4-3 .7-3.2 1.6 0 .5 1.3 1.1 1.6 1.6a4 4 0 0 1 0 1.9c-.4.6-1.4 1.7-2 2-.8.6-2.5 1.3-3.4 1.4-1 .2-3.2-.3-4.2.1-.8.4-1.7 2-2.4 2.7a30 30 0 0 1-6.7 3.5l-6.7 2.2a108 108 0 0 1-15 2 165 165 0 0 1-31.4-2.2c-4.2-.9-12.3-3.2-16.3-4.6-2.6-1-8-2.4-10-4.2a19 19 0 0 1-3.9-7.7 34 34 0 0 1-.2-7.8" style="fill:#3c7338"/><path d="M246.7 299.7a53 53 0 0 1-29.1 3.3l-7-1.1-6.8-1.3-7.1-1.6c-1.7-.4-5.1-1.2-6.9-1.3-1.3-.2-4-.3-5.2 0s-3.7.8-4.6 1.6c-1 .8-2.3 3.2-2.6 4.5-.2 1-.5 3.2-.1 4.1a7 7 0 0 0 3.3 2.8c1.7.4 5.1-.5 6.8-.5 2.1-.1 6.3.7 8.3 1l6.7 1.2 7.2 1 6 1.3c2 .3 6.1.6 8.1.6 1.9 0 5.6-.5 7.5-.5l5.5.3c1.2 0 3.5 0 4.6-.2.8-.2 2.3-.6 3-1 .5-.4 1.7-1.4 2.1-2 .4-.5 1.1-1.6 1-2.3 0-.8-1.7-2-1.6-2.7.2-.6 1.5-.8 2-1 .7-.3 1.9-1.2 2.4-1.7l1.3-1.6c.2-.5.3-1.6.1-2.1-.2-.7-.6-2-1.2-2.3q-.6 0-1.4.3c-.6.2-1.7.9-2.3 1.2" style="fill:#b81d06"/><path d="M138.3 89.1s9.8 26 12.6 34.9c2.3 7 8 28.8 8 28.8s30.4-7.7 40.7-7.7c10 0 39.8 7.2 39.8 7.2s5.6-23.3 8-30.8c2.7-8.4 12.5-32.5 12.5-32.5s-15.3 20.5-21.4 25.4c-3.3 2.7-11.2 5.6-15 4.9-4.2-.7-11.6-8.4-14.4-12.9-2.7-4.3-5.3-15.7-6.6-21.2-1-4.3-3.1-17.6-3.1-17.6l-3.8 17.8a120 120 0 0 1-6.1 20.5 34 34 0 0 1-13.2 13c-3.8 1.2-11.5-2.4-15-4.7-6.6-4.3-23-25-23-25" class="st3"/><path d="m171 90.8-2.2 23.8s4.5 1.2 6 .9c1.4-.3 5.3-3.1 5.3-3.1zm56.5 0 2.1 23.8s-3.6 1.2-5 1c-1.5-.4-6.2-3.2-6.2-3.2z" style="fill:#786e00"/><path d="m160.4 161 1.8 9.1s14.6-4 19.6-5a133 133 0 0 1 19-2.2 124 124 0 0 1 21 2.4c3.6 1 14.6 4.8 14.6 4.8l2-9.4s-12-4.6-16.1-5.7c-5.4-1.4-16.3-2.8-21.8-2.8-5 0-15 1.9-19.9 3-5 1-20.2 5.8-20.2 5.8" class="st3"/><ellipse cx="170.7" cy="87.3" class="st5" rx="4.5" ry="6.3"/><ellipse cx="228.5" cy="87.3" class="st5" rx="4.5" ry="6.3"/><ellipse cx="138.3" cy="86.1" class="st6" rx="5.3" ry="7.5"/><ellipse cx="199.4" cy="63.1" class="st6" rx="5.3" ry="7.5"/><ellipse cx="261.7" cy="86.1" class="st6" rx="5.3" ry="7.5"/><path d="m191.3 124.4 8.1-12.8 8.1 12.9-8.1 13.1z" class="st6"/><path d="M215.9 461.2c.5-1.8 3.1-4.9 4.8-5.8 2-1.2 6.9-1.4 8.8-2.7 2.9-1.8 7.5-7.4 8.1-10.7.5-2.7-.9-8.2-2-10.7a38 38 0 0 0-5.7-8.9c-2.2-2-7.3-4.7-10-5.7-3-1.2-9.3-3.3-12.5-3.9a74 74 0 0 0-24.3-.4c-3 .6-8.7 2.7-11.3 4.1a76 76 0 0 0-16.1 12 50 50 0 0 0-5.7 8.4 74 74 0 0 0-3.5 9.3 52 52 0 0 0-1.3 17.1c.3 2 1.5 6 2.2 7.9s2 5.8 3 7.5c1 2 3.8 5.5 5.4 7.1a55 55 0 0 0 6 4.6c2.3 1.5 6.8 4.5 9.3 5.5a53 53 0 0 0 10.2 2.6 88 88 0 0 0 18.8-.3c1.6-.2 4.7-.6 6.2-1 2-.6 6-2.2 7.6-3.3a23 23 0 0 0 6.8-6.5c.7-1.7.8-5.7.4-7.6s-2-5-2.6-6.8a52 52 0 0 1-2.4-6.6c-.3-1.2-.7-4-.2-5.2" style="fill:#91793a"/><ellipse cx="198.6" cy="481.3" rx="8.3" ry="8.2" style="fill:#001eff"/><ellipse cx="173.4" cy="478.7" rx="8.3" ry="8.2" style="fill:#016916"/><ellipse cx="160.1" cy="458.1" rx="8.3" ry="8.2" style="fill:#fff700"/><ellipse cx="170.1" cy="435.8" rx="8.3" ry="8.2" style="fill:#ff7b00"/><ellipse cx="193" cy="427.6" rx="8.3" ry="8.2" style="fill:#f10"/><path d="m221.2 424.5 23.2-25.6a6 6 0 0 1 8.6-.5 6 6 0 0 1 .5 8.5l-23.2 25.6a6 6 0 0 1-8.6.5 6 6 0 0 1-.5-8.5" style="fill:#543623"/><path d="m212.7 434 5.8-6.5a2 2 0 0 1 2.8-.2l6.2 5.4c.8.7.9 2 .1 2.8l-5.8 6.4a2 2 0 0 1-2.8.2l-6.2-5.4a2 2 0 0 1-.1-2.8" style="fill:#636063"/><path d="M199.8 453.2s3-3.8 3.7-5.2-.6-5-.3-6.6c.4-1.8 2.3-5.2 4-6a9 9 0 0 1 5.4-.5 15 15 0 0 1 6 3 12 12 0 0 1 2.5 5.9c0 1.4-.8 4.2-1.8 5.3a11 11 0 0 1-4 2.6c-1.9.7-6 1.4-8 1.8-1.9.4-7.5-.4-7.5-.4" style="fill:#d902aa"/><text style="fill:#fff;font-family:&quot;AcademyEngravedLetPlain&quot;;font-size:4.7063px" transform="translate(369.8 557)">HNFT PEPE</text></svg>