<svg xmlns="http://www.w3.org/2000/svg" width="1024" height="1024" image-rendering="optimizeQuality" shape-rendering="geometricPrecision"><path fill="#bbbea2" d="M0 1024h1024V0H0z"/><path fill="#575945" d="M718 781q-2 1-8-1c-12-6 6-18 13-25l301-279v294zM464 274c9 19-15 12-26 11L0 232V0l199 1zm171 173c-123-74-116-48-63-182 18-36 73-209 102-237 11-10 15-12 7 4l-11 27h353c-1 17 0 87 1 127v29c-119 85-255 176-389 232M0 901V646c8-88 41-116 161-314 11-17 33-56 43-75 2-2 16 25 18 28l98 148c45 15 244 348 285 399l114 192z"/><g fill="#838c70"><path d="M1024 158c-114 84-243 157-367 225-23 18-107-46-122-65 20-83 91-236 121-318h368zM0 779V540a7426 7426 0 0 1 206.4-341.9c20 27 46 71 68 103l49 75c43 9 242 348 283 393 33 62 74 127 111 189-82 4-314-53-413-70L0 794zm0 0"/><path d="m0 540 23-38 27-44 6-9 27-45 27-44 27-44 26-44h1l2-4 26-44h-1l8-14 7-12v-1l1 1 5 8-9 15-24 42-26 44-25 43-25 43-26 44-25 43-26 44-26 46zm0 302v-15l47 8 92 16 94 16 94 16 94 16 92 16 90 15 90 16 18 3 6 9 4 8-37-7-45-7-89-16-92-15-92-16-95-17-93-16-95-16z"/></g><path fill="#6d745d" d="M637 388c-122-72-117-50-63-182 8 5-3 20 9 26-10 12-7 35 13 31l13-5c12 5 23-8 32-15 29 5 13 12 2 28-4 9-3 20-12 26-6 14-11 17-2 30-22 13-10 26 3 15 9-7 2 4 14 9 13 5 24-6 34-14 20-15 60-46 81-60q135-79 263-170v51c-121 83-252 173-387 230M0 603v-63l61-105 96-159 49-78v-1c3-1 13 12 15 24 1 12-7 22-9 25-14 19-97 160-212 357m607 279-275-55zM0 842v-55l45 12c186 44 596 103 634 130q22.6 16.6 42 37z"/><path fill="#f2cda0" d="M246 398c31 2-2 47-8 61-4 6-9 19-17 21 9 0 7 12-2 8-42-22-20-94 27-90m618 8c30 41-67 128-84 74-1-24-3-63 1-87-4 1-14 5-12-3 29-17 78-17 95 16m0 0"/><path fill="#d9b07e" d="M222 491c-20-10-26-33-21-53-1 27 46 36 23 45 9 1 6 11-2 8m568 9c-18-23-1-15 10-21 16-9 35-19 44-34 10-14 14-33 13-49 43 42-17 109-67 104"/><path fill="#f2cda0" d="M823 475c36 199-92 460-319 444a302 302 0 0 1-285-254v1c-5-37-11-78-8-116v1c10-413 505-480 612-76m0 0"/><path fill="#d9b07e" d="M505 921a302 302 0 0 1-283-248c86 126 291 184 412 76 81-79 119-208 85-317-26-85-95-168-172-218l-19-12c-9-4 47 6 47 6 378 72 324 723-70 713m0 0"/><path fill="#fdd7a7" d="M231 717c-4-17-12-39-14-57-5-31-11-79-8-115v1c2-42 20-135 37-174 41-91 108-130 154-142-8 10-16 16-23 27a641 641 0 0 0-78 569q-47-46-68-109"/><path fill="#fff" d="M399 421c4 32-28 60-58 49-33-12-38-63-9-83 28-20 63 2 67 34m293-21c0 52-48 92-100 87-51-3-92-49-84-100 6-50 58-85 107-76 43 7 78 45 77 88z"/><path fill="#c3c3c3" d="M666 439c-7-4 9-29 5-60a83 83 0 0 0-15-38l14 4c19 10 27 43 19 82-15 13-21 14-23 12m-297 32a44 44 0 0 1-55-32c2 3 11 19 29 23 16 4 29-4 35-7 13-7 18-16 19-15s-7 24-28 31m0 0"/><path fill="#393939" d="M589 425q-18-8-18-29a38 38 0 0 1 10-30c18-26 51-10 49 20 0 15-8 30-21 37q-9 5-20 2m-237 24c-15 0-25-14-23-28 1-10 10-18 19-20q7-3 13 2c25 9 16 46-9 46m0 0"/><path fill="#222" d="M375 430c0-1-3-15-17-20-13-5-25 2-26 3q11-16 27-12c12 3 20 16 16 29m207-69c7-6 16-9 17-7s-11 9-18 21c-8 15-5 32 0 45q-4-2-7-8c-9-15-6-39 8-51m0 0"/><path fill="#fff" d="M588 383c-2-3 3-11 5-13 1-2 5-8 4-2 0 3-6 15-9 15m-3 7c0-3 4-3 4 0s-4 3-4 0m-246 25q0-6 6-10zm-4 10c-1-3 3-5 4-2q0 4-4 2"/><path fill="#d9b07e" d="M447 466c6-27 46-26 51 2l-54 12z"/><path fill="#be9a6e" d="M456 450q8-4 15-4c-15 5-25 19-26 34l-8 2c0-2 1-24 19-32"/><path fill="#d9b07e" d="M728 622c-35 109-143 199-188 177-63-30-55-293 77-359 34-17 71-18 100-14 11 27 40 106 11 196m0 0"/><path fill="#be9a6e" d="M538 796c31-9 72-27 109-64 114-111 75-286 72-301h-1l-1-5c15 7 39 22 59 48 34 45 33 95 33 116-2 98-71 225-172 234-18 2-54 1-99-28"/><path fill="#fcd9ad" d="m575 517 1 6c-3 11-9 30-25 45-28 25-77 27-120 4a39 39 0 0 1-1-20c6-23 36-32 67-41 35-10 51-6 57-4a89 89 0 0 1 21 10"/><path fill="#edc99c" d="M575 544c-12 40-76 74-118 53q-11-5-26-25c8 4 43 21 81 7 22-8 37-24 39-26 16-18 20-37 24-36 3 1 4 15 0 27"/><path fill="#fff" d="M521 511q5 5 5 18c-2 12-13 18-18 21-24 14-62 12-73-7q-3-4-2-18c42-6 58-11 64-14q5-3 15-3z"/><path fill="#d7d7d7" d="M483 514c11-5 14-11 23-11q11 3 15 8-4-2-13-1c-13 1-15 8-28 12-14 3-19-4-34 2l-13 7 3-11c9-10 27 3 47-6m0 0"/><path fill="#d9b07e" d="M523 354c-32-22-39-31-37-34 2-5 20 4 46 2 35-2 40-19 66-20 43-2 81 43 78 47-1 2-13-7-31-13-25-8-63-10-122 18m-166 46c-15-4-37-5-67 6q3-12 19-23c9-6 17-5 39-5 45-1 61-6 69 5q4 6 4 11c1 9 0 20-7 24-12 7-29-11-57-18m0 0"/><path fill="#be9a6e" d="M486 320c3-2 8 11 19 19 32 22 74-22 134-7 18 5 38 15 37 17l-16-4c-62-17-137 38-166 12-13-12-11-36-8-37m-143 73-1 1zm-10 1h-2zm18 7q-18-5-51 7-8 1-10-2l9-5q23-8 33-7c36-1 59 21 80 9q8-4 9-9v14c-2 10-3 8-10 12-15 8-33-13-60-19m0 0"/><path fill="#222" d="m431 186 7 7c16-8 7-8-7-7m-1 36q5-4 5-12zm-15-12c4 27 10-2 17-11-9-16-15 0-17 11m-45 4c-1 10 11 23 14 9 0-5-10-11-14-9m59 31c1 8 1 21 11 24 15-7 4-26-11-24m-24 51c0 15 18 15 13 0zm-19 53c-7-19-8-44 10-58 0-17 8-44 24-52-5-19-25-26-3-53-17-7-39 2-45 19 49 11-5 60-10 9-29 5-44 36-52 62l-1 8c-4-33 19-74 54-79 6-44 119-36 106 3-11 4-4-5-10-11-28-10-6 33-31 34v6c39-7 30 59 0 33-10-38-20-6-24 17 14-6 30 8 21 21-16 28-27-22-35 5-4 6 4 63-4 36m0 0"/><g fill="#393939"><path d="M425 241c1 8 1 21 11 24q9-4 6-15-3-9-15-9zm-24 51c1 5 2 12 9 12 5-1 8-8 4-12l-6-2zm-19 53-4-15c-4-15 1-33 14-43-1-16 8-45 24-52-2-21 15-61 42-49a22 22 0 0 1 12 20v2l-5 1-3 1a20 20 0 0 0-7-16c-18-11-33 25-31 39 18-1 33 13 25 31-6 10-17 12-25 2q-6-10-7-22c-10 7-16 27-17 39a20 20 0 0 1 21 4q6 9 0 17c-9 15-24 8-27-7q-6 5-7 12h-1v3l-1 1v3l-1 7 2 28v1l1 1h-1l1 1z"/><path d="M419 205c9 33 33-10 9-21q-7 9-9 21m-37 18c14-3 2-16-7-16-1 5 2 15 7 16m-70 49c1-32 21-68 56-73 6-25 38-37 60-25 25-17 65 26 38 35 4-19-12-34-31-29 16 10 18 41-4 45-24 1-24-32-10-45-17-7-39 2-45 19 12 1 25 12 19 25-11 17-30-1-29-16-49 10-51 80-54 64m0 0"/></g><g fill="#222"><path d="M292 484c1-3 1-28 4-21-1 3 1 24-4 21"/><path d="M288 471v-2c3-1 13-3 14-1v1zm258-193c0-1 7-7 4-7zm32 2q3-1 5-5-5 2-5 5m-25 4c3 1 1-2 2-4q-5 2-2 4m-4 9q8-4 1-9-4 5-1 9m-16 10 4-7q-4 3-4 7m-2 3c-5-8 11-13 11-21-2 1-15 7-15 9-5-2 15-12 16-13q0-7 5-12c11-3 1 12-3 13l-1 5c3-3 12-15 14-6 0-1 7-10 7-5-1 2-5 10-2 11 3-1 9-21 10-8l2 2c4-16 18-4 3 2 7 11 21-9 28-12-3 8-16 18-23 18s-8-6-12-9c-1 8-14 15-11 3l-2 2c-1 8-13 18-13 4l-4 7c-2 2-6 12-10 10"/></g></svg>