<svg xmlns="http://www.w3.org/2000/svg" width="1000" height="1000" fill-rule="evenodd" image-rendering="optimizeQuality" shape-rendering="geometricPrecision"><path fill="#000f9f" d="M0 584h1000V419H0z"/><path fill="#e0251e" d="M103 419h149a262 262 0 0 1 67-107l7-6a262 262 0 0 1 424 113h149A409 409 0 0 0 501 94a403 403 0 0 0-398 325m796 165H750c-2 10-12 29-16 38a257 257 0 0 1-73 87l-33 22q-57 32-127 33a261 261 0 0 1-249-180H103a406 406 0 0 0 796 0"/><path fill="#fff" d="M638 458c-24 2-42 22-39 48 2 23 22 42 49 39 23-3 42-23 39-49-3-23-23-42-49-38m239 83v3q24 2 47-4 19-7 25-27c6-20-3-42-23-50-13-6-33-4-49-4zm-648 0v3q25 2 47-4 18-8 25-26c9-28-9-55-44-55h-28zm-30-24-42-55c-4-5-3-3-19-3v85h16v-58l7 8 36 46c4 6 5 4 19 4v-85h-17zm648 0-45-58h-17v85h17v-58l43 54q1 3 4 4l15-1v-84h-17zm-315 27h17v-34h7l24 33 19 1c-2-5-23-33-26-38 5-3 12-5 15-15q3-14-5-23-6-7-21-9h-30zm-154 0h16v-34h8l17 25 6 8 19 1-19-28-7-10 9-6c13-12 9-39-19-41h-30zm142-9v-39h-30v14h13v18c-10 5-24 3-33-5-16-13-12-47 17-50q9-1 18 2l14 7v-17c-39-19-76 2-75 37 0 20 12 33 25 39q13 6 28 4c6-1 21-6 23-10m193-76h-16c0 14-2 49 2 60q7 24 36 26c18 0 32-12 36-26 2-6 3-53 1-60h-16c-3 23 11 70-21 70q-21-1-21-24zm-588 45v-45h-16v46q0 23-22 24-21-1-21-24v-46H49v50q2 11 6 20 5 8 14 12c13 6 29 5 40-2q16-9 16-35m188 39 56 1v-15h-39v-23h29v-15h-29v-17h36v-15h-53z"/><path fill="#000f9f" d="M639 474c-35 4-30 60 8 55 15-2 25-16 23-32-2-15-15-25-31-23m-394 55c22 3 41-8 41-28 0-22-18-30-40-28zm648 0q17 1 29-6 11-6 12-22-1-16-11-23-12-6-30-5zm-344-34c11 2 22 0 23-11 0-11-12-12-23-11zm-155 1c11 0 23 0 23-12 1-12-12-11-23-11z"/></svg>