<svg xmlns="http://www.w3.org/2000/svg" width="1000" height="1000"><path fill="#fcfbf9" stroke="#000" stroke-width="16" d="M0 0h1000v1000H0z"/><ellipse cx="500" cy="886" fill="#c5c6c6" rx="115" ry="13.9"/><path d="M503 2.8h3.4V690H503zm10-1.5h2.4v463.1H513zm21.2.4h2.3v527.9h-2.3zm11.5.2h1.2v562.7h-1.2zM525 1.7h1.2v343.6H525zm-33.7.1h1.2v413.4h-1.2zM480.8 0h1.2v577.7h-1.2zM467 .8h2.3V459H467zM525.4 347c.8 3.8 3.3 5.6 3.3 7.5s-.8 3.8-3.3 3.8-3.3-1.9-3.3-3.8 2.5-3.7 3.3-7.5m-10.8 119.6c.8 3.9 3.3 5.8 3.3 7.7s-.8 3.8-3.3 3.8-3.4-1.9-3.4-3.8 2.5-3.8 3.4-7.7m-59.1-118.1c.6 2.8 2.5 4.2 2.5 5.7 0 1.4-.6 2.8-2.5 2.8s-2.5-1.4-2.5-2.8c0-1.5 1.9-2.9 2.5-5.7m26.3 239.2c.8 3.9 3.4 5.8 3.4 7.7s-.9 3.9-3.4 3.9-3.4-2-3.4-3.9 2.6-3.8 3.4-7.7m-3.3 156.9c4.5-1.2 13.2-2.7 16 6 7.5 24.1 21.4 34.8 35.4 45.7a71 71 0 0 1 20.6 25.3c14 31.6 20 67.8-30.4 68.2-3 0-32.5 3-69-1-9.2-.9-3.8-3.2 5.1-5.3s25-1.1 26.8-4.2c3.2-5.6-1.7-36.9-7.4-9.9-3.6 14.8-22.5 11.3-35.2 9.6-2-.3-1.2-3 18.7-6 11.7-29.3 8.5-52.5-1.3-80.7-7.4-21.2-18-45.7-5-51.2 10.3-4.5 12.3 6.8 25.7 3.5"/><ellipse cx="469" cy="759.3" fill="red" rx="5.5" ry="6.4"/><path d="M455 1.7h1v343.6h-1z"/></svg>