<svg viewBox="0 0 9999 9999" xmlns="http://www.w3.org/2000/svg" width="1000" height="1000" fill-rule="evenodd" image-rendering="optimizeQuality" shape-rendering="geometricPrecision"><path fill="#fcfbf9" stroke="#2b2a29" stroke-miterlimit="3" stroke-width="80" d="M0 0h9999v9999H0z"/><path fill="#ebecec" d="M6963 8747a1688 301 0 0 1-1688 301 1688 301 0 0 1-1688-301 1688 301 0 0 1 3376 0"/><path fill="#e31e24" d="M5954 7399a228 228 0 0 1-228 228 228 228 0 0 1-229-228 228 228 0 0 1 457 0"/><path fill="#2b2a29" d="M5861 8428c1-12 14-39 19-52 5-16 9-41 21-49q7 11 10 27c3 12 5 19 5 31-26 16-46 39-55 43m-108-985c-66 0-117-45-117-111 0-107 131-145 200-81 73 69 23 192-83 192m466 1308c20-11 67-6 95-9l69-8c53-9 129-32 167-60 79-57 109-161 111-295 8-393-184-582-424-795q-54-49-103-100c-112-120-134-306-277-332-142-25-172 64-298 99-30 8-87 22-119 35q-19 6-35 16c-40 21-81 59-81 121 0 98 115 198 163 241 69 62 137 123 178 228 36 90 47 255 27 363-10 61-19 113-35 170-25 90-64 220-155 251-50 17-135 22-152 50-7 11-7 31 2 41 24 25 120 20 157 16l63-10c129-26 185-130 250-255 5 67-5 85 39 162 25 42 91 103 48 124-27 12-202 12-249 51-23 19-21 48 5 63 56 32 299 8 369-1 59-9 118-14 165-36 87-40 22-108 20-130"/><path fill="#e31e24" d="M5049 7399a228 228 0 0 1-228 228 228 228 0 0 1-229-228 228 228 0 0 1 457 0"/><path fill="#fefefe" d="M4680 8428c-1-12-14-39-19-52-5-16-9-41-21-49q-7 11-9 27-5 15-6 31c26 16 46 39 55 43m108-985c66 0 118-45 117-111 0-107-131-145-199-81-74 69-24 192 82 192m-466 1308c-20-11-67-6-95-9l-69-8c-53-9-129-32-167-60-78-57-109-161-111-295-8-393 184-582 424-795q55-49 103-100c112-120 134-306 277-332 142-25 172 64 298 99 30 8 87 22 119 35q19 7 35 16c40 21 81 59 81 121 0 98-115 198-163 241a581 581 0 0 0-178 228c-36 90-46 255-27 363 10 61 19 113 35 170 25 90 64 220 155 251 50 17 135 22 152 50 7 11 7 31-2 41-23 25-120 20-157 16l-63-10c-129-26-185-130-250-255-5 67 5 85-39 162-25 42-91 103-48 124 27 12 203 12 249 51 24 19 21 48-5 63-56 32-299 8-369-2-59-8-118-13-165-35-87-40-22-108-20-130"/><path fill="#2b2a29" fill-rule="nonzero" d="M9470 9866h-13v-20l-23 1v81h-13v-93h13v3l13-2 12-2q11 0 11 11zm107 62h-12v-3l-15 2-15 1q-11 1-11-11v-82h13v81h28v-81h12zm108-62h-13v-20l-23 1v81h-13v-93h13v3l13-2 12-2q11 0 11 11zm68 51q0 11-11 11h-30q-11 0-11-11v-71q0-11 11-11h30q11 0 11 11v33l-4 5h-36v33h28v-17h12zm-12-44v-27h-28v27zm85 55h-12v-3l-15 2-15 1q-11 1-11-11v-32q0-11 11-12h30v-27h-27v15h-13v-15q1-11 10-11h31q11 0 11 11zm-12-12v-33h-28v34zm46 12h-12v-149h12zm77-105q0 5-3 10l-19 30v31h-14v-28q0-6 3-11l20-29v-36h-31v34h-13v-34q0-5 3-8t8-3h35q5 0 8 3 3 2 3 8zm-22 105h-14v-17h14z"/></svg>