<?xml version="1.0" ?><svg xmlns="http://www.w3.org/2000/svg" id="a" viewBox="0 0 955.2 961.8"><style>#layer1 {
        animation: rainbow0 0.75s infinite alternate;
    }
    @keyframes rainbow0 {
        0% { fill: hsl(117, 100%, 50%); }
        50% { fill: hsl(248, 100%, 50%); }
        100% { fill: hsl(8, 100%, 50%); }
    }
#layer2 {
        animation: rainbow1 0.75s infinite alternate;
    }
    @keyframes rainbow1 {
        0% { fill: hsl(126, 100%, 50%); }
        50% { fill: hsl(169, 100%, 50%); }
        100% { fill: hsl(138, 100%, 50%); }
    }
#layer3 {
        animation: rainbow2 0.75s infinite alternate;
    }
    @keyframes rainbow2 {
        0% { fill: hsl(295, 100%, 50%); }
        50% { fill: hsl(285, 100%, 50%); }
        100% { fill: hsl(11, 100%, 50%); }
    }
#layer4 {
        animation: rainbow3 0.75s infinite alternate;
    }
    @keyframes rainbow3 {
        0% { fill: hsl(73, 100%, 50%); }
        50% { fill: hsl(198, 100%, 50%); }
        100% { fill: hsl(57, 100%, 50%); }
    }
#layer5 {
        animation: rainbow4 0.75s infinite alternate;
    }
    @keyframes rainbow4 {
        0% { fill: hsl(284, 100%, 50%); }
        50% { fill: hsl(45, 100%, 50%); }
        100% { fill: hsl(114, 100%, 50%); }
    }
#layer6 {
        animation: rainbow5 0.75s infinite alternate;
    }
    @keyframes rainbow5 {
        0% { fill: hsl(24, 100%, 50%); }
        50% { fill: hsl(134, 100%, 50%); }
        100% { fill: hsl(285, 100%, 50%); }
    }
#layer7 {
        animation: rainbow6 0.75s infinite alternate;
    }
    @keyframes rainbow6 {
        0% { fill: hsl(265, 100%, 50%); }
        50% { fill: hsl(140, 100%, 50%); }
        100% { fill: hsl(58, 100%, 50%); }
    }
#layer8 {
        animation: rainbow7 0.75s infinite alternate;
    }
    @keyframes rainbow7 {
        0% { fill: hsl(142, 100%, 50%); }
        50% { fill: hsl(179, 100%, 50%); }
        100% { fill: hsl(128, 100%, 50%); }
    }
#layer9 {
        animation: rainbow8 0.75s infinite alternate;
    }
    @keyframes rainbow8 {
        0% { fill: hsl(103, 100%, 50%); }
        50% { fill: hsl(176, 100%, 50%); }
        100% { fill: hsl(296, 100%, 50%); }
    }
#layer10 {
        animation: rainbow9 0.75s infinite alternate;
    }
    @keyframes rainbow9 {
        0% { fill: hsl(111, 100%, 50%); }
        50% { fill: hsl(329, 100%, 50%); }
        100% { fill: hsl(221, 100%, 50%); }
    }
#layer11 {
        animation: rainbow10 0.75s infinite alternate;
    }
    @keyframes rainbow10 {
        0% { fill: hsl(58, 100%, 50%); }
        50% { fill: hsl(166, 100%, 50%); }
        100% { fill: hsl(170, 100%, 50%); }
    }
#layer12 {
        animation: rainbow11 0.75s infinite alternate;
    }
    @keyframes rainbow11 {
        0% { fill: hsl(71, 100%, 50%); }
        50% { fill: hsl(45, 100%, 50%); }
        100% { fill: hsl(354, 100%, 50%); }
    }
#layer13 {
        animation: rainbow12 0.75s infinite alternate;
    }
    @keyframes rainbow12 {
        0% { fill: hsl(224, 100%, 50%); }
        50% { fill: hsl(101, 100%, 50%); }
        100% { fill: hsl(181, 100%, 50%); }
    }
#layer14 {
        animation: rainbow13 0.75s infinite alternate;
    }
    @keyframes rainbow13 {
        0% { fill: hsl(302, 100%, 50%); }
        50% { fill: hsl(291, 100%, 50%); }
        100% { fill: hsl(275, 100%, 50%); }
    }
#layer15 {
        animation: rainbow14 0.75s infinite alternate;
    }
    @keyframes rainbow14 {
        0% { fill: hsl(82, 100%, 50%); }
        50% { fill: hsl(192, 100%, 50%); }
        100% { fill: hsl(329, 100%, 50%); }
    }
#layer16 {
        animation: rainbow15 0.75s infinite alternate;
    }
    @keyframes rainbow15 {
        0% { fill: hsl(193, 100%, 50%); }
        50% { fill: hsl(223, 100%, 50%); }
        100% { fill: hsl(159, 100%, 50%); }
    }
#layer17 {
        animation: rainbow16 0.75s infinite alternate;
    }
    @keyframes rainbow16 {
        0% { fill: hsl(307, 100%, 50%); }
        50% { fill: hsl(4, 100%, 50%); }
        100% { fill: hsl(85, 100%, 50%); }
    }
#layer18 {
        animation: rainbow17 0.75s infinite alternate;
    }
    @keyframes rainbow17 {
        0% { fill: hsl(151, 100%, 50%); }
        50% { fill: hsl(260, 100%, 50%); }
        100% { fill: hsl(129, 100%, 50%); }
    }
#layer19 {
        animation: rainbow18 0.75s infinite alternate;
    }
    @keyframes rainbow18 {
        0% { fill: hsl(226, 100%, 50%); }
        50% { fill: hsl(250, 100%, 50%); }
        100% { fill: hsl(102, 100%, 50%); }
    }
#layer20 {
        animation: rainbow19 0.75s infinite alternate;
    }
    @keyframes rainbow19 {
        0% { fill: hsl(146, 100%, 50%); }
        50% { fill: hsl(246, 100%, 50%); }
        100% { fill: hsl(247, 100%, 50%); }
    }
#layer21 {
        animation: rainbow20 0.75s infinite alternate;
    }
    @keyframes rainbow20 {
        0% { fill: hsl(98, 100%, 50%); }
        50% { fill: hsl(135, 100%, 50%); }
        100% { fill: hsl(53, 100%, 50%); }
    }
#layer22 {
        animation: rainbow21 0.75s infinite alternate;
    }
    @keyframes rainbow21 {
        0% { fill: hsl(123, 100%, 50%); }
        50% { fill: hsl(113, 100%, 50%); }
        100% { fill: hsl(356, 100%, 50%); }
    }
#layer23 {
        animation: rainbow22 0.75s infinite alternate;
    }
    @keyframes rainbow22 {
        0% { fill: hsl(127, 100%, 50%); }
        50% { fill: hsl(207, 100%, 50%); }
        100% { fill: hsl(293, 100%, 50%); }
    }
#layer24 {
        animation: rainbow23 0.75s infinite alternate;
    }
    @keyframes rainbow23 {
        0% { fill: hsl(82, 100%, 50%); }
        50% { fill: hsl(290, 100%, 50%); }
        100% { fill: hsl(63, 100%, 50%); }
    }
#layer25 {
        animation: rainbow24 0.75s infinite alternate;
    }
    @keyframes rainbow24 {
        0% { fill: hsl(66, 100%, 50%); }
        50% { fill: hsl(296, 100%, 50%); }
        100% { fill: hsl(148, 100%, 50%); }
    }
#layer26 {
        animation: rainbow25 0.75s infinite alternate;
    }
    @keyframes rainbow25 {
        0% { fill: hsl(220, 100%, 50%); }
        50% { fill: hsl(8, 100%, 50%); }
        100% { fill: hsl(324, 100%, 50%); }
    }
#layer27 {
        animation: rainbow26 0.75s infinite alternate;
    }
    @keyframes rainbow26 {
        0% { fill: hsl(22, 100%, 50%); }
        50% { fill: hsl(236, 100%, 50%); }
        100% { fill: hsl(343, 100%, 50%); }
    }
#layer28 {
        animation: rainbow27 0.75s infinite alternate;
    }
    @keyframes rainbow27 {
        0% { fill: hsl(322, 100%, 50%); }
        50% { fill: hsl(88, 100%, 50%); }
        100% { fill: hsl(73, 100%, 50%); }
    }
#layer29 {
        animation: rainbow28 0.75s infinite alternate;
    }
    @keyframes rainbow28 {
        0% { fill: hsl(236, 100%, 50%); }
        50% { fill: hsl(88, 100%, 50%); }
        100% { fill: hsl(28, 100%, 50%); }
    }
#layer30 {
        animation: rainbow29 0.75s infinite alternate;
    }
    @keyframes rainbow29 {
        0% { fill: hsl(292, 100%, 50%); }
        50% { fill: hsl(272, 100%, 50%); }
        100% { fill: hsl(105, 100%, 50%); }
    }
#layer31 {
        animation: rainbow30 0.75s infinite alternate;
    }
    @keyframes rainbow30 {
        0% { fill: hsl(305, 100%, 50%); }
        50% { fill: hsl(197, 100%, 50%); }
        100% { fill: hsl(3, 100%, 50%); }
    }
#layer32 {
        animation: rainbow31 0.75s infinite alternate;
    }
    @keyframes rainbow31 {
        0% { fill: hsl(173, 100%, 50%); }
        50% { fill: hsl(212, 100%, 50%); }
        100% { fill: hsl(162, 100%, 50%); }
    }
#layer33 {
        animation: rainbow32 0.75s infinite alternate;
    }
    @keyframes rainbow32 {
        0% { fill: hsl(132, 100%, 50%); }
        50% { fill: hsl(1, 100%, 50%); }
        100% { fill: hsl(29, 100%, 50%); }
    }
#layer34 {
        animation: rainbow33 0.75s infinite alternate;
    }
    @keyframes rainbow33 {
        0% { fill: hsl(60, 100%, 50%); }
        50% { fill: hsl(46, 100%, 50%); }
        100% { fill: hsl(191, 100%, 50%); }
    }
#layer35 {
        animation: rainbow34 0.75s infinite alternate;
    }
    @keyframes rainbow34 {
        0% { fill: hsl(41, 100%, 50%); }
        50% { fill: hsl(308, 100%, 50%); }
        100% { fill: hsl(332, 100%, 50%); }
    }
#layer36 {
        animation: rainbow35 0.75s infinite alternate;
    }
    @keyframes rainbow35 {
        0% { fill: hsl(229, 100%, 50%); }
        50% { fill: hsl(196, 100%, 50%); }
        100% { fill: hsl(310, 100%, 50%); }
    }
#layer37 {
        animation: rainbow36 0.75s infinite alternate;
    }
    @keyframes rainbow36 {
        0% { fill: hsl(41, 100%, 50%); }
        50% { fill: hsl(303, 100%, 50%); }
        100% { fill: hsl(34, 100%, 50%); }
    }
#layer38 {
        animation: rainbow37 0.75s infinite alternate;
    }
    @keyframes rainbow37 {
        0% { fill: hsl(46, 100%, 50%); }
        50% { fill: hsl(258, 100%, 50%); }
        100% { fill: hsl(286, 100%, 50%); }
    }
#layer39 {
        animation: rainbow38 0.75s infinite alternate;
    }
    @keyframes rainbow38 {
        0% { fill: hsl(38, 100%, 50%); }
        50% { fill: hsl(332, 100%, 50%); }
        100% { fill: hsl(216, 100%, 50%); }
    }
#layer40 {
        animation: rainbow39 0.75s infinite alternate;
    }
    @keyframes rainbow39 {
        0% { fill: hsl(34, 100%, 50%); }
        50% { fill: hsl(223, 100%, 50%); }
        100% { fill: hsl(81, 100%, 50%); }
    }
#layer41 {
        animation: rainbow40 0.75s infinite alternate;
    }
    @keyframes rainbow40 {
        0% { fill: hsl(227, 100%, 50%); }
        50% { fill: hsl(3, 100%, 50%); }
        100% { fill: hsl(359, 100%, 50%); }
    }
#layer42 {
        animation: rainbow41 0.75s infinite alternate;
    }
    @keyframes rainbow41 {
        0% { fill: hsl(336, 100%, 50%); }
        50% { fill: hsl(21, 100%, 50%); }
        100% { fill: hsl(347, 100%, 50%); }
    }
#layer43 {
        animation: rainbow42 0.75s infinite alternate;
    }
    @keyframes rainbow42 {
        0% { fill: hsl(10, 100%, 50%); }
        50% { fill: hsl(35, 100%, 50%); }
        100% { fill: hsl(110, 100%, 50%); }
    }
#layer44 {
        animation: rainbow43 0.75s infinite alternate;
    }
    @keyframes rainbow43 {
        0% { fill: hsl(146, 100%, 50%); }
        50% { fill: hsl(142, 100%, 50%); }
        100% { fill: hsl(347, 100%, 50%); }
    }
#layer45 {
        animation: rainbow44 0.75s infinite alternate;
    }
    @keyframes rainbow44 {
        0% { fill: hsl(91, 100%, 50%); }
        50% { fill: hsl(312, 100%, 50%); }
        100% { fill: hsl(323, 100%, 50%); }
    }</style><g id="main-form"><path d="M876.8,493c-18.1-48.8-38-34.4-9-80-11.5-27.8-41.4-61.1-22-98C649.3,61.6,379.6,50.7,140.9,267c-27.2,17.6-38.5,45.4-24,78-1.3,42.2-50,59.5-14,95-86.6,138.7,93.9,124.2,161,7,16.6-104.6,132.8-51.1,214-100,63.2,38.6,153.9,15.2,194,53,14.1,91.3,201.8,210.6,205,93Z" fill="#7dc239" id="layer1"/><path d="M824.8,324c-8-67.1-335.2-209.9-347-178-33.7-24.8-428.8,130.3-347,250,10,6,19-8,40-6,23,3,29,23,48,24s33-16,39-23c58-64,174-47,220-122,47,75,162,58,221,122,5,7,20,24,38,23,19-1,25-21,48-24,58.4,18.4,56.6-11.6,40-66Z" fill="#1ab689" id="layer2"/><path d="M477.8,0C-208.7,31.4-130,1031.1,550.8,958,1131.3,857,1069.1,10.8,477.8,0Z" id="layer3"/><path d="M477.8,20C-239,62.8-57,1114.9,630.9,917,1114.6,748.2,993.7,17.4,477.8,20Z" fill="#fa3984" id="layer4"/><path d="M52.3,464.3c-12,168.3,93.1,288.2,109.1,305.9,11.4,12.6,139.1,149.4,327.2,139.7,208.2-10.8,426.6-197.9,412.9-449.2-12-219.8-196.8-400.8-421.9-402.2-244.7-1.5-413.4,210.2-427.4,405.8Z" fill="#2e8cce" id="layer5"/><path d="M864.8,452c-15.5-42.4,15.8-71.7,18-113.2,3-56.8-50.3-102.8-87.5-134.8-103.5-89.2-312.5-169.6-507.3-86.3-83.5,35.7-216.3,123.7-209.6,209.2,3,37.8,33.5,78.3,12.6,125.4-11.6,26.2-31.4,36.9-28.2,60.4,3.4,24.6,27.4,31.3,27.4,58.3,0,18.5-11.1,23.8-6.2,36.4,5.6,14.5,22.7,13,35.4,30,8.1,10.8,10.2,23.2,10.5,32.5,5.2-.5,17-24.8,7.5-42.6-23.4-20.2-39.4-35.9-13.6-62.5,36.6-36.2,111,6.2,137.3-28.4,11.2-14.7,7.9-40,7.1-46.8-1.8-14.8-7.1-26-10.7-32.6,12.5-18.2,32.6-43.4,62.8-66.8,21.5-16.6,29.7-19.5,51.1-32,72.9-42.7,71.2-94.1,106.7-95.9,31.6-1.6,29.3,39,109,96.6,20.8,15.1,41.3,31.4,68.7,60.9,15,16.1,26.2,30.5,33.5,40.4-.7,7.8-1.3,18.9-.5,32.1,1.5,24.8,1.3,37.9,7.9,45.4,27.7,32.2,102.3-9.8,136.5,28.4,25.9,25.2,6.6,42.3-14.7,62.2-8.5,17.2,3.6,42,8.5,41.5.3-9.4,2.2-22,10.3-33.1,12.5-17,29-15.8,34.8-30.4,5-12.7-5.8-18.1-6.1-37.1-.6-29.1,24.3-36.4,25.8-62.5,1.4-23-17.2-28.2-26.9-54.9Z" fill="#42b85c" id="layer6"/><path d="M198.8,653c16.7,76,48.5,126.1,70.5,154.6,9.7,12.6,60,77.6,93.6,66.4,11.6-3.9,14.5-14.7,28.8-15.8,20-1.6,26.5,18.7,47.4,18.3,17.9-.3,19.3-15.3,38.3-16.6,21.7-1.5,26.7,17.7,48.5,16.6,19.4-1,21.2-16.4,41.1-17.2,19.7-.8,26.3,11.1,43.1,11.9,22.8,1,41.4-21.1,56.9-41.1,62.9-81.3,94.4-121.9,88.4-145.1-11.1-42.9-132.3-71-556.5-32Z" fill="#6fb847" id="layer7"/><path d="M259.8,572c-28.4,10.4-106.5,39.6-113.1,89.5-3.4,25.4,34.3,59.8,108.1,128.5,44.3,41.2,73.1,62.4,100.2,55.8,12.3-3,21.8-11.1,38.7-8.4,20.2,3.2,23.4,17.3,41.5,18.4,19,1.2,21.3-13.9,42.3-14.9,23.8-1.2,29.3,17.9,51,14.6,15.6-2.4,17.1-12.9,35.1-14.8,14.4-1.5,20.6,4.4,31.8,5.7,13.2,1.5,32.7-3.7,59.3-34.4,126.4-48.1,150.6-87.2,150.5-113.5,0-94.9-316.9-210.2-545.5-126.5Z" fill="#a9be2e" id="layer8"/><path d="M244.8,775c12.6,2.9,21.7.8,38.8,8.2,37.8,16.6,44.7,49.4,69.2,48.6,14.9-.5,15.1-12.8,31.9-13.5,23.5-1,29.8,22.9,54.3,23.2,17.5.2,18.3-12,39.2-13.6,24.4-1.9,28.8,14.2,50.3,11.4,20.7-2.7,24.3-18.7,44.8-18.3,14.6.2,14.8,8.3,27.5,9,25.5,1.4,34.9-32,71.1-44.1,14.4-4.8,27.4-5.2,35.9-4.9,57.2-43.9,108.7-95.9,97.5-138.2-33.7-128.3-627-117.1-652.5-10.1-10.3,43,38,130,92,142.3Z" fill="#f1a519" id="layer9"/><path d="M863.1,756.4c-15.5-18.9-30.9-32.5-42.3-41.4-.3-24.1.5-62.1,7.2-108.1,10.9-75.1,31.7-108.4,12.6-143.5-12.9-23.8-38.9-39.4-61.7-42.4-52.5-6.9-117.3,48.6-141.9,143,3.9-29.1,4.4-64.9-5.8-103.5-8.7-32.9-21.9-55.3-13.1-63.7,9.1-8.7,30.2,9.6,60.8,15.3,45.6,8.5,99.9-13.1,126.5-45.9,51.4-63.1,7.5-176.2-46.6-234.8-10.6-11.5-49.5-52.5-115.3-66.7-40.2-8.7-74.1-3.9-93.6.4,13.8,5,25,10,24.3,13.3-1.5,7.8-68.7,1.1-69.3,6.4-.5,4.1,41.7,5.8,46,22.3,5.1,19.8-47.5,47.7-45,52,1.1,1.8,11.9-1.2,56-23-50.5,82.7-21.3,26.1,46,15,30-1,72,24,123,128-58.5-62-132.2-86.7-183.6-62.4-10.8,5.1-25.7,14.8-39.4,34.4-34.8-41.5-24.3-43.9-60,0-6.2-15.6-17-28.8-31-38-45-27-124-3-191,66,50-104,92-129,122-128,73.7,14.5,92.8,65,46-15,46.8,17.6,59.1,19.9,60.1,17.8,2.1-4.5-52-27-48.7-45.9,2.8-16,44.9-19.7,44.1-25.2-1-6.7-63.2-1.1-64.3-8.2-.4-2.5,7.1-5.9,14.8-8.7-20.6-5.5-53.3-11.1-90.1-2.4-134.5,31.9-221.9,232.2-168,302.7,25.7,33.6,93,50.3,144.8,38.2,30.2-7.1,54.3-23.7,60.3-16.4,6.5,8-19.2,31-33.7,72-10.8,30.6-11.1,58.9-9.3,79-22-76.6-78.5-121.6-127.4-115.8-22.3,2.7-48.9,16.7-61.9,40.7-21.6,39.9-1.4,80.1,19.3,169.1,10,43,13,64,1,82-34.4,31.4-82.2,77.4-77,108,2,2,7,2,50-29,35-26,50-40,52-38,.2,7.6-88.5,166.6-17,88,13.3-17.1,38.4-40.3,56-48-9.4,23.3-1.3,46.4,18,70,27.2,36,24.3,38.5,51,50-1.1-11.8-22.4-56.4-19-67-16.7-95.8,53.9-3.2,74,23,22.8-58.6-87.9-103.6-86-168,0,0-15-118-15-118,4.3,9.5,58.2,100.3,48,110-7,10.4-13.6,24.4-10,38,5.8,21.9,34.3,28.6,100,50,98.1,31.9,94.6,36.3,117.1,36.4,22.7,0,19.7-4.5,118.9-36.4,65.4-21.1,93.9-27.8,100-50,3.8-13.8-2.5-27.8-9-38-13.2-8.8,44.4-100.8,47-110,0,0-15,118-15,118,6.8,58.7-110.3,113-86,168,21.2-24.5,88.5-120,75-23,2.1,10.4-18.6,55.7-20,67,28.6-7.8,69.8-65.4,74-101-15.9-39.4,17.2.5,32,7,13.4,11,29.8,42.5,46,44,12-5.7-45.1-105.2-44-110,78.2,63.1,100,72.3,104.6,67.7,6.6-6.6-19.3-45.3-37.4-67.3Z" id="layer10"/><path d="M389.4,223.9c-59-27.6-164.4,96.5-181.6,81.1-5.4-4.9-.2-21.5,13-52,23-53,42-79,41-80-139.7,81.3-102.2,326,112,167,2.7-2,54.4-57.6,36.1-95.9-6.4-13.4-19-19.5-20.5-20.2ZM693.8,173c-4.2-7.7,68.6,120.3,55,133-81.5-73.7-155.3-104.1-187.5-79.9-20.4,15.3-17.5,47.5-17.1,51.7,6.8,75.9,137.5,142.5,200.6,103.4,19.7-12.2,27.9-31.7,30.5-38.8,18.4-50.6-13.3-119-81.5-169.3Z" fill="#a24fcc" id="layer11"/><path d="M345.1,620c-29.8-.8-51.5,16.9-58.5,23.1,41.7,49.7,66.3,57.8,81.4,54.9,4.3-.8,15.2-4,31.2-4.3,13.4-.2,24.4,1.6,31.7,3.3-12-45.1-47.7-76-85.8-77ZM457.8,706c-17.9,1.2-13.7,29.7,2,30,19.6-2.9,16.2-27.9-2-30ZM664.8,644c-57.8-49.8-131-11.7-140,53,55.7-20.2,79.8,39,140-53ZM497.8,706c-18.2,2.1-21.6,27.1-2,30,14.7-1.8,21.6-27.2,2-30Z" fill="#fd9804" id="layer12"/><path d="M782.8,766c-38.4-24.1-37.6-42.9-27-80,4.1-40.6,2.9-31,23-51,6.7-20.3,18.1-31.4,30-46,3.1-13,3.9-48.4,15-60-26.3,12.1-14.4,56.9-45,70-3.2,3.5-14.4,35.5-21,37,10.4-22.6,9.5-43.6,29-59,9.7-23.3,9.7-43.5,31-60,9.2-11.7,10.3-21.2,10-27-1.5-28.2-42.3-55.8-74.4-51.4-23.5,3.3-29.5,22.1-94.7,126.3-1.5,2.4-4.7,7.5-6,15-4.4,25.2,17.9,49.2,32,62,27.2-40.4,54.5-80.8,81.7-121.2-4.6,9.6-9.2,19.2-13.8,28.8,9.3,91.4-10.8,150.3-30.9,187.1-23.3,42.7-62.9,86-61.1,87.6,1.8,1.5,34.4-45.1,51-38.9,13.7,5.2,12.1,45.1,6.1,88.6,45.3-11.6,19.2-108.3,50-88,30,14,52,46,53,45,2.4.7-7.8-41.8-38-65Z" fill="#0d5ace" id="layer13"/><path d="M134.1,833.5c1,1,23-31,53-45,30.8-20.3,4.7,76.5,50,88-6-43.6-7.6-83.4,6.1-88.6,16.6-6.3,49.1,40.4,51,38.9,1.9-1.5-37.8-44.8-61.1-87.6-20.1-36.8-40.2-95.7-30.9-187.1-4.6-9.6-9.2-19.2-13.8-28.8,27.2,40.4,54.5,80.8,81.7,121.2,20.1-22.4,38.7-49.9,30.2-70.2-1.5-3.5-3.3-5.7-4.2-6.8-34.2-42.1-47.3-109.3-86-125-45.6-18.4-107.5,31.4-73,77,21.3,16.5,21.3,36.7,31,60,19.5,15.4,18.6,36.4,29,59-6.6-1.5-17.8-33.5-21-37-30.6-13.1-18.7-57.9-45-70,11.1,11.6,11.9,47,15,60,12,14.6,23.3,25.7,30,46,20.1,20,18.9,10.4,23,51,10.6,37.1,11.4,55.9-27,80-30.2,23.2-40.4,65.7-38,65Z" fill="#0d5ace" id="layer14"/><path d="M843,758.4c-20.1-26-37.4-48.3-42.2-78.5-1.9-12-4.4-40.8,15.2-77.5-3.7,3-9.2,7.9-15,14.6-17.4,20.1-24.2,41.6-32.4,68.6-2.5,8.2-5.7,19.8-8.6,33.8,95.8,70.8,118.5,84.2,120.1,82.2,1.5-1.8-15.4-15.2-37.1-43.2Z" fill="#0d5ace" id="layer15"/><path d="M156.7,746.6c16.6-12.5,30-23.4,38.9-31-1.3-8.9-3.4-19-6.9-30-6.2-19.4-14.7-34.8-22.1-46-19-28-26-42-27-41,19.6,36.7,17.1,65.6,15.2,77.5-4.9,30.3-22.4,52.9-42.2,78.5-21.9,28.2-39,40.8-37.1,43.2,3,3.8,48-26.3,81.1-51.2Z" fill="#0d5ace" id="layer16"/><path d="M383.8,242c-54.8-40-235,199-173,8-44.8,32.5-36,124,40,130,80.5,12.2,208.1-80,133-138ZM744.8,250c21.3,46.9,25,107.3-48,51-51.6-39-125.2-106.9-148-23,2.5,132.9,320.6,140.2,196-28Z" fill="#b54ebd" id="layer17"/><path d="M386.8,642c-9.5-7.5-15.5-9.7-17.8-10.4-15.7-5.1-30.4-.7-44.2,3.4-6.3,1.9-15,5-25,10.3,7.7,7.2,15.3,14.4,23,21.7,38,37.6,65.2,6.1,100,22-11.9-25.6-27-39.9-36-47ZM654.8,646c-48.6-36.9-100.2-7.1-122,43,52.3-13.6,71.2,19,122-43ZM242.8,469.3c-8.3-11.6-18.2-24-35.1-29.6-17-5.6-38.6-2.8-54.7,9.9-3.5,2.7-13.3,10.4-17.4,23-7.1,21.6,5.4,49.4,31.3,68.4-1.9,31.8,22.4,34.5,27,64,20.7,81.8-20.3-12.2-43-16,10.1,8.7,30.2,43.2,43,56,47.2,128.1-13,88.6-50,170,17.7-16,76.4-73.5,66,7,2,25,21,43,24,42-3.2-7.8-7.6-21.1-7.7-37.9,0-6.2-.2-39.9,14.5-44.4,2.2-.7,8.4-1.8,18.9,6.5-9.8-10.9-23.1-28.2-33.2-52.1-8.6-20.3-11.3-37.5-16.5-71-2.8-18.4-6-43.2-8-73-19.8-17.1-24.3-42.5-33-64-52.5-55.9-12.5-56,33-73,17.4,17.3,6.2,24.9,35,33,47.4,76.9,62.4,94.9,65.6,93.2,5.6-3-26.4-65.3-59.7-111.8ZM746.8,737c-5-3.4,6.5-90.8,15-92,16.6-16.3,26.2-40.2,43-56-23.6,3.5-63.3,97.6-43,16,4.6-29.5,28.9-32.3,27-64,5.6-5.4,13.5-14,20.3-26.1,7.4-13.3,15.8-28.5,11.4-45.5-4.4-16.9-18.8-25.9-23.6-28.9-2.3-1.5-20.1-12.2-40.4-8.7-24.3,4.2-39.4,28.6-68.4,77.4-14.3,23.9-28.8,51.6-26.1,53.5,3.1,2.2,22.3-20.6,24-22.7,16.2-19.3,26.4-38,32.9-51.9,27.9-7.9,18.2-15.8,35-33,46.9,15.1,85,19.9,33,73-8.3,21-14.1,46.5-33,64-11.3,55.8-7.9,157.9-56,193,47.9-30.2,28,79.8,24,79,38.3-6.3,3.5-118.1,58-76,43.1,37.5,41.1,33.6,8-10-23-25-35-24-41-41Z" fill="#d34480" id="layer18"/><path d="M159.7,640c-3.7.7,6.5,31.6-4.9,66-14.7,44.7-56.4,67.3-55,69.1.9,1.2,18.8-9.9,86-58.1-17-62.6-23.6-77.5-26.1-77ZM803.3,715.2c-14.4-38.5-2.4-74.4-6.1-75.2-2.4-.5-8.8,14.3-25.5,77.1,61.6,48.6,77.5,59.6,78.4,58.5,1.2-1.5-32.2-21.6-46.8-60.5ZM361.8,247c-34.5,9.3-139,88.7-134,82,3,6,52-16,54-11-17.6,37.2-68.3,20.8-91,6,2.4,37.9,78.8,65.9,112,38,21-14,18-32,40-40,62.6,10.3,78.3-63.9,19-75ZM764.8,324c-22.3,15-74.4,30.7-91-6,2-5,51,17,54,11,4.4,6.5-99.1-72.5-134-82-59.3,11.1-43.7,85.3,19,75,22,8,19,26,40,40,33,27.5,111.7,1,112-38Z" fill="#d34480" id="layer19"/><path d="M361.8,642c-14.8-5.1-34.6-.9-37,8-2.4,8.9,12.7,22.4,27.9,25.8,12.2,2.8,29.4.2,32.1-8.3,2.7-8.7-10.3-21.2-23-25.6ZM630.8,650c-3-10.1-26.9-15.9-42.5-6.3-11.1,6.8-19.3,22.1-14.5,30.3,5.3,9.1,25.2,7.4,37.8.8,9.7-5,21.7-16.4,19.2-24.8Z" fill="#f89a1e" id="layer20"/><path d="M352.8,260c-24.2,18.4-71.9,57.4-93,54,7.3.7,46.3-4.7,50-2,4.3,30.9-74.8,42.6-89,38,74.9,45.2,85.1-16.8,128-46,49.7,15.6,45.5-55.1,4-44ZM734.8,350c-14.6,4.5-93.2-7.1-89-38,3.8-2.7,43,2.8,50,2-13.8.2-57.1-18.2-77-43-41.1-46.9-78.1,48.8-12,33,48.7,34.7,48.6,89.6,128,46Z" fill="#f74754" id="layer21"/><path d="M464.8,717c-10.7-6.8-15.2,8-5,12,7.6,1.1,8.5-10,5-12ZM371.8,650c-13.8-11.6-39.5-5.3-41.9,3.4-1.7,6.2,8.6,13.6,9.9,14.6,13.8,9.9,36,8.3,39.8-.2,2.5-5.5-2.9-13.6-7.8-17.8ZM490.8,717s-3,3-2,7c8.4,17.6,22-16.9,2-7ZM626.8,653c-1.7-7.9-18.3-13-31-8.6-12.5,4.3-22.5,18.3-19,25.6,3.4,7.3,20,7.2,31,2.8,9-3.6,20.6-12.4,19-19.8Z" id="layer22"/><path d="M308.8,707c1,.8,23.7,18.6,51.2,15.3,12.2-1.5,22.9-6.8,42.4-4.5,5.2.6,7.9.9,11.4,2.2,19.9,6.9,20.1,26.2,35.2,36.8,15.4,10.8,41,8.8,56.8-.8,19.6-12,21.9-34.5,42.3-37.5,4.6-.7,7.9,0,11.7.5,14.7,2.3,64.4,10.1,88.5-9,19.7-15.6,20.9-48,16.5-49.9-4.8-2.1-12.1,34-41.6,46.4-33.2,13.9-61.3-16.3-86.1,1.4-10.8,7.8-7.5,15-25.9,31.1-10,8.7-20.9,18.3-35.2,17.8-12-.4-20.5-7.6-29.9-15.6-20.2-17.1-18-28.6-30.9-34.8-16.4-7.9-27.3,6.7-49.4,6.6-45.1-.1-73.2-61.5-80.7-56.6-5,3.2,2.1,33.1,23.7,50.6Z" fill="red" id="layer23"/><path d="M645.8,725c-39,1.3-75.8,35.7-106,49-18.5-12.1-41,1.4-62,6-21-4.7-43.5-18.1-62-6-30.2-13.3-67.1-47.6-106-49-19.1-2.5-24.6-3-23,11,8.5,13.7,72.8,7.6,95,29,31.9,38.9,56.2,5.3,96,31,39.7-25.6,63.1,7.7,96-30,22-22.2,86.3-16.4,95-30,4.9-13.4-5.5-13.6-23-11Z" fill="red" id="layer24"/><path d="M164.8,365c-23.5-100.4,61.3-280.7,219-220,3-4-8-15-4-20,5-7,29,4,30,0-13.7-15.2-27.2-19.5-3-38-2-5-50,11-53,4-3-5,21-17,19-21-109.6-23.2-292.8,183.2-208,295ZM429.8,638c-16.7-31.1-57.9-56.5-94.9-44.7-19.8,6.3-31.9,21.2-38.1,30.7,6.4-5.2,29.9-22.6,60.9-19.4,27.6,2.9,45.7,20.5,57.3,31.9,12.1,11.8,19.6,23.7,24,31.9-.8-7.7-2.9-18.8-9.1-30.3ZM575.8,125c4.3,4.4-3.8,13.4-1,18.5,6.1,11.1,52.7-19,98.1-6.6,16.5,4.5,33.8,13.8,50.9,31.1,11.5,11.6,43.2,37.4,59.6,84.4,17.8,51.2,8,95.6,3.3,112.6,9.2-18.8,26.4-61.1,18.7-113.4-12.6-85.1-81.5-130.4-101.5-143.6-54-35.5-115.3-44.4-118.1-38.1-1.7,3.9,19.6,16.2,17.1,21.1-.4.8-2.2,2.7-27.4-1.2-16.6-2.6-25.6-5-26.6-2.7-1.3,2.8,12.3,7.5,13.2,16.9,1,11.1-16.2,20.7-14.6,23,.8,1.2,5.2-1.6,14-2.8,6.3-.9,11.8-1.7,14.4,1ZM495.8,599c-20-45.6-45.9,7.6-41,33,0,0,23-34,23-34l22,34c1.4-11.2,0-22.5-4-33Z" fill="#03b194" id="layer25"/><path d="M477.8,617c-22,12.5-22.5,66.7,0,81,21.1-14.8,21.8-68.3,0-81ZM484.8,663c-6.2,43.2-22.8-7.3-7-23,5.3,5.2,8.8,17.6,7,23ZM626.8,597c-34.7-13.5-77.7,8.1-97.8,38.4-8.3,12.5-11.6,24.9-13.1,33.4,3.8-7,9.4-15.9,17.9-24.8,1.8-2,45.9-47.2,97.5-35.6,10,2.3,17.7,6.1,22.4,8.8-9.9-12.2-20.2-17.6-26.8-20.2ZM302.4,581.1c.9-.7,2.4-3.5-4.3-17.1-19.1-25.3-38.2-50.7-57.3-76-21.7-10-24-12.8-32-35-28.2-22.2-62.6.8-67,29-1.6,37.3,38,43.8,32,79,5.9,7.6,12.4,17.4,18.1,29.4,9.9,20.9,13.6,40.1,15,53.7,1.3-12.4,2.1-26,2.3-40.6.1-13.8-.4-26.7-1.3-38.5,6.3-21.1-42.6-68.3-45-77,1-13,21-24,31-19,11.4,23,12.5,20.8,36,31,2.6,24.8,12.3,18.7,25,31-.5,11.6.4,14.1,13,15,2.1,5.9,6.3,15.3,15,23.8,6.2,6.1,16.7,13.7,19.6,11.3Z" fill="#03b194" id="layer26"/><path d="M532.8,598c4-6,11-13,24-18-62.8,2.8-38.2.2,12-14,41.2-12.9,36.2-9.3,25-41,4.3-37.2-18.2-38.4-7-73-6-12-46-5-46-6-.3-4.4,36.9-10.9,48-10-45.6-74.4-82.7-126.6-23-80-73.6-139.6-102.9-138.8-177,0,3,3,27-23,31-20,6,4-17,44-53,100l18,1c15,2,30,7,29,9-14.2.5-57.8-11.2-42,29-1,12-8,13-11,28,3.3,14.7-5.7,37.9-8,47-2.8,11,89.6,28.4,82,30,0,1-7,2-36,0,26.5,9.5,27.6,32.4,44,49,15.3-79.1,54.7-78.5,70,0,8.2-8.9,17.6-28.3,20-31ZM813.8,482c-5.8-42.2-69-54.2-78-5-19.8,7.2-25.2,11.9-30,34-8.5,6.7-20.2,16.9-31.6,31.5-11.4,14.6-25.3,37-21.8,40.1,2.6,2.3,14.4-6.3,21.2-13.4,8.2-8.5,12.2-17.5,14.2-23.2,12.6-1,13.5-3.4,13-15,12.6-10.3,22.4-9.8,25-31,24.2-10.5,24.2-7.6,36-31,10-5,30,6,31,19-10.8,10.4-28.2,29.9-39.3,59.5-15.6,41.4-9.8,77.9-6.4,93.1,1.2-11.4,4.4-28.3,13.4-46.7,6.8-13.9,14.8-24.4,21.3-31.8-.1-14.7.2-23.4,11-37,11-13.5,21.5-19.2,21-43Z" fill="#03b194" id="layer27"/><path d="M589.8,544c-32.2-27-14.6-44.4-11-78-8.8-43.1-43.3-19.3-54,10-4.1-28.6-7-37-4.9-38.7,2.4-1.9,5.6.6,12.8,1.8,10.6,1.7,23,0,29.1-4.1,13.9-9.5,14.1-44.9-2.8-66.3-20.2-25.5-61.2-26.2-62.1-23.5-.3,1,4.5,3.6,8.9,5.7-2.4-.2-4.8-.4-7.2-.7-2.1-.1-5-.1-8.6.4-1.9.3-4.2.7-4.2,1.2,0,1.3,10.8,1,11.9,4.6,1.4,4.6-14.3,12.5-13.4,14.2.4.7,3.8.2,16.5-4.8-4.4,4.1-8.6,8.4-7.7,9.8,1.5,2.2,14.1-7.5,25.7-5.7,8.6,1.3,18.7,9.3,27.9,34.9-48.3-48.5-56.7,5-69-18-11.9,22.9-21.6-30.6-69,18,26.7-68.7,64.8-7.1,46-39,11.8,5.3,14.8,5.8,15.2,5.2.8-1.4-12.9-8.6-11.6-14,.8-3.2,6.6-4.6,11.4-5.3,0-1-7-2-14-1h-6c4.3-4.5,4.9-6.4,4.3-7.2-3-4.8-54,8.2-68.3,44.2-1.9,4.7-8.9,22.4-.1,35.9,9,13.8,32,19,56.1,10.1-25.8,47,1.7,42.2-38,9-50.6-2.5-12.2,54.6-20,80-32.2,33-25.3,37.7,7,12-19,41.7-17,30.8,11,10-6.1,9.6,10.3,28.1,18,33-8.2-21.4-8.5-45.9,13-14,14.6,4.5-12.8-27.2-16-31-8.1-7.9-6.2-35.1-9-45,35.2,52.6-22.8,28.7,47,59,13.3,6.9,31.8,7.7,45,0,12.2-8.6,28.2-7.1,38-19-8-18.3,3.1-24.5,10-40,0,0-4,32-4,32,.1,17.2-27.5,28.6-24,46,0,0,2-2,2-2,4-4.1,11.3-16.5,18-16,3.7,6.8-1,22.9-5,30,5,1.2,11.2-11,14-14,4.8-5.4,7.8-11.9,5-19,9,3.7,15.2,14.5,23,20,1.8-3.6-8.7-23.6-12-30,.4-2.8,38.4,32.4,25,9Z" id="layer28"/><path d="M454.8,390c-12.6-13.3-66.2,49.5-47,7,6-14,12-21,11-22-79.4,75.3,61.4,75.8,36,15ZM536.8,376c-1.4-3.3,18.6,34.5,15,36-4.6,1.2-33.5-21.7-40-22-24.9-5.7-15.3,26.7-6,31,57.3,45.1,69.5-24.6,31-45Z" fill="#a24fcc" id="layer29"/><path d="M450.8,499c-5.7-4-18.1,1.7-24,5-1.7.8,11.5,14.4,13,13,8.3,4.6,13.1,1,20,0,13.6,6.9-2-15.1-9-18ZM472.8,521c-7.2.9-3.1,11.1,3,7,.3-2.7.1-6.1-3-7ZM528.8,504c-15.5-13-37.9-1.7-38,15,16.6-5,20.6,9.3,38-15ZM482.8,521c-4.5.6-2.6,4.4-3,7,6.1,4.1,10.2-6.1,3-7Z" fill="#fd9804" id="layer30"/><path d="M415.8,463c-11.8-22.5-24.1-18.5-33-5-2,6.8,2.9,12.5,7,17,2.8,6.1,2.7,11.3,8,16,4,11.8,3.3,12.4-2,1-5.5-4.2-6.5-5-7-12-4.3-8.7-8-8.5-3-2-1,11.9,5.8,13.9,10,24,5.2,5,5.3,4,6,14,2.7,9,3,15.9-7,21-15.9,21.3-15.1,21.4,4,6,6.8-1.7,3.7,23.9,13,24,0,0,0-11,0-11-1.5-10.7,1.8-17.2,9-9-19.4-22-11.6-53.6-22-76,.8-1.6,27.5,45.9,23,28-.5-5.2,6.9-10.6,8-13,1.9.4-17.4-23.5-14-23Z" fill="#0d5ace" id="layer31"/><path d="M394.8,531c5.7-3,5.4-9,1-14,.6-8-7.4-17-11-24,0,1,4,7,5,16-.3,19.6-12.7,26.4-23,39,8.1-6.1,19.1-12.9,28-17ZM560.8,537c-7.6-5.6-10.6-8.8-8-17,1.3-4.1,1.2-13.4,3-14,5.2-4.8,7.9-12.4,12-17,1.8-4.1.1-10.9,4-16-3.7.4-5.8,11.5-7,15-5.4,2.2-7.2,9.8-11,14,2.6-5,3-12.7,8-16,2.8-6.5,2.4-12.6,9-17,9.2-12.1-8.4-25.8-20-21-5,1.5-16.8,27.2-24,34-4.4,6.6,10.3,11,7,21,0,0,23-33,23-33-10.6,21.5-3,57.1-22,76,15.7-14.6,6.4,17.8,8,21,5.4.4,10.5-17.2,10-25,15.4,5.9,28.9,24.8,8-5Z" fill="#0d5ace" id="layer32"/><path d="M577.8,536c-10.8-7.3-15.8-33.6-7-43-2.1,3.3-9.3,13.2-10,17,0,3.4-1.7,9.4-4,12-2.8,11.2,15.3,13.1,22,18,0,0,10,8,10,8,0,0-11-12-11-12Z" fill="#0d5ace" id="layer33"/><path d="M451.8,394c-15.9-7.4-62.9,51.2-47,3-39.1,54.9,82.1,34.5,47-3ZM550.8,397c15.2,41.8-25.7-.2-39-3-36.4,2.8,2.2,44.1,28,38,18.9-.3,24-27.9,11-35Z" fill="#b54ebd" id="layer34"/><path d="M452.8,504c-5.3-7.1-15.8-3.3-23,1-2.6,0,10.5,7.8,12,10,5.2,1.1,17,0,21,1-.9-2.1-9.3-14-10-12ZM525.8,505c-12.2-10.1-26.9-2.9-33,11,15.2-2.2,21.1,2.1,33-11ZM411.8,456c-8.6-18.1-34.7-4.2-25,12,5.2,4.8,6.7,8.5,7,15,4.9,2.6,9.3,17.4,8,20-4.3-3.7-7.5-12.2-13-14,10.4,10.3,16.6,23.6,16,40-2.2,4.9-15.3,13.4-18,22,23.8-26,12.1,4.6,24,13-.2.1-7.1-29.6,7-21-7.6-4.1-13.8-28.1-14-39,3.2-14.1-8.8-19.1-10-32-8.9-5.1-10.2-17.1,3-17,4.5-4.2,8.4-1.9,9,4,5.5,1.6,6.7,1.5,8,8,5.7,3.9,15.2,19.1,16,20,.2-9.8-10.6-18.9-18-31ZM550.8,530c-.5-15.1,4.8-30.8,16-41-7,2-16.8,25.9-12,4,1.6-6,8-10.6,8-17,2.4-4.7,8.2-10.3,8-17-12.9-33.5-44,15-45,28,1.6-3,15.6-18.9,18-25,5.3-1.8,5.6-5.5,9-9,8.4,2.1,22.6,4.6,12,16-5.9,5.7-4,14.2-12,21-1.6,13.7-3.7,44.4-15,53,13.7-9.9,7.4,22,7,21,12-8.1-1.6-38.7,24-13-2.4-8-15.6-17.6-18-21Z" fill="#d34480" id="layer35"/><path d="M392.8,512c.8-3.3-2.2-11.3-4-11,0,0,4,8,3,18-.3,9.8-12.4,16.1-18,23,12.1-9.1,32.1-11.5,19-30ZM572.8,533c-11.8-3.4-9.2-29.5-6-32-3.5.6-4,11.6-6,15-11.1,14.2,13.1,17.3,21,26,.5-.2-12.7-10.2-9-9ZM445.8,396c-9.1,3.1-38.5,23.9-36,22,1,2,14-4,15-3-2.3,9.2-22.2,6.2-25,2,4.6,21.1,32.3,13,41-1,16.5,4.6,21.1-18.4,5-20ZM555.8,417c-3.6,4.1-23.2,7.3-25-2,1-1,14,5,15,3,1.6,3-27.9-21.6-37-22-15.7,2.4-10.5,23.9,6,20,10.8,17,36.6,17.6,41,1Z" fill="#d34480" id="layer36"/><path d="M445.8,504c-20.3-2.8-2.3,15.3,6,8,1.5-1.9-2.4-9-6-8ZM519.8,506c-5-4.8-18.7-3.2-16,6,3.7,4.3,15.5-1.2,16-6Z" fill="#f89a1e" id="layer37"/><path d="M443.8,399c-5.6,3.3-20.8,17.4-26,15,29.3-5.3,4.4,13.6-10,10,14.5,9.6,25.6-2.1,35-13,12.4,4.6,12.9-13.4,1-12ZM547.8,424c-13.4,3.8-39.3-15.1-11-10-2,2-18-8.5-21-12-11.2-11.8-20,14.1-3,9,9.4,10.4,20.2,24.3,35,13Z" fill="#f74754" id="layer38"/><path d="M418.8,484c-8.6-3.2-5.8-13.8-14-16-1.9,0-17.5-7.6-9-1,4.8,4,21.4,31.4,25,37-.4-6.3,6.1-16.5-2-20Z" fill="#b54ebd" id="layer39"/><path d="M473.8,524c-2.7-.9-3.2,2.4-1,3,1.9-.6,2.1-1.4,1-3ZM448.8,506c-3.3-1.9-8.7-1.9-12,0-.2,7.8,20.1,9,12,0ZM481.8,524c-3.2,6.6,8.1-.6-1,0h1ZM518.8,506c-3-4.1-11.3-1.2-14,2-.4,8.5,13.8,3.7,14-2Z" id="layer40"/><path d="M431.8,521c8,11.6,25.8-2.5,31,8,3.3,4.1,10.3,7.9,15,10,4.5-2.8,11.6-5.9,15-10,5-10.2,23.7,3.3,31-8,6-5.1,8.9-16.7,4-13-2.1,5.3-6.6,13.3-12,14-13.4,3.7-22-8.1-29,9,0,0-7,2-7,2-1.5,2-2.5,2.1-4,0-13.7-.8-8.1-15.4-22-11-9.1,2-20.5.9-24-10-6-11.8-7.9,1.1,2,9Z" fill="red" id="layer41"/><path d="M523.8,526c-12.2,6.2-22.5,9.8-29.8,11.9-7.1,2.1-11.6,2.8-16.3,2.9-7.4.1-13.4-1.3-17.4-2.6-4.2-2.2-8.7-4.3-13.6-6.4-5.2-2.2-10.2-4.2-14.9-5.8-19.1,4.9,13.8,6,20,11,7.1,9.6,16.4,3.5,26,8,9.4-5,18.7,1.8,26-8,6.1-3.5,39.3-7.2,20-11Z" fill="red" id="layer42"/><path d="M392.8,428c-10.5-23.4,21.3-78.8,59-60-3.3-8.8,3-4.5,7-5-12.2-12.5,13-10.8-15-10,19-25.2-85.1,25.2-51,75ZM464.8,502c-12.7-25.7-52.7,1.7-24-9,23.6-2.1,31.1,37.5,24,9ZM504.8,363c-6.5,13.2,25.2-7.8,40,11,22.9,21.6,19.2,40.2,18,54,15.1-22.6-1.4-53.4-24-70-16.9-10.9-43.6-15.7-27-5-1,2-14-2-15-1,6.2,3.4,3.2,8.1-1,11,1.8.5,7.1-1.4,9,0ZM482.8,492c-5.7-13.1-12.3,1.3-11,9,0,0,6-9,6-9,4.4,6.4,7.9,13.4,5,0Z" fill="#03b194" id="layer43"/><path d="M477.8,497c-5.8,3.5-6,16.8,0,22,6-5.2,5.8-18.5,0-22ZM479.8,509c-2.4,13.3-5.9-2.6-2-6,.5,1.5,1.5,4.5,2,6ZM518.8,491c-16.6-5.6-29.9,8.2-31,23,14.7-40.7,51.9-4,31-23ZM429.8,487c.1-9.2-15.9-16.3-17-26-6.9-.8-8.8-13.7-16-11-22.4,5.7-2.2,20.1-2,32,5.6,5.6,7.5,13.4,9,22,0,0,1-11,1-11,2.4-11.4-8.9-25.3-13-32,3.4-7.5,8.8-5.9,12,1,4.5,1.4,6.3,3.9,8,8,2.1,2.2,6.2,1.5,5,6,5.6.2,6.7,12.2,13,11Z" fill="#03b194" id="layer44"/><path d="M492.8,491c2.3-1.3,4.7-2.7,7-4h-10l13-4c6-.5,7.8-3,8.3-3.9,1.9-3.2.3-7.8-2.1-14.6-.9-2.5-1.5-3.7-2.2-6.5-.8-3.2-1.2-6-1.3-7.8-9.9-.2-12.7-.7-12.7-1.2,0-.5,2.7-1.4,12.9-2.8-4-8.7-7.9-17.4-11.9-26.1,17.4,13.4,4.3.4-16-29-52.2,68.7,9-4.2-31,56,8.8.9,13.2,1.8,13.2,2.6,0,.8-4.1,1.6-12.2,2.4,2.6,25-18.3,26.4,18,35-16.1-.7-3.2.3,1,11,1.9,3.1,5.4-13.6,11-16,8.8,6.2,7.1,26.9,15,9ZM569.8,460c-2.2-8.1-10.8-13.7-19-8-1,5.4-3.6,7.4-9,10-1.2,8.8-16.1,16-16,25,2.9,2.2,7.5-7,9-9,3.1-.2,3.3-2.5,3-5,9.8-3.4,3.2-8.4,14-11,6.7-13.2,18.8-.2,3,10-5.9,9.3-3.6,22.6-4,32,.3-10.7,8.6-17.8,10-26,3.1-6.9,7.8-10.8,9-18Z" fill="#03b194" id="layer45"/></g></svg>