<svg xmlns="http://www.w3.org/2000/svg" id="Layer_1" width="1024" height="1024" version="1.1"><defs><style>.st0{fill:#181818}.st2{fill:#fd0101}.st3{fill:#141414}.st4{fill:#2a2a2a}.st7{fill:#3e3e3e}.st8{fill:#080808}.st9{fill:#73a125}.st11{fill:#050505}.st12{fill:#060606}.st18{fill:#363636}.st19{fill:#f70001}.st20{fill:#202020}.st21{fill:#f1f1f1}.st23{fill:#050504}.st24{fill:#222}.st26{fill:#0d0d0d}.st28{fill:#1d1d1d}.st29{fill:#191919}.st30{fill:#0b0b0b}.st35{fill:#f5f5f5}.st37{fill:#0a0a0a}.st39{fill:#101010}.st41{fill:#161616}.st42{fill:#f3f3f3}.st45{fill:#f7f1b9}</style></defs><path id="Layer_6" d="M0 951q511-132 1024-260v333H0z" class="st18"/><path id="Layer_3" d="M0 0h1024v685L1 943z" class="st45"/><path id="Layer_8" d="m309 798 15 3 24-8 13 32c-4 5-15 19-14 38q-1 8 6 20c9 13 26 15 37 17 25 3 29-5 50 0 14 4 14 8 28 10 6 1 9 0 36-3q29-2 35-9 9-10 6-20c-4-15-25-20-28-21a70 70 0 0 1-45-16l22-53-21-30q35-39 46-66c16-31 31-62 23-96-4-15-14-27-32-50q-34-41-65-68l3-67 19-41 45 41-2 13a181 181 0 0 0 17 48l-5 20c-5 23 0 41 10 45q3 2 11 0a74 74 0 0 0 43 26c8 7 13 16 12 18l-6 2c-14 0-27-11-25-14 1-2 7 1 11-3s4-8 2-11c-4-4-17-3-21 3-7 9 5 38 24 44 7 3 14 2 19 8 3 5 3 10 8 14q2 2 9 3c7 1 10-5 11-9l-7-9a108 108 0 0 1 35 27q-13 0-19 8c-2 5 2 11 0 12s-18-6-26-21c-2-5-5-12-7-11l-2 5 15 22q6 11 17 10 9-3 11-6l8 8 4 7-2 3q-2 4 0 9l2 7 2 6 1 5 4 10q2 4 6 4 2 0-4-15c-3-13-4-17-2-20 1-2 3-1 6-5s3-8 5-8l2 1 3 11 5 15c1 6-2 7-3 21v3l-1 4-4 23-17 30q-6-2-7-5h-4a41 41 0 0 1 11-29q8 6 10 5 6-1 12-22 4-10 2-15l-3-4-1-2q-2 0-5 4l-1 5-3 12-4 7-6-1-6 5c-10 9-13 21-14 28l-1 10 5 2h3q0 3-4 6c-3 4-6 3-12 6-2 1-9 6-10 12q1 7 4 10l15-24v11q-1 2 8-1l4 3a78 78 0 0 1-11 24l5 3a29 29 0 0 0 8-13l3-9c-1-7-8-9-7-14l3-4q3-3 10-1 5-2 11-11c4-7 11-17 9-29l-3-12q-1-10 2-12l4-6q5-6 8-7 3-4-4-22c-5-17-4-22-8-24l-8 1q-5 1-15-7l-3-3-11-14q-10-13-18-19l-16-10q-4-1-8-12c-3-8 2-10-1-19l-7-14-4-6 19-8c13-6 16-8 18-12q4-8 2-14c4-11 9-12 10-20-14-47-16-72-15-86q2-4-1-13c-5-13-23-12-37-24q-10-7-15-32l-33-51 1-44a62 62 0 0 0 38-34l-5-29 15-16s5-10 6-21c0-27-34-47-45-54-10-7-30-18-58-18-38 0-64 23-71 29-8 3-38 15-53 46q-7 17-8 30-44 0-56 9-5 4-20 7c-13 3-18 1-30 1-19 1-19 8-50 14-17 4-19 3-28 6q-22 10-31 23l-29 94-12 4a388 388 0 0 0-93 105c24 52 43 62 57 62s26-8 31-2q3 6-2 13l-9 6q-6 6-8 16c-4 18 7 39 9 43l10 6 1 25q-3 1-8 7l-8 13 18 41 18 4q18 6 19 3c1-3 1-3-5-11l-10-15-7 3-6 8a93 93 0 0 1-11-36l5-6 7 9a88 88 0 0 0-6-68q-6 8-9 7-7-2-1-40l11 9q7-6 10-5 7 3 1 33l-3 4c-5 11-2 22-1 27 5 21 8 24 13 41 3 14 4 25 7 25s3-3 4-5c5-12 3-32-9-43-6-5-10-4-13-10q-5-9-2-20l3-4 8-9c2-4 5-12 5-32l-15-32q10-1 25-10c27-19 26-54 26-58 71-27 91-26 96-18 7 10-16 29-8 57 5 18 15 32 15 32 5 7 8 9 9 15 3 10-4 17-9 31-6 18-1 23-5 36-5 16-17 19-42 38-33 26-52 56-65 74l-19 32q-6-5-19-7c-12-1-21 5-27 8-28 18-54 68-57 74q-3 14-2 37c4 38 26 63 36 73 0 7 1 23 12 38 15 20 37 24 43 25 10 2 12 0 33 1l34 3c12-4 23-17 22-29-1-10-11-17-17-20q-11-7-19-7a106 106 0 0 1-13-73l24-12v8c3 10 11 16 13 17 12 8 19-1 32 6 11 6 8 13 19 19 14 7 35 2 37-6 2-5-4-12-7-15q-11-10-17-10l-6-4q-10-2-13 1-9 4-16-2l-2-5c-2-3-10-12-21-13-3-1-10-1-13 3-4 5 1 15 4 15s3-12 11-26l13-15q3-4 2-12c0-10-7-16-9-18l103-77 42-21 21-56 17-24 31 12-14 22-14 27v46l-21 3q-6 1-15 11c-8 9-9 19-10 22l-6 1q-3-3-14-5c-9 0-15 5-16 6l7 3 6-3q3-2 15 4-9 2-9 6 3 3 6 3l-1 7q-5 7-17 11h-13c-1-2 10-3 10-7q-1-4-7-6-2 3-5 3-4-2-3-7l7-5q-2-2-7-2-6 1-5 13l2 7q-3 4-8 4-5-3-8-7c-7-4-19 0-23 9l-2 8 5 2c6-1 7-13 12-14q3-1 9 10l5 6q-1 7-5 10c-5 5-8 5-10 9l2 6 14-7q7-6 7-10c1-6-4-9-3-14q3-5 7-8zm32 200-5 7 15-2-1 3-7 4-12 2-1 1 8 3 6 8h-24q1-4-2-10-7-3-21 10h-10c2-2 6-9 15-12q16-4 21-1-3-2-5-7-4-11 6-21l14-5 1 4-10 5c-3 7-5 16-3 17q2 1 9-2zm16-14 1 8-2 7v5l3-1 3-5c3-5 5-13 2-15q-4-2-7 1" style="fill:#f7f7f7"/><g id="Layer_4"><path d="M465 184c4-2 8-2 28 7 23 9 31 15 43 16q13 3 17 2 8-2 11 1 3 2 1 6 0 2-4 3c-5 3-4 9-7 12q-7 5-33-6l-25-8c-29-8-40-4-43-11s3-18 12-22" class="st19"/><path id="Layer_2" d="M512 112c14 3 18-4 28 0 6 2 5 5 19 18q17 14 16 16 0 2-14 1c-20-1-21 2-29-1-8-2-8-5-16-7l-16 2c-22 4-26 4-26 6l7 4 12 5q9 4 14 4h11l14 4c18 6 38 2 39 6 0 3-12 4-14 11-1 6 6 9 5 20q0 7-2 7-4 3-8 1c-5-3-1-13-6-19q-1-4-13-6c-16-4-24-3-46-5h-16c-3 1-20 4-21 14-1 7 5 13 10 16s9 2 20 4q13 1 22 5c9 4 16 8 21 24 3 8 0 9 0 35s1 18 2 21q8 16 14 21c28 26 12 30 37 65q10 37 20 54l21 41q4 4 7 13c0 7-3 9-6 19-2 9 1 9-1 13-5 11-20 18-34 17l-10-3q5-1 8-5c4-6 0-13-2-23v-23c0-11-2-31-12-68-1 47-6 63-12 68-1 1-7 6-9 14l-1 9c-2 6-6 13-8 12-1 0-3-2-2-17q17-45 3-92l-41-38-26-38q-14 35-41 62l2 96h4c13-3 43 37 43 37l16 22q9 7 18 20c15 23 16 46 16 57a69 69 0 0 1-16 40l-22 32c-28 40-41 60-43 70s-3 15-9 17c-4 1-6-2-15-5-15-5-22-2-24-6-2-5 6-10 12-23 3-7 3-12 5-23 3-29-4-34 2-53q6-17 11-22c8-11 20-20 25-24q13-9 13-12h-12q-9 0-26-7c-22-7-24-11-30-9q-26 29-43 64c-5 12-3 15-7 20-5 6-9 6-24 12l-26 13c-12 8-13 12-26 24l-40 27q-34 23-36 27-2 3-7 5-4-2-6-7-9-12-36-21l-4-3c-2-5 6-10 14-20q9-9 16-25c7-13 6-16 11-26s13-26 33-36q23-10 48-15c7-3 9-11 10-15 5-25 1-43 9-65q11-33 14-37l1-4c0-4-6-5-8-6-21-11-22-37-23-40-1-6-5-30 8-49 5-8 9-10 12-18q3-10 1-27c-1-18-4-18-5-34-2-27 1-46 1-46q3-11-2-17-3-1-10 1-33 10-64-1-2 3-1 15-2 11-8 19c-7 12-12 11-23 23l-17 26c-10 16-13 21-12 26l-5 85q-3 6-10 10c-10 4-17-5-28-1-8 3-11 10-17 9q-4-1-5-3l-21-14-10-10q-9-5-10-8l4-9c1-6-6-9-6-15q0-5 16-14l27-12q13-5 27-32l1-9 7-11 11-27 14-40c5-14 13-27 15-42q0-4 4-9t16-5l27-3c10-2 9-6 20-11 18-9 38-8 50-8l12-1c10-2 12-6 19-8 9-3 9 1 23 0q14 0 27-6c5-2 13-6 18-4l3 1q1-2-2-11-2-12 4-22c1-3 9-23 30-33l14-5c8-5 10-10 19-17q6-6 15-9c15-6 29-2 32-1 12 4 10 8 21 11" class="st9"/><path d="M387 822c6-1 8 2 24 8 19 9 20 7 37 14 22 10 21 14 43 24 24 11 38 11 38 15s-21 9-39 10c-28 0-29-9-55-9s-32 7-51 0q-10-2-18-13c-10-17 5-46 21-49M56 838c11-20 42-35 62-26l11 8c16 11 25 17 27 27 1 6-2 8-6 20-6 22-2 41-1 48 2 9 6 25 18 35q6 7 14 10 11 2 15 6 3 4 1 7c-4 8-32 6-50 0-14-4-33-9-46-26-17-22-16-53-31-66l-9-9q-7-7-9-17 0-12 4-17" class="st9"/></g><g id="Layer_11"><path d="M169 908q3 27 12 31c10 7 21 3 30 12 6 7 7 16 7 18 0 12-10 20-13 22-11 10-29 10-45 3l-12 3c-3 0-44 4-66-26q-12-19-12-33v-5L0 951v-8l72-18c-5-3-38-24-46-66-9-45 17-77 20-81l73-52a1198 1198 0 0 1 86-78 291 291 0 0 0 61-61q0-28 14-54c-6-5-19-18-25-39-9-32 6-59 9-64a519 519 0 0 0-100 44 54 54 0 0 1-45 43c0 11 18 16 15 30-2 13 1 41-14 46-4 2-1 18-2 20 21 1 38 52 18 62 2 2 11 12 8 14-2 4-19-5-20-5l-19-3c-16-13-24-32-19-48q7-13 14-17l-1-16c-3-1-13-6-17-17l-2-9c0-3-3-26 3-39q2-5 9-11l7-2 1-13-16 2c-4 0-39 3-58-20-20-25-10-64 6-84 10-13 18-11 33-31q18-22 24-25 8-7 28-14l5-13c10-28 7-37 17-61 6-16 12-31 27-39q19-8 30-5 41-24 88-19 35-17 73-15c4-36 29-66 64-75q12-15 19-19c16-10 32-10 41-11 20 0 60 5 91 33 11 10 28 25 26 45s-16 29-21 33c1 2 8 11 6 23q-3 14-8 17l-3 6c-19 36-32 46-29 59l12 17c3 4 13 18 22 34 15 26 11 26 18 33 9 8 24 12 31 22q4 4 5 15l1 8c4 37 5 47 9 64l3 13-7 16-3 5c3 23-23 29-39 34 27 33 2 35 21 51q8-6 15 0c7 10 37 24 27 39l16 14q6-3 14 0 4 2 6 14c5 16 7 18 7 25q-2 11-6 12l-3 2h-2q-2 3-6 19l5 3q7 11-10 35l122-30 223-56v6l-273 70-85 23s-5 3-8 1l-2-1-1 3c0 5 7 7 7 13q1 3-1 6l-3 6-2 5c0 2-3 8-8 9l-3-1-2-4 3 2h3c3-1 2-4 5-10l5-9c1-5-4-11-5-11q2 2 3 9c-1 6-6 7-9 16l-1 6-3-2v-6l6-8q4-5 2-11c-2-6-9 1-10-2q-2-3 1-7c-11 17-14 21-15 20-1 0 1-9 7-16l5-5c-1-1-14 4-14 10l1 6 1 5q-2 1-5-6 0-8 2-9l-6 1-111 28-29 8-6 11 13 7 13 5c65 1 67 61 1 55q-18 5-36 4-13-4-18-8c-25-14-60 9-83-9-6-5-11-13-11-13q-6-11-7-19h-3v10c-2-1-9 2-10-3l-12 12q-2 1 7-15l-24 7 9 10q5 9 6 21l5 19c-9 5 1 1 5 10-1 4-8 8-12 10q-3-3-7 0-3-2-7-2c-4 1-6-9-9-7 10 11-7-1 0 16-3 3-11 6-16 7-5-3-15 1-13-9s-7-12-3-15c-2 0-8-3-7 2-7-8 3-6-2-8-3-2 4-4 5-5l-9-11-3 1q-3 0-5-8l-28-8-21 6zm320-577-17-16-1 2c-4 10 28 29 36 33m62-207h-1zm-193 89c-42 30-49 127-58 176 17-57 15-127 58-176m50-97v3c9-14 22-22 35-32-13 0-26 17-35 29m36 609q15-25 17-25l-21 42c13 11 30 27 15 43-10 10-2 31-20 34-9 9 33 24 43 29 9 6 17-1 24 3 4 7 21 6 12 17l-16 8c-19-5-39 9-57 0-29-25-101 18-99-38 2-11 14-28 19-38q-28-15-13-42c-21 2-16 35 0 44-7 14-17 26-16 43 5 56 70 19 102 38 16 11 33 3 51 2 26 9 63-28 24-41-9-11-21 1-32-7l-30-14c14-9 7-23 16-34 15-17 1-35-11-49 25-53 98-108 64-172-24-38-60-78-90-108 2-61-11-64 27-118q15 32 44 50-6 15 4 26c-1 13 5 22 10 34-1 20-25 72 18 62l-1-10c-35 9-1-38-7-53 1-10-13-15-10-26 0-13-12-23-2-36l-16-14q-25-23-39-54-11 37-37 66l1 75 29 30 18 20c14 16 22 25 29 38q24 33 16 74c-4 21-14 35-25 50-31 43-43 69-45 68-1-1 1-7 17-38l36-53q5-9 10-27c5-28-6-51-14-68-21-42-54-67-73-79q50 51 76 116 4 13 0 34c-4 21-18 35-22 39-15 16-34 45-51 102m-137 38c1-1 7-9 4-14l-3-2-3 8c-5 10-15 19-17 17q-2 0-1-6c4-1 12-5 16-14l1-3c-7 0-8-14-12-15l-6 6-1 2q-4 7-9 6-9-4 1-15c31-24 17 7 36-2l-4-7v-7q0-6 5-7h6l6 3-9-1-3 1q-3 3-1 10l3-6 7-5 3 1q-8 2-8 7l2 5c3-1 6-8 11-2 5 5-1 8-6 11 23-9 28-13 27-15s-10-2-10-4q2-4 9-6-1-3-6-4l-4-1-6 3h-1q-5-1-6-3l3-1 5 1 6-2c7-1 14 3 14 2q0-2-6-4c-7-2-14 3-22 4 27-20 33 7 36-6q5-21 15-25c10-7 22-3 28-10 5-7 2-16 1-21-3-14 0-36 28-71l-27-10a104 104 0 0 0-26 43c-4 12-3 19-8 28-6 10-17 22-47 28-29 24-72 56-103 77 27 29-9 41-7 49v1q5 4 8 4c8 2 16 16 15 18q-4 1-10-3-10-11-12-11l-4 9q-1 3-6 3c4 7 13 10 19 7 7-3 8-11 8-11q-15-12-16-11l3 3q6 6 20 14l6 2 10-5q4-1 11 3c14 9 64-14 80-15l16-34-6-10q-5-11-6-18c-10 3-22 11-32 6-9-5-12 5-12 5l5 2q3 2 2 5c1 10-24 30-30 25q-2-1 0-9l3 5q10 1 17-8m-20 73c-3 8 3-3 4-3l2 7c0-5-2-8 5-6-3-5-7-6-9-12-11 4-27-25-38-6 15-7 28 3 39 13q-7 1-3 6m277-689c7-6-1-20-8-24 10 13 8 14 8 24m10-61c-10-14-70-2 0-1M462 247c-33 12-1 76 16 93 9 25 50 67 73 79-14-22-49-44-55-57-2-9-20-29-29-38-1-5 1-21-3-25-24-17 15-67-2-52m80 250c-13 9-2 37 1 13 0-4 0-14 4-17 0-12 11-3 5-17-8-20-7 14-10 21m130 181q-1 2-6 1 1 10 6 22l2 4 3-4q5-2 9 1l-3-8c-5-14-5-28-5-28l-1 4q0 5-5 8M144 317q9-35 29-65c7 0 29-12 32-3q42-22 90-21c0-15 74-15 78-27-27 13-58 2-83 18-3 4-26 1-31 2-30-1-49 27-79 21-27 4-27 56-39 76l-14 35-14 32 3 2zm516 421 7-7h-4q-5 3-8 8-6 8-7 13c-4 8-6 19-5 20l4-3q4-8 3-12c1-13 16-25 16-24l-4 7-11 28 5-3c3-2 2 4 5 6l6 3-3 3-3 3 6-1c5-3 4-8 10-16l5-8 2-12c-2-1-6 5-17 31l-4 1q-2-3 13-25h-8q-8-4-8-12M81 419c-4 4-13 5-18 8-36 9-14 38 9 13-5-9-14 1-21 0q-1-4 4-6c8 0 14-7 22-7 12 0 22-17 4-8m222 101c-6-6-21-23-22-49-1-8-3-31 13-46q8-6 14-8-6-2-15 1c-12 5-15 18-18 27q-3 7-3 27c3 28 26 45 31 48m157-395c10-5 59-3 39 5-8 4-39-2-37 13 39 1 48-5 3-4 18-3 39-9 58 0 3-3-16-9-1-6-16-9-18-31-40-32-45 5 23-4 26 25l-6-4c-11-8-43-3-42 3M356 230c-53 36-80 123-53 182-11-67 8-138 53-182m140-30 38 14c15 4 29 6 31-3-31 1-60-12-88-24-26-8-27 27 0 19 22 2 47 22 79 19l1-3c0-3-9-2-19-4l-16-6c-24-10-34-12-39-11l-11-1q-4-1-5-3l1-4q4-3 28 7M375 493c-16-7-38-4-52 9-29-28 0-75 31-88-36 0-72 60-37 92-15 28-34 62-33 95 0 15-1 29-11 42q6 2 9-2c23-51 14-150 93-148m143-35-12-36-5-15q-17-14-32-32-12 13-18 31-5 23-3 38v35l15 13 12 11q34 36 61 78c11 23 12 41 12 49v1c0 40-27 68-37 77l-28 49-4 6c45 47-52 74 60 44l106-27 4-6q-6 1-10-2c-1-1-3-4 4-18 6-14 11-26 20-26l6 2 4-17-1 2c-2 1-9-7-12-15-5-9-10-24-4-29l3-1-12-14q-2 6-5 6c-12 6-34-22-38-28l-2-5c-1-6 2-7 1-12q-2-7-9-9l-6 1q-6 0-11-5c-2-3-14-16-19-28l-2-9 2-12 2 1-7-6-3-3-6-7q-5-2-11-1c-8-1-13-12-14-13-8-18 10-47 6-56l-3-5zM323 675c-19 12-40 47-59 60-8 3-96 71-63 53 30-26 69-43 94-74q15-13 35-16c30-3 19-37 36-54 57-62 65-152 61-233-4-25 27-34 29-58 19-30 4-29-19-13-7 10-19 53-20 65 17 97-28 182-71 263 0 13-26 29-35 30-1-1 18-26 12-23m-48-116c-6 49-8 64-15 72-6 6-11 4-31 13q-22 10-36 21c-10 10-12 17-26 43l-26 42c-14-6-33-12-43-4-4 3-3 5-8 15-11 20-20 24-20 35q0 4 4 12c-72 31-8 74 1 116-13 49 45 80 85 66 22 7 42 1 48-11 4-6 5-16 0-22-5-7-13-4-23-9q-14-11-18-20c-14-26 1-57-8-61h-6l2 51c0 16 15 41 33 40 6-2 12 4 14 10-3 29-41 5-55 15-5 6-9-2-14-1-6 3-11-3-17-4-61-19-7-64-58-103-22-25 1-56 29-63-19-21 6-29 12-49 5-25 30-7 43 0 38-40 46-113 112-117q15-3 19-16c8-32 4-66 22-96q4-6-2-10c-5-5-24-24-26-54-1-17 4-29 7-36 13-27 14-48 12-62-1-13-5-22-6-41q0-23 2-37-5-2-14-1l-20 2-17-2-17-1c1 36-42 55-53 88 14 10 21 22 8 37-5 11-7 23-21 26-1 14 10 45-10 49-12 5-33 32-5 16 25-10 31-32 26-56 10-19 41-54 13-74 14-24 47-46 51-74h51q-6 34 3 67 2 10 1 29c-2 17-7 22-12 40-5 17-10 35-5 53 2 8 7 23 25 38M84 370c-4 12-8 27-17 36-10 11-20 6-31 17s-6 6-8 10l-3 10c0 3-2 12 3 22 6 11 16 15 18 16 1 2 6 15 20 22s28 3 30 2c-11-13-39-11-43-28-20-6-23-48 1-53 48-18 19-4 31-33 8-12 1-37 23-33l11-1q24-55 43-114c9-10 27-7 39-8q39-24 83-21 43-17 88-19c0-6 0-25 12-42 14-21 33-27 39-29 24-21 56-45 85-17 18 3 40-5 50 15 22 23 43 45 2 62 3 12 19 32 1 40-3 25-40 1-32 34-14 52 45 83 52 132 15 2 31 7 35 18v12c1 17 5 24 0 32l-3 5c-5 12 19 24 16 40-1 8-14 12-9 22 8 19-23 21-33 27l8 7 7-2c14-5 32-12 28-30q12-19 8-27-2-9-12-23c-10-14-4-4-4-8l2-8 4-9v-4c-2-13 2-24-4-37l-3-6-10-7-17-8c-17-9-22-36-22-37-15-32-37-47-36-65l1-8 1-24q23-3 35-22c13-11 2-27-1-40 35-15 22-51-4-68-10-20-34-24-56-22-28-24-65-12-88 14-15 8-33 13-43 30a87 87 0 0 0-17 45l-53 9-27 9q-46-2-86 21-22-3-29 3c-18 9-24 31-33 62l-8 28-12 34c-9-1-21 0-27 7q-4 4-5 10m293 280q12-22 23-32l37 14c-29 32-34 54-32 69 1 8 5 22-2 28-5 5-11 1-21 5-16 6-26 28-21 33s3 2 7 1c-2-24 25-31 44-26 4-45-2-82 42-111 18-4-57-19-55-21l-13 19c-13 15-25 33-28 53-5 24-33 23-51 32-31 37-77 53-110 86 27 14 19 28-2 43 15 13 43-26 17-45l101-79c29-6 42-18 48-28 8-12 6-22 16-41m-93 2c-62-13-96 40-118 89-1 6-27 30-14 27 39-44 64-108 133-108 13-1 25-14 23-26-10 15-13 18-24 18M147 966q8 6 17 8c10 2 31-1 31-4s-8-3-12-4c-48-13-40-82-31-120-23 4-15 94-28 36q-5-16-8-15c-4 1 3 56 23 89q2 5 8 10m279-224c7-34 4-70 39-88 3-2 31-14 31-17h-30c-1-3 31-8 28-12-88 4-62 93-86 149-4 20 18-33 18-32m-61-462q-15 33-19 53c-8 33-6 49-4 57l2 8 1-13c2-16 5-52 26-89 19-35 45-56 61-68-31 3-57 23-67 52m168 34c-5-7-14-11-11-22 5-18-21-47-30-40 16 13 15 30 16 47 34 29 58 84 73 125 17 0-35-99-48-110M427 864q26 3 48 16c9 12 23-5 32 8 12 4 31-9 4-11-30-1-51-29-79-35 21 19-6 19-19 12-3-3-6-9 1-8 8 2 6-12-1-11-24 2 0 30 15 29m-264-65 32 28-7 15c41-21-59-69-82-80l-17 25c28 12 36 12 38 9l5-11 2-6zm226-24c-9-6-10-21 3-22 4-1 19 3 18-5-77-5-12 51 27 52 69 8 12-44 16-26 40 37-50 16-64 1m-206 87q-10 7-17 6l1 33 57-14c-12 0-31-3-36-14-1-2 2-7 0-11l-2-3zM64 850c12 1 21 16 29 24-17-40-17-32 18-62-11-9-45 21-52 30-9 11 0 26 5 8m24-56q-2 4 2 10c2-22 50 22 60 25 18 13 45 32 5 31-3 3 3 3 4 4 16-1 20-4 22-8 5-13-35-41-62-54-7-3-27-13-31-8m297-10c-6-4-11-16-15-2-7 13 10 19 17 26-5-40 44 11 71 1-1 7-15 18 2 15q-2-12 7-19c-29 3-57-7-82-21M202 315c14-15-1-58 0-30-1 44-50 69-60 110 3 1 6 4 6-1 11-31 33-54 54-79m197 561c-31 2-18-35-9-51-12-4-20 23-24 33-9 21 30 30 33 18m-190-53-4-7c-26-19-61-58-95-61l26 15c43 27 71 55 73 53m280-605q-18-6-36 3c24-2 50 1 57 28 24 48 13-30-21-31M120 568c-2-10 5-37-11-20-8 2-7-18-12-3 1 1-2 34 2 31 3-8 10-13 17-5 3 7 2-1 4-3m493-90c-4-6-5-23-16-13 3 11 21 23 16 33q-10 21-32 18c11 22 34-4 40-17 4-4-6-17-8-21M119 637c-7 11-17-10-16 1 1 8 5 24 8 31q1-5 7-11 6-3 13 3c-2 0-7-43-12-25m247 164c5 5 32 35 70 33q13 0 22-5-52 5-91-32m123-490c22 15 42 51 59 67-1-11-66-94-59-67m146 341s0-5 3-8 6-1 7-3q2 0-16-18 0 15-15 15l24 20q-2-1-3-6m-532-50c2 13 2 26 9 38 5-11-6-108-9-38m188-325c7-26 27-39 49-50-64 12-55 80-49 50M138 830c-14-10-47 14-21 21-7-7 17-12 21-21M65 457c-46 4 6 27 16-2 5-12-13 0-17 2m151-174c21 5 56 12 70-6l-36 6c1 1-47-5-34 0M106 519q0 15 3 25l2-2v-28l-1-21-2 5zm390-344c8-2 26 0 26-13-14 6-64-22-39-4l30 10c-7 2-41 7-17 7m32-61c-5 2-18-3-12 7 11-9 34-3 36 11-1 1-39-2-20 4 9 0 27 2 35 6-13-11-18-31-39-28m-145 56c-3 15-3 18-2 18 1 1 4-14 14-29 11-17 25-26 24-27s-9 3-17 10q-13 12-19 28M143 477c-2-6 5-41-9-36 1 8 3 25 2 32-5 12 4 20 7 4m-53 65c28-32-15-16-4 32 0 5 7 12 14 13-13-13-13-27-10-45m517 72q5 9 16 11l-30-38c-8 6 9 22 14 27M99 654c-4-12-6-23 5-31-5-11-15 10-13 16 4 10 6 32 18 37l-11-22m-5-188c-2-10 5-15 13-21-23 0-18 29-17 45q2 9 13 9c-13-9-11-21-9-33m340 148c51 14-7-12-30-13 9 8 20 9 30 13m249 112c3-10 2-22 0-23q-3 1-5 7v13q0 5-4 12l-2 8c1 1 8-7 11-17m-76-202c-8 7-24-3-23 9 9 0 39 2 30-13zm-478-41c1-12 9-33-7-39l1 3c13 14 0 36-4 52q10-5 10-16m517 160q-4-1-6 1c9 8 21 14 26 26q5 4 6 2c2-2-8-13-19-25q-2-3-7-4M121 475c-1-16-20-9-15 5 10 3 14 8 15-6m448 81c16 32 4-19-2-26-8 5 2 20 2 26m-445-7c-1 9 4 27-7 30l2 5c24-16-6-81 5-35m566 162 3-2q4-4 0-15c-2-15-2-19-6-24q-2-4-5-4c-3 0 5 10 8 22q2 14 0 23M108 436c0 7-4 19 4 23 5-5 7-38-4-23m-29 33c-9 3-30 13-5 12 9 1 18-24 5-12m481 23c-3 31 11-6 9-18-9 1-8 11-9 18m44 97c5-9-12-42-25-37 16 6 18 23 24 37m-470 93c-2-3-8-26-13-18-2 7 4 23 13 18m416-176 5-11c-13 4-8 41 4 44-4-8-9-24-9-33m111 166h-1c-4 2 6 39 10 38l1-3zm-527-16c1 1-2 13 2 11 1-8-3-31-5-39-15-23 3 16 3 28m423-131c1-4 29-27 8-16-14-1-8 6-8 16m96 105q-12-13-29-21l6 5c16 13 25 23 26 22zM166 299l5-16c-3-3-18 36-19 36 3 5 13-20 14-20m395 270c1 2 20 33 22 32-6-15-24-24-19-42q-5 4-3 10M350 780q-9 19-32 19c9 5 48-14 32-19m284-122c-10-9-22-18-28-32-4 7 30 42 28 32M528 164c3 9 27 8 34 9 10-2-26-4-34-9m50 344-7-10c4 6 3 24 3 31l2 4 2-11zM308 797s15-8 14-9h-7c-6 8-16 9-22 16 1 3 14-7 15-7m-105 80c-13-23-15-6-1 2q31 7 1-2m84-82h4c-1-14-16 3-21 6-5 14 7-10 17-6m300-313-9-11c-2 18 35 28 9 11M205 857c-3-13-30-8-13-5 7-2 14 17 13 5m448-72q5-7 2-15c0 4-19 33-2 15m-307-12c-15 6 19 0 19 1-6-4-9-4-19-1M231 874c-11-5 8 13 17 10zm322-329c7 4 15 17 8-2-2 1-15-4-8 2m-3-365c2-2-18-1-20-3q9 8 20 3m42 358 1-1h-17l3 2c6 3 12 0 13-1M277 954q10 0 9-7c0 1-18 9-9 7m-30-61c-15-12 1 7 4 9 3-2-3-7-4-9M77 487c5 4 9 8 6-2m217 415q-2-3-6-1c-1 3 4 2 6 1m-6-9q-3 2-1 3zm-20 16q0 2 1 0zm2-13h-1m10-13v-1zM113 671h-1z" class="st23"/><path d="m907 900 3-5c8-3 10-11 15-17l-22-17q-1 4-6 7-11 7-19 19l10 11 10 11 8-9m41 24-5 16q-3 5 2 7 5 4 11 0 6-7 7-15l2-13q0-3-4-5-2-1-4 1l-4 2-6 7m-109-6-7-4-6-2-3 6-1 4 1 3 16 7c4-8 4-10 0-14m136 79 5-2 3-4-6-9-1 1q-6 6-1 14M613 818l4-6-1-2q-8 10-19 9 3 9 8 5 4-1 7-6m366 136 5-9q1-1-1-4l-2 2-8 12zM688 795q7-4 0-12l-6 10zm162 9q5-1 3-6l-4-3-3 5zM429 955l-4 20 3-3zm228-86 2-14h-2l-3 18 1 1zm-246 134-1 13h1l3-13q1-2-1-2zm298-201 2 5h4l1-5zm-102 5 1-7h-2l-4 13 2 1zm209 3-4-9q-1 11 5 15l-2-6m116 49q6-1 4-6l-8 1zm12 109-1 10h1l2-19h-2zm-552 45 1 4c4-10 4-11 1-15zm275-154-1-1v1l-4 16 4-5zm194 132v-6h-2l-1 14h1zm1-207v5h1l1-19h-2zm23 6v5h1l2-12-1-1zm114 27v1l1-1h-2" class="st7"/><path d="m595 380-3-3q-13-16-15-30l22-18-26-45-30 12a69 69 0 0 1 1-43 37 37 0 0 0 28-16l2 16c18 78 88 134 168 132q24-1 62-10c50-13 80-64 85-71q34-60 20-128-18-68-76-107c-62-38-142-34-200 11l-12 12q-10 10-31 40-8-10-19-17a60 60 0 0 0-58-21q-11-14-30-14L319 1l118-1 69 37 101 53 19-19-33-25-60-46h37l83 56 18-9-39-47h29l28 39 34-6-15-33h42l3 34 31 3 11-37h29l-15 46 22 9 10-12 34-43h27l-40 77 19 18 79-62 38-33h26v29l-96 67-31 23 13 25 5-2 104-50 5-1v37l-106 39 5 28 101-15-1 40-100-4v23l101 25v46l-105-53-11 32 27 20 89 70v47l-6-3-125-97-4-3-16 19 32 41 119 154v94L836 371l-29 14 1 4 64 176 51 145-87 22-3-14-21-128-20-127-11-71-34 4v358l-68 17 3-5 4-9q6-13 3-21l-5-3 1-6q1-12 6-14l5-3 3-9c0-14-7-25-7-32l-1-5-3-3 38-265-30-5-25 53-27 58-1-4-4-11-10-23-2-5 1-2 5-10v-7l-1-10-1-16 23-39-31-22z" style="fill:#fe0101"/><path d="M412 113c-8 4-28 13-42 35q-11 20-12 33l-72-10-137-19L0 132V0h23q194 59 389 113" style="fill:#fe0100"/><path d="m0 806 2-2 140-111 5-4 38-30 81-72-3 28c-1 1-2 8-8 12l-7 3-23 9q-19 9-36 23l-14 20-14 28-21 35-19-7c-3-1-14-2-23 5q-8 8-12 18l-3 8c-1 1-11 6-15 18q-2 14 1 18-21 7-31 27-6 16 0 31l6 10 5 8q18 19 23 44L0 943z" class="st2"/><path d="m297 983 1-1q7-8-3-8-6 0-6-4l-9 4-3 3 3 2q7 0 10 6l3 3 3-5z" class="st7"/><path d="M84 511 0 550V366l31-7 86-22-5 11c-2 0-14-3-24 5-8 6-10 14-11 16l-3 14q-5 16-12 21c-10 9-20 5-31 16a41 41 0 0 0-12 34c2 19 20 29 22 30q1 6 8 14c12 15 32 13 35 13" class="st2"/><path d="M68 1002h-3l-3 11 2-1z" class="st7"/><path d="M1010 903h1l8 5 5 5v47h-5l-2 5q-6-3-7 2l-4 2-7 2v-11q-3-1-6-7l1-4-1-3-5-8-7-9v-3h1l1-2 6-5q4 4 7-1l3-4q8-3 11-11" class="st8"/><path d="m323 1011-5-4q-3-3-3-12l1-5c3-8 11-11 13-12h9l2 1-1 3q-3-2-7-1-8 2-11 10l-1 8q1 3 4 4v-5q-1-2 3-11c4-5 11-5 12-5l-7 4-5 10-1 7q2-4 10-7h4l2 3q0 3-4 5l13-2v4l-4-1q-4-2-10 1v2q2 2 6 1l8-4v1l-5 4-8 2h-6v1l14 3 7-8 1-1 1-2h1l6 4q7 3 2 8l-6 7h-15l-1-2h-1l-1 2h-1q1-9-8-8l4 5-2 3h-3l1-4c-4-2-6 4-8 4h-3l-3-7c-7-4-9-3-14 4l-3 3h-3l9-11q-11 2-17 11h-3q2-4 13-12c11-8 15-3 18-3zl-2 10h1l14-19 1-1-2 1z" class="st30"/><path d="m986 771 10 2 4-1v-4q-4-6 3-9l11-4q7-3 10-11v69q-7-9-12-19l-2-3v-2l-4-5-2 4-3 3 1-4c0-10-3-9-13-12z" class="st41"/><path d="m103 1024-4-4-13-15 11-13 2-5 20 7 13 3-11 15-11 10-1 2z" class="st3"/><path d="m215 1024 3-3q6-4 6-12l-3-16q1-3 4-4l16-3q9 0 7 8-3 11 1 19c1 4-5 7-9 6h-8l-5 5z" class="st37"/><path d="M13 948s5 0 7 3 1 6 1 6l-3 8q-5 8-2 15 1 3-2 5-3 6-1 11 1 2-1 5l-12-3v-47z" style="fill:#212121"/><path d="M993 953q3 6 6 7v11l7-2 4-2q1-5 7-2l2-6 5 1v22q-6 3-7 8-1 7-6 1l-17-21-3-3q-6-3-2-9z" class="st3"/><path d="m776 1025-5-17 19-10 11 27z" class="st20"/><path d="M1005 817h2q5-5 6-12l-2-1z" class="st18"/><path d="m1019 908-8-5 2-4q3-1 2-3 1-9-1-18c-2-9-1-7 5-8l5-1v31q-6 3-5 8M49 1024l3-5h2v5z" class="st26"/><path d="M827 232q-6-20-28-26c18-9 21-31 17-46q-6-19-26-24-13-4-27-6V93h-22v38h-18V93h-21v38h-45v24h14c11 0 13 1 13 12v94q1 12-12 12h-17v27h47v36h21v-36h18v36h22v-35l23-2q20-2 33-17c13-15 13-32 8-50" style="fill:#fcf6bc"/><path d="m264 430-59 25-41 19-1-21 2-4q7-16 16-28c10-12 9-30-1-42l-2-3q34-28 49-69l41 1v25l1 11 4 23c2 8 1 25-9 63" style="fill:#fd0000"/><path d="m594 608-68 148-29 62-18 4 3-9c9-10 9-19 9-22q-2-15-14-29l-3-4 34-51 16-22 13-22q17-36 3-73l-4-9 17-31 8 6q-8 11 0 21l14 21q7 10 19 10" class="st2"/><path d="m537 901 37 3-5 12-3 13-3 8-3 17-4 20v17c-6 2-5 7-5 13q-11-6-21-5l-14-2 5-3v-2c-9 1-18-2-27 3l6-7q-6-6-13-1-5 4-12 2l-15-7 5-11v-19l3-15 2-2v2l1 5 2-1 1-5 1-24 9-1 4 2 1 2 3-5 8-2q16 5 31-5l5-2m-53 59 1 8q5-1 7-3 3-3 1-8-1-3-5-6zm-15-4 3 1q7-4 7-11-10-3-10 10" class="st39"/><path d="m475 503-12-11-15-13v-30l53-42 10 6-1 6q-1 8 3 16 3 6 3 11l2 12z" class="st2"/><path d="m822 743-1 4-4 15-2 3-3 2c-5-1-10 1-14-2q-3 0-4 2l-11 29-6 6-12 20-15-12-10-7q-6-7-15-6c-7-1-10-10-5-16l7-4 6-5 3-7 36-9v2q4 5 6 1l7-7zm-59 16-4 6v5h6q4-3 4-7v-6z" class="st0"/><path d="M327 938v5l3-2c5 0 4-4 5-7l5-2c-2-8-7-4-10-4v7zm8-49 4-11-2-1-6 13 1 1zm1 52 2-1-2-2z" class="st30"/><path d="m222 919-3-7-1-2v-1l-3-7h-2l-2 6c-2 10-12 17-22 15l-8-2h12q13-1 16-14l2-6v-4q2-3 6-3l14-3 5 2 5 3 4 16v1l1 2v2q-11 0-12 11l-2 2-3-2z" class="st3"/><path d="m534 410 4 6q-5 8-4 9c2 5 12 6 19 6q10 1 20-1l14-3 9-4q11-6 9-13t-9-7h-10l-2-2c1-1 10-4 18 1 2 1 8 4 9 11s-6 12-6 12c-11 7-30 16-51 13-8-1-20-2-23-11-3-7 1-15 3-17" class="st42"/><path d="M139 399s7 2 18 2l7-1c2-3-5-12-8-15 6 1 12 8 13 13q1 7-7 9h-10q-27-5-50-21-8-7-7-14 3-8 15-10l5 1v5l-7-1q-7 1-6 6-1 5 3 7c3 4 11 11 34 18z" class="st35"/><path d="M89 396v-5l3-7 1-2c19 21 45 25 70 31q-4 19-14 14l5-7q4-3-2-5c-17-1-30-12-46-18l-5 15z" style="fill:#f4f4f4"/><path d="m622 547-14 31a66 66 0 0 0-13-21z" style="fill:#fa0303"/><path d="M570 568q10 1 16-5l6 6 6 14h-6l-5 2-4 5q-12-7-13-22" class="st19"/><path d="M570 441q20-3 39-14l2 16-4 3-5 4-2-14q-22 10-44 6l13-1z" class="st21"/><path d="m551 465-14-6 1-1q18 8 39 5 20-2 35-17l-1 6-6 6c-26 16-54 7-54 7" style="fill:#efefef"/><path d="m94 407 13 13c15 11 32 12 39 12l9 1q-6 3-13 2-3 1-14-1-12 0-29-15-8-11-11-20z" style="fill:#ededec"/><path d="m93 467-1 7q-3 15 10 25-11 0-13-9-3-19 2-36 3-9 15-9c-8 6-15 11-13 22" class="st21"/><path d="M128 483q0 11-10 16l1-5 6-17q3-9 2-19 0-6-4-10l-2-4q13 6 10 20z" style="fill:#ebebeb"/><path d="m108 436 5-5 3 5-1 18-3 5q-5-3-5-10z" class="st42"/><path d="M517 152q1-1-1-6l-4-5c1 0 8-1 12 3q4 4 3 10l-4 4q-9 3-14 2 6-2 8-8" class="st35"/><path d="m535 447-2-12 13 7c-4 5 4 8 3 13z" style="fill:#f6f6f6"/><path d="M261 960v-4l-5-13v-1l-2-3v-2l1-4 6 2-2 1 3 6 2 7q-1 8 6 7l1 2-8 2z" class="st11"/><path d="M433 901q-3 5-9 6l-10 3s3-2 3-5l-1-4z" class="st37"/><path d="M663 800q5 1 10 5 4 4-1 6l-11 4 2-9zM296 950l-2 5-1 2q2 7-6 7 0-7-6-6l9-4 3-3z" class="st4"/><path d="m651 831 4 4 6 7q-12 1-13-11z" class="st3"/><path d="M247 917h-1v-2l-1-2v-1q2-3 3 0l9 11-5 2-2-3q1-5-3-5m49 33-3 1-2-6q-1-5 5-3l1 7z" class="st11"/><path d="m356 914 4-14 1-6 2 1z" class="st18"/><path d="m181 939 3-9h1l-2 10z" class="st3"/><path d="m408 911-4 2 1-5z" class="st37"/><path d="M303 942q-1 5-4 0zm-62-40v-3zm38-7 1 2zm6-14v-1z" class="st11"/><path d="m81 419-2 1z" style="fill:#191f0e"/><path d="m112 671 1-1z" class="st45"/><path d="M655 793h-1z" style="fill:#eaeaea"/><path d="M426 497v-1z" style="fill:#0d0f0a"/><path d="m534 162 1 1z" style="fill:#e8e8e8"/><path d="m757 882 2-3-3-5-11 4-3-4q-5 5-10 0h-5l-3-9 4 2 2-17 1-3q3-2 1-5v-6l1-5q1-7 8-5h1c9-5 18 2 27-1q3 0 3-4l2-8h1v5q-2 10 7 10l9 1h6v-1l3 4c3-2 5-5 9 1 2 2 6 3 4 7l-4 9q-2 6-1 11 3 4-1 7-5 6-1 11 1 4-4 4l-13-3q-3-1-7 3l-1-4q-2-3-5-1l-9 2-5 3-6 3-1-1zm-12-37q-1 5 4 5 6 0 5-6l-2-8-3-2-3 2-1 8m17 17 1 5h2l8-14-1-4-5 2z" class="st20"/><path d="M906 964v7l-34 6-5-9-6-22-4-12c-1-6 1-4 3-4h4c9-2 10-4 11-18l2-6q1 9-2 20c5-2 6-9 13-5q1 11 8 21l-6 2c-6 7 1 22 10 24 4 1 4-3 6-4" style="fill:#1f1f1f"/><path d="m906 900-8 9-10-11-10-11q8-12 19-19 5-2 6-8l22 18c-5 6-7 14-15 17z" class="st3"/><path d="M1003 790q6 4 1 10l-7 9-4 2-1-4v-3l-4 1q-9 3-17-1-2-1-4-6l-4-5 2-9 5-5 2-2h2l2-2 4-1 2-2 4-1 5 3c10 2 11 3 11 13z" class="st12"/><path d="m766 986-6 14q0 6 5 3 8-4 9-12v-7z" class="st18"/><path d="M1005 839q8 14-1 24-9 9-14-2l-2-10-1-9q-2-6 4-9 5-3 9 1c1 2 6 0 5 5" class="st37"/><path d="m947 924 5-7 4-2q2-2 4-1 4 2 4 5l-2 13q-1 8-7 15-6 4-11 0-5-2-2-7l5-17z" class="st0"/><path d="M388 950q4 5 6 0l5-9q4-8-5-14zm229 31-3-3-3 3-2 11-2 10 1 2q4-1 6-4c3-5 8-11 3-19" class="st18"/><path d="M733 921c0-6 4-13 10-12q6 1 8 6 3 4 1 10l-4 13q-8-5-11 3c0-8-6-13-4-20" class="st20"/><path d="m701 1015-3-1q-8-1-3-7l1-3-3-1q-5 0-3-5 0-8 8-7 11-1 12 10l1 14q-1 6-8 3c7-6 8-8 4-16-6 3-5 8-6 13" class="st29"/><path d="M906 964c-2 1-2 5-6 4-9-2-16-17-11-24q2-2 7-2z" class="st3"/><path d="M837 918c4 4 4 6 0 14l-16-7-1-3 1-4 3-6 6 2z" class="st24"/><path d="m957 793-6 7q-3 3-7 1-5-2-4-8c2-4 2-8 8-10l12 4z" class="st37"/><path d="m751 1005 2 2-1 5h-1l-2-4-1 1v5q2 4-3 4h-7q-6 1-7-5 0-7 5-7 5 1 6-2 2-1 9 1" class="st28"/><path d="M344 979v-1l6-4 4-5-1 7-2 8 1 1 5-7 4 1 6 2c5 5 2 18-5 22l-6 1c-1-1 7-4 8-10q1-6-1-9l-3-2-3 1c5 6 5 7 1 12l-2 3v-4l1-4-3-3q-6 2-9-3l-2-1v-2c2-1 5-1 1-3" class="st23"/><path d="m385 965-1 3-14 1-1-6 2-4 1-1 2-2 5-1 4 2 2 3z" class="st8"/><path d="m801 925 1 7 1 5-6 2-4-2-8-4-2-4 1-1 5 2 4-2z" class="st24"/><path d="m782 975-10 4-6 1 2-8c2-6 3-7 11-5v5l5-1-1 2z" class="st29"/><path d="m891 817-4 6q-6-10 0-20 2-6 6-1l3 2-1 5z" class="st37"/><path d="M367 946q5 6-1 11-8 6-5 14l-2 3-3-20 5-4 1-1v8h1l2-10z" class="st23"/><path d="m736 945 4 10-6 1q-4-2-6-7 0-3 4-6z" class="st24"/><path d="m619 1011 6-20h2l3 6q-1 9-10 14zm-219-52 6-19q7 3 4 9c-3 4-2 10-9 11z" class="st12"/><path d="M972 997q-4-8 2-14l1-1 6 9-3 4zm-210-55-7 4h-1l-3-4 4-11 5 3 2 7z" class="st3"/><path d="M612 818q-3 4-7 6-5 4-8-5 11 1 19-9l1 2-4 6z" class="st39"/><path d="M701 1015c1-5 0-10 6-13q4 4 2 9-3 4-8 4" class="st11"/><path d="M1010 903q-3 8-11 11l-3 4q-3 5-7 1l8-7z" class="st26"/><path d="m978 954-5 1 7-12 2-2q2 2 1 4z" class="st30"/><path d="m957 793 3-6-12-4q3-3 7-1l10 2-2 9z" class="st28"/><path d="m899 775 3-19c3 5 0 20-4 26z" class="st3"/><path d="m688 796-6-3 6-10q7 7 0 13" style="fill:#2b2b2b"/><path d="m550 849-5 2c2-6 2-12 11-12q0 7-6 10m83 13 1 1v1l-7-2c-4-4-5-13-2-19l1 3q-2 14 7 16m242-96-6 5q0-9 10-12l-5 7z" class="st3"/><path d="m849 804-3-4 3-5 4 3q2 5-4 6" class="st4"/><path d="m858 863-3 12-2-1 5-17h2l-2 5z" class="st3"/><path d="m885 833-1 14q0 5-4 4l4-21 1 4zM429 955l-1 17-3 3z" class="st0"/><path d="m637 810 2-4h2q-1 9-5 18l-2-1 3-12zm20 60-2 4-1-1 3-18h2z" class="st3"/><path d="m411 1003 2-3 2 3-3 13h-2z" class="st28"/><path d="m753 975-10 6-2-2 10-7 1 3z" class="st24"/><path d="m865 890 2-15 2 2-2 15z" class="st29"/><path d="M709 802h7l-1 5h-4z" class="st37"/><path d="m607 807-3 7-2-1 4-13h2z" class="st3"/><path d="m816 810 1 6q-6-4-5-15z" class="st26"/><path d="m931 859-4-5 8-1q2 5-4 6" class="st37"/><path d="M943 968v-9h2l-2 19h-1z" class="st29"/><path d="m391 1013 2-11c3 4 3 5-1 15z" class="st3"/><path d="M848 883v-4h2l-2 13h-2z" class="st29"/><path d="m685 947 4-3 1 1-2 7h-1z" class="st26"/><path d="m666 859-1 12-4 4 4-16v-1zm-28 88 2-14q3 8-1 15h-1zm222 45-2 7h-1l1-14h2z" class="st29"/><path d="M861 784v-14h2l-1 19h-1z" class="st3"/><path d="m981 929 7 9q-6-2-7-9" class="st29"/><path d="m868 908-4-1 1-6v5l5-2 1 1z" class="st39"/><path d="m884 789 2-7 1 1-2 12h-1z" class="st24"/><path d="m801 925-8 3c0-5 5-4 8-6z" class="st3"/><path d="m963 793 4 5z" class="st28"/><path d="m383 957-4-2m-8 4-2 4z" class="st24"/><path d="m993 946 1 3z" class="st3"/><path d="m374 956-2 2z" class="st24"/><path d="m365 947-1-1h3z" class="st30"/><path d="M981 926v2z" class="st29"/><path d="m982 772-2 2zm-6 3-2 2zm-4 2-2 2z" class="st41"/><path d="M998 817h1l-1 1z" class="st18"/><path d="m293 989-3-4q-3-6-10-6l-3-2 3-3 9-4v2q2 3 5 1 5 0 6 3 3 4-2 7z" class="st4"/><path d="M356 954c-6 4-5 6-2 14h-5q-12 3-21-7h1q9 5 21 6l-4-7 2-2 3-5z" class="st23"/><path d="m218 910 1 2z" class="st4"/><path d="m68 1002-4 10-2 1 3-11z" class="st0"/><path d="m1005 817 6-13 2 1q-1 8-6 12z" class="st3"/><path d="m483 960 4-9 5 6q1 5-1 8-3 3-7 3zm-15-4q0-13 10-10 0 7-7 11zm-134-67-2 2-1-1 6-13 2 1zm-10 64-12-1c1-5 5-2 7-3l6 3-2 1zm6-18 4-1c0 3 1 7-5 7l-1-3z" class="st23"/><path d="m328 938 1 3-2 2zm8 2v-2l2 2z" class="st11"/><path d="m245 913 1 2zM93 404l-2-2zm157 518h-1l-2-5q4 1 3 4z" class="st23"/><path d="m256 942-2-3z" class="st3"/><path d="m745 844 1-8 3-2 3 2 2 8q1 6-5 6c-6 0-4-2-4-6" class="st8"/><path d="m762 860 5-10 5-2 1 4-8 14h-2z" class="st23"/><path d="m766 986 8-1v6q-2 8-9 12-5 3-5-3z" class="st26"/><path d="m783 973 1-2 5-5q0 5 5 3l4-1v5l-2 2v3l-6 2-9 2 1-6v-1z" class="st30"/><path d="m781 982 9-2 6-2c-1 3-8 8-11 8zm17-14-4 2q-5 2-5-3 6-6 9 1m-2 7 2-2z" class="st29"/><path d="m388 950 6-23q9 5 5 15l-5 8q-2 5-6 0" class="st8"/><path d="M617 982c5 7 0 13-3 18l-6 4-1-2 2-11z" class="st23"/><path d="m617 982-7 9 1-10 3-3z" class="st29"/><path d="m783 973-1 2z" class="st18"/><path d="M363 957h-1zm-2-7-1-1 1-1z" class="st30"/><path d="m345 960-1 2-13-4 9 1z" class="st23"/><path d="m324 953 2-1 1 2q-1 1-3-1" class="st30"/><path d="m330 956-2-1 2-1z" class="st23"/><path d="M0 0h1024" style="fill:#fdf6bc"/></g><path id="Layer_9" d="M827 232c5 18 5 35-8 50q-13 14-33 17l-23 2v35h-22v-36h-18v36h-21v-36h-47v-27h17q13 0 12-12v-94c0-11-2-12-13-12h-14v-24h45V93h21v38h18V93h21v38q16 1 28 5 20 5 26 24c4 15 1 37-17 46q22 6 28 26m-103-1v42h43c10 0 18-9 18-18v-12q-2-18-20-19h-41m32-68h-32v46h31l9-3q12-7 11-24-1-15-19-19" style="fill:#020101"/><path id="Layer_5" d="M579 163q1-1-3-6a49 49 0 0 0-21-8q3 1 5 7c2 6-3 12-3 12 3 0 21 1 23-5Zm-36-14-10-1-7 12 9 3s-2-4 0-8 6-6 6-6m-45-5-16 3 12 7v-6z" style="fill:#fff"/></svg>